<?xml version="1.0" encoding="UTF-8"?>
<svg xmlns="http://www.w3.org/2000/svg" xmlns:xlink="http://www.w3.org/1999/xlink" width="2401" height="2401" viewBox="0 0 2401 2401">
<path fill-rule="evenodd" fill="rgb(95.3125%, 56.054688%, 25.488281%)" fill-opacity="1" d="M 2400 1200 C 2400 1518.261719 2273.570312 1823.488281 2048.53125 2048.53125 C 1823.488281 2273.574219 1518.261719 2400.003906 1200 2400.003906 C 881.742188 2400.003906 576.515625 2273.574219 351.472656 2048.53125 C 126.429688 1823.488281 0 1518.261719 0 1200 C 0 881.738281 126.429688 576.519531 351.472656 351.46875 C 576.515625 126.429688 881.742188 0 1200 0 C 1518.261719 0 1823.488281 126.429688 2048.53125 351.46875 C 2273.570312 576.519531 2400 881.738281 2400 1200 Z M 2400 1200 "/>
<path fill-rule="evenodd" fill="rgb(90.234375%, 90.234375%, 90.234375%)" fill-opacity="1" d="M 1200 1265.441406 C 1198.921875 1265.441406 1197.839844 1265.441406 1196.980469 1265.441406 L 1196.109375 1265.441406 C 1195.25 1265.441406 1194.390625 1265.441406 1193.519531 1265.230469 L 1193.089844 1265.230469 C 1192.011719 1265.230469 1191.140625 1265.230469 1190.070312 1265.230469 L 1189.199219 1265.011719 C 1188.339844 1265.011719 1187.480469 1265.011719 1186.609375 1264.800781 L 1186.179688 1264.800781 C 1185.320312 1264.800781 1184.230469 1264.800781 1183.160156 1264.578125 L 1182.289062 1264.578125 C 1181.429688 1264.359375 1180.78125 1264.359375 1179.910156 1264.148438 L 1179.269531 1264.148438 C 1178.191406 1264.148438 1177.320312 1263.929688 1176.238281 1263.710938 L 1175.378906 1263.710938 C 1174.519531 1263.5 1173.648438 1263.5 1173 1263.289062 L 1172.140625 1263.289062 C 1171.058594 1263.070312 1170.191406 1262.851562 1169.121094 1262.640625 L 1168.46875 1262.640625 C 1167.609375 1262.421875 1166.738281 1262.199219 1165.878906 1262.199219 L 1165.011719 1261.988281 C 1163.929688 1261.769531 1163.070312 1261.558594 1161.988281 1261.339844 L 1161.339844 1261.121094 C 1160.480469 1260.910156 1159.609375 1260.910156 1158.960938 1260.691406 L 1157.890625 1260.480469 C 1156.808594 1260.261719 1155.941406 1260.050781 1154.859375 1259.609375 L 1154 1259.609375 C 1153.351562 1259.398438 1152.480469 1259.179688 1151.839844 1258.960938 L 1150.539062 1258.53125 C 1149.679688 1258.320312 1149.03125 1258.101562 1148.160156 1257.890625 L 1146.871094 1257.671875 C 1146.011719 1257.449219 1145.359375 1257.238281 1144.488281 1257.019531 L 1143.410156 1256.589844 C 1142.550781 1256.371094 1141.691406 1256.160156 1141.039062 1255.941406 L 1139.960938 1255.511719 C 1139.089844 1255.289062 1138.230469 1254.859375 1137.371094 1254.640625 L 1135.859375 1254.210938 C 1135.210938 1254 1134.558594 1253.78125 1133.910156 1253.570312 L 1132.609375 1253.128906 C 1131.75 1252.699219 1130.890625 1252.480469 1130.019531 1252.269531 L 1128.511719 1251.621094 C 1127.859375 1251.410156 1127.429688 1251.191406 1126.789062 1250.96875 L 1125.488281 1250.539062 C 1124.410156 1250.109375 1123.539062 1249.679688 1122.679688 1249.460938 L 1121.171875 1248.808594 L 1119.441406 1248.160156 L 1117.929688 1247.519531 C 1117.058594 1247.089844 1116.199219 1246.648438 1115.339844 1246.441406 L 1113.609375 1245.789062 L 1112.101562 1244.929688 L 1110.589844 1244.28125 C 1109.941406 1244.058594 1109.289062 1243.851562 1108.640625 1243.410156 C 1107.78125 1242.980469 1106.910156 1242.769531 1106.269531 1242.339844 L 1104.75 1241.691406 L 1103.019531 1240.820312 C 1102.378906 1240.609375 1101.941406 1240.390625 1101.300781 1239.960938 C 1100.429688 1239.53125 1099.570312 1239.089844 1098.710938 1238.660156 L 1097.410156 1238.019531 L 1095.460938 1237.148438 L 1094.390625 1236.5 C 1093.308594 1235.859375 1092.230469 1235.421875 1090.929688 1234.769531 L 1089.851562 1234.128906 L 1087.910156 1233.261719 L 1087.039062 1232.609375 C 1085.75 1231.96875 1084.449219 1231.320312 1083.371094 1230.671875 L 1082.511719 1230.019531 C 1081.859375 1229.808594 1081.210938 1229.371094 1080.351562 1228.941406 L 1079.699219 1228.511719 C 1078.191406 1227.648438 1076.890625 1226.789062 1075.589844 1226.140625 L 1075.160156 1225.699219 C 1074.300781 1225.269531 1073.648438 1224.839844 1073 1224.410156 L 1072.140625 1223.980469 C 1069.980469 1222.679688 1067.609375 1221.171875 1065.441406 1219.871094 L 1064.578125 1219.441406 C 1062.421875 1217.929688 1060.039062 1216.421875 1057.671875 1214.691406 L 1057.238281 1214.46875 C 1054.859375 1212.960938 1052.480469 1211.230469 1050.109375 1209.5 L 1049.890625 1209.289062 C 1047.519531 1207.558594 1045.140625 1205.828125 1042.550781 1204.109375 L 1042.550781 1363.289062 L 1200 1571.707031 L 1357.238281 1363.289062 L 1357.238281 1204.109375 C 1354.640625 1205.828125 1352.269531 1207.78125 1349.890625 1209.5 L 1349.679688 1209.5 C 1347.300781 1211.230469 1344.929688 1212.960938 1342.339844 1214.46875 L 1342.121094 1214.691406 C 1339.738281 1216.421875 1337.371094 1217.929688 1334.988281 1219.441406 L 1334.558594 1219.660156 C 1332.179688 1221.171875 1329.808594 1222.679688 1327.429688 1224.191406 L 1327 1224.410156 C 1324.628906 1225.699219 1322.460938 1227.210938 1320.089844 1228.511719 L 1319.441406 1228.941406 C 1318.578125 1229.371094 1317.929688 1229.808594 1317.28125 1230.238281 L 1316.851562 1230.460938 C 1315.339844 1231.101562 1314.039062 1231.96875 1312.75 1232.609375 L 1311.878906 1233.050781 C 1311.230469 1233.480469 1310.371094 1233.910156 1309.71875 1234.339844 L 1309.070312 1234.558594 C 1307.78125 1235.421875 1306.480469 1236.070312 1304.96875 1236.71875 L 1304.320312 1237.148438 C 1303.671875 1237.371094 1303.03125 1237.800781 1302.378906 1238.019531 L 1301.300781 1238.660156 C 1300.21875 1239.089844 1299.140625 1239.738281 1298.058594 1240.179688 L 1296.761719 1240.820312 C 1296.109375 1241.039062 1295.679688 1241.46875 1295.039062 1241.691406 L 1293.738281 1242.339844 C 1293.089844 1242.550781 1292.441406 1242.769531 1292.011719 1243.199219 C 1291.148438 1243.410156 1290.28125 1243.851562 1289.421875 1244.28125 C 1288.769531 1244.5 1288.121094 1244.929688 1287.480469 1245.140625 L 1286.390625 1245.570312 C 1285.75 1245.789062 1285.101562 1246.21875 1284.449219 1246.441406 C 1283.589844 1246.871094 1282.71875 1247.089844 1281.859375 1247.519531 C 1281.429688 1247.730469 1280.78125 1247.949219 1280.351562 1248.160156 L 1278.839844 1248.808594 L 1277.109375 1249.460938 C 1276.238281 1249.679688 1275.378906 1250.109375 1274.519531 1250.539062 L 1273 1250.96875 L 1271.28125 1251.621094 L 1269.769531 1252.269531 C 1269.121094 1252.480469 1268.25 1252.699219 1267.390625 1252.921875 C 1266.960938 1253.128906 1266.308594 1253.351562 1265.878906 1253.570312 C 1265.230469 1253.78125 1264.578125 1254 1263.929688 1254.210938 L 1262.421875 1254.640625 C 1261.769531 1254.859375 1260.910156 1255.078125 1260.261719 1255.511719 L 1258.53125 1255.941406 C 1257.890625 1256.160156 1257.238281 1256.371094 1256.589844 1256.589844 L 1255.289062 1257.019531 C 1254.429688 1257.238281 1253.78125 1257.449219 1253.128906 1257.449219 L 1251.621094 1257.890625 C 1250.96875 1258.101562 1250.109375 1258.320312 1249.25 1258.53125 L 1248.160156 1258.960938 C 1247.300781 1259.179688 1246.441406 1259.398438 1245.789062 1259.609375 L 1244.929688 1259.609375 C 1244.058594 1260.050781 1242.980469 1260.261719 1242.121094 1260.480469 L 1240.820312 1260.691406 C 1240.179688 1260.910156 1239.308594 1260.910156 1238.660156 1261.121094 L 1237.800781 1261.339844 C 1236.71875 1261.558594 1235.859375 1261.769531 1234.769531 1261.988281 L 1233.910156 1262.199219 C 1233.050781 1262.199219 1232.179688 1262.421875 1231.320312 1262.640625 L 1230.671875 1262.640625 C 1229.589844 1262.851562 1228.730469 1263.070312 1227.648438 1263.289062 L 1226.789062 1263.289062 C 1226.140625 1263.5 1225.269531 1263.5 1224.410156 1263.710938 L 1223.539062 1263.710938 C 1222.679688 1263.929688 1221.601562 1264.148438 1220.519531 1264.148438 L 1219.871094 1264.148438 C 1219.011719 1264.359375 1218.359375 1264.359375 1217.5 1264.578125 L 1216.628906 1264.578125 C 1215.550781 1264.800781 1214.691406 1264.800781 1213.609375 1264.800781 L 1213.179688 1264.800781 C 1212.308594 1265.011719 1211.449219 1265.011719 1210.589844 1265.011719 L 1209.71875 1265.230469 C 1208.640625 1265.230469 1207.78125 1265.230469 1206.691406 1265.230469 L 1206.269531 1265.230469 C 1205.398438 1265.441406 1204.539062 1265.441406 1203.671875 1265.441406 L 1202.808594 1265.441406 C 1201.941406 1265.441406 1200.871094 1265.441406 1200 1265.441406 Z M 1006.480469 1174.300781 C 1005.621094 1173.648438 1004.75 1172.789062 1003.671875 1171.929688 L 1003.019531 1171.28125 L 1002.589844 1170.839844 L 1002.378906 1170.628906 C 1001.730469 1169.980469 1000.871094 1169.328125 1000.21875 1168.679688 L 998.921875 1167.390625 C 998.273438 1166.738281 997.625 1166.089844 996.976562 1165.441406 L 995.683594 1164.148438 L 995.035156 1163.710938 L 993.523438 1162.199219 C 992.875 1161.558594 992.226562 1160.910156 991.578125 1160.261719 L 990.28125 1158.960938 C 989.417969 1158.320312 988.554688 1157.449219 987.691406 1156.589844 L 987.042969 1155.730469 C 986.179688 1154.859375 985.097656 1154 984.234375 1152.921875 L 983.585938 1152.269531 C 982.722656 1151.410156 981.644531 1150.320312 980.777344 1149.460938 L 980.347656 1148.808594 C 979.265625 1147.730469 978.1875 1146.648438 977.105469 1145.570312 L 976.890625 1145.359375 C 974.730469 1142.980469 972.355469 1140.609375 970.195312 1138.019531 C 898.488281 1058.75 855.726562 965.011719 855.726562 887.039062 L 855.726562 672.789062 C 855.726562 539.960938 954.214844 431.960938 1075.378906 431.960938 L 1324.410156 431.960938 C 1445.570312 431.960938 1544.058594 539.960938 1544.058594 672.789062 L 1544.058594 887.039062 C 1544.058594 965.011719 1501.300781 1058.960938 1429.589844 1138.019531 C 1428.511719 1139.308594 1427.429688 1140.609375 1426.140625 1141.691406 L 1426.140625 1141.898438 C 1425.058594 1142.980469 1423.980469 1144.28125 1422.679688 1145.359375 L 1422.679688 1145.570312 C 1421.601562 1146.648438 1420.519531 1147.730469 1419.441406 1148.808594 L 1419.011719 1149.25 C 1418.140625 1150.320312 1417.070312 1151.410156 1416.199219 1152.269531 L 1415.558594 1152.921875 C 1414.691406 1154 1413.609375 1154.859375 1412.75 1155.730469 L 1412.101562 1156.589844 C 1411.230469 1157.449219 1410.371094 1158.320312 1409.5 1159.179688 L 1408.210938 1160.261719 C 1407.558594 1160.910156 1406.910156 1161.558594 1406.269531 1162.199219 L 1402.808594 1165.660156 C 1402.160156 1166.308594 1401.519531 1166.738281 1400.871094 1167.390625 L 1400.871094 1167.609375 L 1400.21875 1168.039062 L 1399.570312 1168.679688 C 1398.710938 1169.328125 1398.058594 1170.191406 1397.410156 1170.839844 L 1396.761719 1171.28125 L 1396.109375 1171.929688 C 1395.25 1172.789062 1394.390625 1173.648438 1393.308594 1174.300781 L 1393.308594 1351.410156 L 1464.800781 1351.410156 C 1676.03125 1351.410156 1848.171875 1479.050781 1848.171875 1636.289062 L 1848.171875 1949.894531 C 1848.171875 1959.832031 1839.960938 1967.820312 1830.019531 1967.820312 L 569.761719 1967.820312 C 559.828125 1967.820312 551.835938 1959.832031 551.835938 1949.894531 L 551.835938 1636.289062 C 551.835938 1479.050781 723.757812 1351.410156 934.992188 1351.410156 L 1006.480469 1351.410156 Z M 900 893.949219 C 897.195312 893.949219 894.386719 893.949219 891.792969 893.949219 C 897.195312 1040.390625 1069.550781 1229.371094 1199.789062 1229.371094 C 1332.398438 1229.371094 1507.988281 1034.121094 1507.988281 887.039062 L 1507.988281 854.429688 C 1440.179688 847.300781 1381.429688 814.46875 1337.148438 758.75 C 1320.308594 737.800781 1308.429688 716.851562 1300.429688 700.429688 C 1220.730469 808.859375 1114.46875 855.941406 1036.929688 876.238281 C 979.050781 891.140625 929.375 893.949219 900 893.949219 Z M 900 893.949219 "/>
<path fill-rule="nonzero" fill="rgb(0%, 0%, 0%)" fill-opacity="1" d="M 1200 1271.488281 C 1199.140625 1271.488281 1200 1271.488281 1198.269531 1271.488281 L 1196.761719 1271.28125 L 1191.140625 1271.28125 L 1189.851562 1271.058594 L 1187.480469 1271.058594 L 1186.179688 1270.839844 L 1185.75 1270.839844 C 1184.878906 1270.839844 1185.960938 1270.839844 1184.230469 1270.628906 L 1182.71875 1270.628906 L 1181.859375 1270.410156 L 1180.351562 1270.410156 L 1179.269531 1270.191406 L 1178.398438 1270.191406 C 1177.75 1269.980469 1178.621094 1270.191406 1176.890625 1269.980469 L 1175.378906 1269.769531 L 1174.519531 1269.550781 L 1173.21875 1269.328125 L 1172.140625 1269.328125 L 1171.28125 1269.121094 L 1169.769531 1268.898438 L 1169.550781 1268.898438 L 1168.039062 1268.679688 L 1167.390625 1268.46875 L 1166.089844 1268.25 L 1164.800781 1268.039062 L 1163.929688 1267.820312 L 1162.421875 1267.609375 L 1160.910156 1267.171875 L 1160.039062 1266.960938 L 1158.75 1266.738281 L 1157.671875 1266.519531 L 1157.449219 1266.519531 L 1156.589844 1266.308594 L 1155.078125 1265.871094 L 1153.570312 1265.441406 L 1153.351562 1265.441406 L 1152.699219 1265.230469 L 1151.410156 1265.011719 L 1150.320312 1264.800781 L 1149.03125 1264.359375 L 1147.730469 1264.148438 L 1146.441406 1263.710938 L 1145.140625 1263.289062 L 1144.058594 1263.070312 L 1142.980469 1262.640625 L 1142.769531 1262.640625 L 1141.691406 1262.199219 L 1140.390625 1261.988281 L 1139.308594 1261.558594 L 1139.089844 1261.558594 L 1138.019531 1261.121094 L 1136.71875 1260.691406 L 1135.421875 1260.261719 L 1134.128906 1259.828125 L 1133.050781 1259.609375 L 1131.96875 1259.179688 L 1130.671875 1258.75 L 1129.378906 1258.320312 L 1129.160156 1258.320312 L 1128.078125 1257.890625 L 1127.859375 1257.890625 L 1126.570312 1257.238281 L 1124.628906 1256.589844 L 1123.328125 1256.160156 L 1123.328125 1255.941406 L 1121.820312 1255.511719 L 1120.519531 1255.078125 L 1120.519531 1254.859375 L 1119.011719 1254.429688 L 1117.28125 1253.570312 L 1115.769531 1253.128906 L 1114.261719 1252.480469 L 1112.960938 1251.839844 L 1111.449219 1251.191406 L 1111.230469 1251.191406 L 1109.71875 1250.539062 L 1107.988281 1249.679688 L 1107.128906 1249.25 L 1106.269531 1249.03125 L 1106.269531 1248.808594 L 1104.96875 1248.378906 L 1103.671875 1247.730469 L 1102.160156 1247.089844 L 1096.109375 1244.058594 L 1094.601562 1243.410156 L 1091.578125 1241.898438 C 1090.5 1241.25 1089.199219 1240.609375 1088.339844 1240.179688 L 1088.121094 1240.179688 L 1087.039062 1239.53125 L 1085.101562 1238.441406 L 1084.230469 1237.800781 L 1084.019531 1237.800781 L 1082.289062 1236.929688 L 1082.289062 1236.71875 L 1080.351562 1235.859375 L 1079.699219 1235.421875 L 1079.480469 1235.421875 L 1077.539062 1234.128906 L 1077.320312 1234.128906 L 1076.679688 1233.691406 C 1075.808594 1233.050781 1075.160156 1232.828125 1074.519531 1232.398438 L 1072.359375 1231.101562 L 1071.921875 1230.890625 C 1071.710938 1230.671875 1071.28125 1230.460938 1069.980469 1229.808594 L 1069.769531 1229.589844 L 1069.121094 1229.160156 C 1067.609375 1228.300781 1066.519531 1227.648438 1065.660156 1227 C 1065.230469 1226.789062 1064.148438 1226.140625 1062.199219 1224.839844 L 1061.558594 1224.410156 C 1061.128906 1224.191406 1059.828125 1223.328125 1057.890625 1222.03125 C 1056.371094 1221.171875 1055.289062 1220.308594 1054.429688 1219.660156 L 1054 1219.441406 C 1053.351562 1219.011719 1052.269531 1218.140625 1050.320312 1217.058594 L 1048.601562 1215.769531 L 1048.601562 1361.339844 L 1200 1561.773438 L 1351.191406 1361.339844 L 1351.191406 1215.769531 C 1349.460938 1217.058594 1347.519531 1218.359375 1345.789062 1219.441406 L 1345.359375 1219.660156 C 1344.5 1220.308594 1343.410156 1221.171875 1341.691406 1222.03125 L 1341.691406 1222.25 C 1340.820312 1222.679688 1339.738281 1223.539062 1338.230469 1224.410156 L 1337.800781 1224.839844 C 1336.5 1225.488281 1335.210938 1226.351562 1334.128906 1227 C 1333.261719 1227.648438 1331.96875 1228.300781 1330.460938 1229.371094 L 1330.238281 1229.589844 C 1328.730469 1230.238281 1327.648438 1231.101562 1326.570312 1231.539062 C 1325.488281 1232.179688 1324.410156 1232.828125 1323.109375 1233.691406 L 1322.460938 1234.128906 L 1320.089844 1235.421875 L 1319.660156 1235.640625 C 1319.011719 1236.070312 1317.5 1236.71875 1315.550781 1237.800781 L 1314.691406 1238.441406 C 1314.261719 1238.660156 1313.390625 1239.089844 1312.53125 1239.53125 L 1311.878906 1239.960938 L 1309.941406 1241.039062 L 1309.71875 1241.039062 C 1309.289062 1241.25 1308.640625 1241.691406 1307.78125 1242.121094 L 1307.128906 1242.339844 C 1306.480469 1242.769531 1305.621094 1243.199219 1304.96875 1243.410156 L 1304.109375 1244.058594 L 1302.378906 1244.710938 L 1300.648438 1245.570312 L 1299.359375 1246.21875 L 1298.488281 1246.648438 L 1297.628906 1247.089844 L 1296.328125 1247.730469 L 1295.25 1248.160156 L 1294.390625 1248.601562 C 1293.519531 1249.03125 1292.660156 1249.460938 1291.789062 1249.679688 L 1290.929688 1250.109375 L 1289.851562 1250.539062 L 1288.769531 1250.96875 L 1288.339844 1251.191406 L 1286.828125 1251.839844 L 1284.230469 1253.128906 L 1284.019531 1253.128906 L 1282.941406 1253.570312 L 1282.511719 1253.78125 L 1281 1254.210938 L 1279.269531 1255.078125 L 1276.679688 1255.941406 L 1275.160156 1256.589844 L 1274.949219 1256.589844 L 1273.441406 1257.238281 L 1273.21875 1257.238281 L 1271.929688 1257.890625 L 1270.628906 1258.320312 L 1269.550781 1258.75 L 1269.328125 1258.75 L 1267.820312 1259.179688 L 1267.609375 1259.179688 L 1266.738281 1259.609375 L 1265.660156 1259.828125 L 1264.359375 1260.261719 L 1263.289062 1260.691406 L 1261.988281 1261.121094 L 1260.480469 1261.558594 L 1260.261719 1261.558594 L 1259.398438 1261.988281 L 1258.320312 1262.199219 L 1256.808594 1262.640625 L 1255.730469 1263.070312 L 1254.640625 1263.289062 L 1253.351562 1263.710938 L 1252.058594 1264.148438 L 1250.761719 1264.359375 L 1249.460938 1264.800781 L 1248.378906 1265.011719 L 1247.089844 1265.230469 L 1246.441406 1265.441406 L 1246.21875 1265.441406 L 1244.929688 1265.871094 L 1243.410156 1266.308594 L 1242.121094 1266.519531 L 1241.039062 1266.738281 L 1239.960938 1266.960938 L 1239.089844 1267.171875 L 1238.878906 1267.171875 C 1237.371094 1267.609375 1237.800781 1267.390625 1237.371094 1267.609375 L 1235.859375 1267.820312 L 1234.988281 1268.039062 L 1233.691406 1268.25 L 1232.398438 1268.46875 L 1231.75 1268.679688 L 1230.238281 1268.898438 L 1230.019531 1268.898438 L 1228.511719 1269.121094 L 1227.859375 1269.328125 L 1226.570312 1269.328125 L 1225.269531 1269.550781 L 1224.410156 1269.769531 L 1221.378906 1270.191406 L 1220.519531 1270.191406 L 1219.441406 1270.410156 L 1218.140625 1270.410156 L 1217.28125 1270.628906 L 1215.550781 1270.628906 L 1214.039062 1270.839844 L 1213.609375 1270.839844 L 1212.308594 1271.058594 L 1209.941406 1271.058594 L 1208.640625 1271.28125 L 1203.03125 1271.28125 L 1201.511719 1271.488281 C 1199.570312 1271.488281 1200.648438 1271.488281 1200 1271.488281 Z M 1198.488281 1259.398438 C 1199.359375 1259.398438 1198.058594 1259.398438 1200 1259.398438 C 1201.730469 1259.398438 1200.429688 1259.398438 1201.300781 1259.398438 L 1206.480469 1259.398438 L 1207.988281 1259.179688 L 1210.148438 1259.179688 L 1211.449219 1258.960938 L 1213.179688 1258.960938 L 1214.691406 1258.75 L 1215.980469 1258.75 L 1216.851562 1258.53125 L 1218.140625 1258.53125 L 1219.21875 1258.320312 L 1219.871094 1258.320312 L 1221.378906 1258.101562 L 1222.679688 1257.890625 L 1223.539062 1257.671875 L 1224.839844 1257.671875 L 1224.839844 1257.449219 L 1225.921875 1257.449219 L 1226.789062 1257.238281 L 1228.078125 1257.019531 L 1229.589844 1256.808594 L 1230.460938 1256.589844 L 1231.539062 1256.371094 L 1232.828125 1256.160156 L 1233.691406 1256.160156 L 1234.988281 1255.730469 C 1236.5 1255.511719 1236.070312 1255.511719 1236.5 1255.511719 L 1237.371094 1255.289062 L 1238.441406 1255.078125 L 1239.53125 1254.859375 L 1240.609375 1254.640625 L 1242.121094 1254.210938 L 1243.410156 1254 L 1244.28125 1253.78125 L 1245.359375 1253.351562 L 1246.648438 1253.128906 L 1247.730469 1252.921875 L 1248.808594 1252.480469 L 1250.109375 1252.269531 L 1251.410156 1251.839844 L 1252.480469 1251.410156 L 1253.570312 1251.191406 L 1254.859375 1250.761719 L 1255.941406 1250.539062 L 1256.808594 1250.109375 L 1258.53125 1249.679688 L 1259.609375 1249.25 L 1260.691406 1249.03125 L 1261.988281 1248.601562 L 1262.851562 1248.160156 L 1263.929688 1247.949219 L 1264.148438 1247.730469 L 1264.148438 1247.949219 L 1265.441406 1247.300781 L 1266.519531 1246.871094 L 1269.121094 1246.011719 L 1270.839844 1245.359375 L 1272.359375 1244.929688 L 1273.648438 1244.28125 L 1274.949219 1243.851562 L 1277.96875 1242.550781 L 1278.398438 1242.339844 L 1278.398438 1242.550781 L 1279.480469 1241.898438 L 1280.78125 1241.46875 L 1282.070312 1240.820312 L 1283.808594 1240.179688 L 1284.019531 1240.179688 L 1285.101562 1239.53125 L 1285.960938 1239.089844 L 1287.039062 1238.660156 C 1287.910156 1238.230469 1288.769531 1238.019531 1289.421875 1237.578125 L 1290.28125 1237.148438 L 1291.148438 1236.929688 L 1292.441406 1236.289062 L 1293.308594 1235.859375 L 1294.171875 1235.421875 L 1295.460938 1234.769531 L 1296.980469 1234.128906 L 1298.710938 1233.261719 L 1299.570312 1232.828125 C 1300.429688 1232.398438 1301.078125 1232.179688 1301.730469 1231.75 L 1302.378906 1231.320312 C 1302.808594 1231.101562 1303.460938 1230.890625 1304.320312 1230.460938 L 1306.269531 1229.371094 L 1306.910156 1228.941406 L 1308.859375 1227.859375 L 1309.941406 1227.429688 C 1310.589844 1227 1311.878906 1226.351562 1313.820312 1225.269531 L 1314.261719 1224.839844 L 1316.421875 1223.761719 L 1317.070312 1223.328125 C 1318.140625 1222.679688 1319.21875 1222.03125 1320.519531 1221.378906 C 1321.820312 1220.519531 1322.890625 1219.871094 1323.980469 1219.21875 L 1324.410156 1219.011719 C 1325.269531 1218.578125 1326.351562 1217.710938 1327.859375 1216.851562 C 1329.160156 1215.980469 1330.238281 1215.339844 1331.320312 1214.691406 L 1331.75 1214.46875 C 1332.621094 1213.820312 1333.691406 1213.179688 1335.210938 1212.101562 C 1336.070312 1211.660156 1337.148438 1210.800781 1338.660156 1209.71875 L 1339.089844 1209.5 C 1341.691406 1207.78125 1344.058594 1206.269531 1346.21875 1204.75 L 1346.441406 1204.539062 C 1347.519531 1203.671875 1348.601562 1202.808594 1350.109375 1201.941406 C 1350.96875 1201.300781 1352.269531 1200.21875 1353.570312 1199.359375 L 1353.78125 1199.140625 L 1363.289062 1192.230469 L 1363.289062 1363.289062 L 1361.988281 1366.960938 L 1204.75 1575.164062 L 1200 1581.644531 L 1195.039062 1575.164062 L 1037.800781 1366.960938 L 1036.5 1363.289062 L 1036.5 1192.230469 L 1046 1199.140625 L 1046.21875 1199.359375 C 1047.519531 1200.429688 1048.808594 1201.300781 1049.679688 1201.941406 C 1050.539062 1202.378906 1051.621094 1203.238281 1053.351562 1204.539062 L 1053.570312 1204.75 C 1055.078125 1205.828125 1056.371094 1206.691406 1057.238281 1207.128906 C 1057.671875 1207.558594 1058.960938 1208.210938 1060.691406 1209.5 L 1061.128906 1209.71875 C 1062.640625 1210.800781 1063.710938 1211.660156 1064.578125 1212.101562 C 1064.800781 1212.308594 1066.089844 1213.179688 1067.820312 1214.261719 L 1068.679688 1214.691406 C 1068.898438 1214.910156 1069.980469 1215.550781 1071.921875 1216.851562 C 1073.21875 1217.710938 1074.519531 1218.359375 1075.160156 1218.789062 L 1076.03125 1219.441406 L 1076.238281 1219.441406 L 1078.191406 1220.730469 L 1078.621094 1220.949219 L 1080.558594 1222.03125 C 1081.429688 1222.679688 1082.070312 1223.109375 1082.71875 1223.328125 L 1083.371094 1223.761719 L 1085.53125 1224.839844 L 1086.179688 1225.269531 L 1088.121094 1226.351562 L 1089.851562 1227.429688 L 1090.929688 1227.859375 L 1092.660156 1228.941406 L 1093.738281 1229.589844 C 1095.039062 1230.019531 1096.109375 1230.671875 1096.980469 1231.101562 L 1108.640625 1236.929688 L 1109.941406 1237.371094 L 1111.019531 1238.019531 L 1111.230469 1238.019531 L 1112.101562 1238.441406 L 1112.960938 1238.878906 L 1115.980469 1240.179688 L 1117.710938 1240.820312 L 1119.011719 1241.46875 L 1120.308594 1241.898438 L 1121.601562 1242.550781 L 1123.328125 1243.199219 L 1124.839844 1243.851562 L 1126.140625 1244.28125 L 1127.429688 1244.929688 L 1128.730469 1245.359375 L 1130.671875 1246.011719 L 1131.96875 1246.441406 L 1133.261719 1246.871094 L 1133.261719 1247.089844 L 1134.558594 1247.300781 L 1135.859375 1247.949219 L 1136.929688 1248.160156 L 1137.800781 1248.601562 L 1139.089844 1249.03125 L 1141.691406 1249.890625 L 1142.769531 1250.109375 L 1143.851562 1250.539062 L 1144.929688 1250.761719 L 1146.21875 1251.191406 L 1147.300781 1251.410156 L 1148.378906 1251.839844 L 1149.679688 1252.269531 L 1150.96875 1252.480469 L 1152.058594 1252.921875 L 1153.351562 1253.128906 L 1153.128906 1253.128906 L 1154.429688 1253.351562 L 1155.511719 1253.78125 L 1156.378906 1254 L 1157.671875 1254.210938 L 1159.179688 1254.640625 L 1160.261719 1254.859375 L 1161.339844 1255.078125 L 1162.421875 1255.289062 L 1163.289062 1255.511719 L 1164.800781 1255.730469 L 1166.089844 1256.160156 L 1166.960938 1256.160156 L 1168.25 1256.371094 L 1169.550781 1256.589844 L 1170.191406 1256.808594 L 1171.710938 1257.019531 L 1173 1257.238281 L 1173.871094 1257.449219 L 1174.949219 1257.449219 L 1174.949219 1257.671875 L 1176.238281 1257.671875 L 1177.109375 1257.890625 L 1178.398438 1258.101562 C 1179.050781 1258.101562 1178.191406 1258.101562 1179.910156 1258.320312 L 1180.558594 1258.320312 L 1181.859375 1258.53125 L 1182.941406 1258.53125 L 1183.808594 1258.75 L 1185.320312 1258.75 C 1185.960938 1258.75 1184.671875 1258.75 1186.609375 1258.960938 L 1188.339844 1258.960938 L 1189.628906 1259.179688 L 1191.789062 1259.179688 L 1193.308594 1259.398438 Z M 1009.070312 1168.679688 L 1010.589844 1169.980469 L 1012.53125 1171.929688 L 1012.53125 1357.449219 L 934.992188 1357.449219 C 830.671875 1357.449219 736.070312 1388.769531 667.605469 1439.742188 C 599.785156 1490.066406 557.667969 1559.613281 557.667969 1636.289062 L 557.667969 1949.894531 C 557.667969 1953.132812 559.179688 1956.160156 561.339844 1958.316406 C 563.5 1960.476562 566.523438 1961.773438 569.761719 1961.773438 L 1830.019531 1961.773438 C 1833.480469 1961.773438 1836.289062 1960.476562 1838.449219 1958.316406 C 1840.820312 1956.160156 1842.121094 1953.132812 1842.121094 1949.894531 L 1842.121094 1636.289062 C 1842.121094 1559.613281 1800 1490.066406 1732.179688 1439.742188 C 1663.71875 1388.769531 1569.121094 1357.449219 1464.800781 1357.449219 L 1387.261719 1357.449219 L 1387.261719 1171.929688 L 1389.199219 1169.980469 L 1389.421875 1169.980469 L 1392.011719 1167.390625 L 1392.660156 1166.960938 L 1393.308594 1166.308594 L 1394.390625 1165.441406 L 1395.460938 1164.359375 L 1395.460938 1164.148438 L 1396.109375 1163.710938 L 1396.761719 1163.070312 L 1397.628906 1162.199219 L 1398.710938 1161.339844 L 1413.390625 1146.648438 L 1414.691406 1145.140625 L 1416.851562 1142.980469 L 1418.359375 1141.46875 L 1420.089844 1139.53125 L 1421.820312 1137.800781 L 1421.820312 1137.578125 L 1422.03125 1137.578125 L 1423.539062 1135.859375 L 1425.058594 1134.121094 C 1460.480469 1095.039062 1488.769531 1052.269531 1508.210938 1009.5 C 1527.648438 967.171875 1538.019531 925.058594 1538.019531 887.039062 L 1538.019531 672.789062 C 1538.019531 607.988281 1514.039062 549.25 1475.160156 506.691406 C 1436.5 464.148438 1383.160156 438.011719 1324.410156 438.011719 L 1075.378906 438.011719 C 1016.628906 438.011719 963.285156 464.148438 924.625 506.691406 C 885.746094 549.25 861.773438 607.988281 861.773438 672.789062 L 861.773438 887.039062 C 861.773438 925.058594 872.355469 967.171875 891.578125 1009.5 C 911.015625 1052.269531 939.308594 1095.039062 974.730469 1134.121094 C 975.164062 1134.558594 976.242188 1135.859375 977.972656 1137.578125 C 979.265625 1139.089844 980.347656 1140.179688 981.210938 1141.25 L 985.097656 1145.140625 L 986.394531 1146.648438 L 992.011719 1152.269531 C 992.875 1153.128906 993.738281 1154 994.386719 1154.859375 L 995.683594 1155.941406 L 996.761719 1157.019531 L 997.839844 1158.101562 L 999.136719 1159.398438 L 999.785156 1159.828125 L 1002.160156 1162.199219 L 1003.019531 1163.070312 L 1004.320312 1164.359375 L 1005.398438 1165.230469 L 1006.480469 1166.308594 L 1007.128906 1166.960938 L 1007.78125 1167.390625 L 1007.78125 1167.609375 Z M 1000.648438 1177.109375 L 999.785156 1176.238281 L 999.570312 1176.238281 L 998.921875 1175.808594 L 998.921875 1175.589844 L 998.488281 1175.160156 L 998.273438 1175.160156 L 997.195312 1174.078125 L 996.113281 1173 L 994.816406 1171.929688 L 993.738281 1170.839844 L 992.875 1169.769531 L 992.65625 1169.769531 L 991.363281 1168.46875 L 989.417969 1166.519531 L 988.339844 1165.660156 L 988.339844 1165.441406 L 987.257812 1164.578125 L 986.179688 1163.289062 L 985.960938 1163.289062 C 985.316406 1162.421875 984.449219 1161.558594 983.585938 1160.691406 L 982.722656 1160.039062 L 981.425781 1158.53125 L 979.914062 1157.238281 L 979.265625 1156.589844 L 977.972656 1155.078125 L 976.460938 1153.570312 L 976.027344 1152.921875 L 974.300781 1151.410156 L 972.789062 1149.679688 L 972.570312 1149.460938 C 971.277344 1148.160156 970.195312 1146.871094 969.117188 1145.789062 C 968.683594 1145.359375 967.605469 1144.058594 965.875 1142.121094 C 929.589844 1101.941406 900.648438 1058.101562 880.777344 1014.46875 C 860.691406 970.628906 849.675781 926.78125 849.675781 887.039062 L 849.675781 672.789062 C 849.675781 604.96875 874.949219 543.199219 915.769531 498.488281 C 956.589844 453.78125 1012.960938 425.921875 1075.378906 425.921875 L 1324.410156 425.921875 C 1386.828125 425.921875 1443.199219 453.78125 1484.019531 498.488281 C 1524.839844 543.199219 1550.109375 604.96875 1550.109375 672.789062 L 1550.109375 887.039062 C 1550.109375 926.78125 1539.089844 970.628906 1519.230469 1014.46875 C 1499.140625 1058.320312 1470.191406 1101.941406 1433.910156 1142.121094 L 1432.398438 1143.851562 L 1432.398438 1144.058594 L 1430.671875 1145.789062 L 1430.460938 1146.011719 L 1428.941406 1147.730469 L 1428.730469 1147.730469 L 1427.210938 1149.460938 L 1427.210938 1149.679688 L 1427 1149.679688 L 1425.488281 1151.191406 L 1425.488281 1151.410156 L 1423.980469 1152.921875 L 1423.761719 1152.921875 L 1423.328125 1153.570312 L 1422.03125 1155.078125 L 1421.820312 1155.078125 L 1420.519531 1156.589844 L 1419.871094 1157.238281 L 1418.359375 1158.53125 L 1417.070312 1160.039062 L 1412.53125 1164.578125 L 1411.449219 1165.441406 L 1411.449219 1165.660156 L 1410.371094 1166.519531 L 1406.050781 1170.839844 L 1404.96875 1171.710938 L 1404.96875 1171.929688 L 1404.320312 1172.359375 L 1403.671875 1173 L 1403.671875 1173.21875 L 1403.460938 1173 L 1400.871094 1175.589844 L 1400.871094 1175.808594 L 1400.21875 1176.238281 L 1399.359375 1177.109375 L 1399.359375 1345.359375 L 1464.800781 1345.359375 C 1571.710938 1345.359375 1668.898438 1377.75 1739.308594 1430.023438 C 1810.148438 1482.722656 1854 1555.726562 1854 1636.289062 L 1854 1949.894531 C 1854 1956.375 1851.410156 1962.421875 1847.089844 1966.742188 C 1842.550781 1971.0625 1836.71875 1973.867188 1830.019531 1973.867188 L 569.761719 1973.867188 C 563.066406 1973.867188 557.019531 1971.0625 552.699219 1966.742188 C 548.382812 1962.421875 545.789062 1956.375 545.789062 1949.894531 L 545.789062 1636.289062 C 545.789062 1555.726562 589.632812 1482.722656 660.476562 1430.023438 C 730.886719 1377.75 828.078125 1345.359375 934.992188 1345.359375 L 1000.648438 1345.359375 Z M 900 900 L 898.273438 900 C 903.023438 970.410156 946.222656 1050.109375 1003.890625 1112.960938 C 1062.851562 1177.320312 1136.5 1223.539062 1199.789062 1223.539062 C 1264.359375 1223.539062 1339.738281 1175.589844 1399.140625 1109.5 C 1458.75 1043.199219 1501.941406 959.179688 1501.941406 887.039062 L 1501.941406 859.828125 C 1469.328125 855.730469 1438.660156 845.570312 1410.800781 830.019531 C 1381.429688 813.609375 1355.078125 790.929688 1332.621094 762.640625 C 1323.980469 751.839844 1316.628906 741.039062 1310.371094 731.101562 C 1306.269531 724.410156 1302.589844 717.929688 1299.359375 711.878906 C 1265.660156 755.730469 1227.648438 789.421875 1189.199219 814.898438 C 1136.5 850.109375 1082.71875 870.410156 1038.441406 881.859375 C 1013.609375 888.339844 990.28125 892.660156 969.332031 895.25 C 940.820312 899.140625 917.0625 900 900 900 Z M 895.898438 888.121094 C 896.113281 888.121094 896.761719 888.121094 900 888.121094 C 916.847656 888.121094 940.175781 887.039062 967.820312 883.589844 C 988.339844 880.78125 1011.019531 876.679688 1035.421875 870.410156 C 1078.839844 858.960938 1131.101562 839.308594 1182.511719 804.96875 C 1222.25 778.621094 1261.339844 743.410156 1295.679688 696.980469 L 1301.519531 688.980469 L 1305.828125 697.839844 C 1309.71875 705.828125 1314.46875 714.898438 1320.519531 724.839844 C 1326.570312 734.558594 1333.691406 744.710938 1341.898438 755.078125 C 1363.5 782.289062 1388.769531 803.890625 1416.628906 819.441406 C 1444.710938 835.210938 1475.601562 844.929688 1508.640625 848.601562 L 1514.039062 849.25 L 1514.039062 887.039062 C 1514.039062 962.199219 1469.550781 1049.25 1407.988281 1117.5 C 1346.648438 1185.75 1267.820312 1235.421875 1199.789062 1235.421875 C 1133.050781 1235.421875 1056.160156 1187.691406 995.035156 1121.171875 C 933.910156 1054.640625 888.554688 968.898438 885.960938 894.171875 L 885.746094 887.910156 L 892.011719 887.910156 C 893.304688 887.910156 894.601562 887.910156 895.898438 888.121094 Z M 895.898438 888.121094 "/>
</svg>
