<?xml version="1.0" encoding="UTF-8"?>
<svg xmlns="http://www.w3.org/2000/svg" xmlns:xlink="http://www.w3.org/1999/xlink" width="3000" height="3000" viewBox="0 0 3000 3000">
<path fill-rule="evenodd" fill="rgb(95.3125%, 56.054688%, 25.488281%)" fill-opacity="1" d="M 1500 0 C 2328.429688 0 3000 671.570312 3000 1500 C 3000 2328.429688 2328.429688 2999.996094 1500 2999.996094 C 671.570312 2999.996094 0.00390625 2328.429688 0.00390625 1500 C 0.00390625 671.570312 671.570312 0 1500 0 "/>
<path fill-rule="evenodd" fill="rgb(90.234375%, 90.234375%, 90.234375%)" fill-opacity="1" d="M 1433.171875 1715.640625 C 1416.058594 1698.53125 1405.480469 1674.898438 1405.480469 1648.800781 C 1405.480469 1622.699219 1416.058594 1599.070312 1433.171875 1581.96875 C 1444.449219 1570.679688 1458.578125 1562.238281 1474.378906 1557.800781 L 1474.378906 1542.328125 C 1474.378906 1529.910156 1484.460938 1519.828125 1496.878906 1519.828125 C 1509.308594 1519.828125 1519.378906 1529.910156 1519.378906 1542.328125 L 1519.378906 1556.28125 C 1534.078125 1559.351562 1547.53125 1565.859375 1558.871094 1574.898438 C 1575.339844 1588.050781 1587.320312 1606.628906 1592.128906 1627.929688 C 1594.851562 1640.011719 1587.25 1652.019531 1575.171875 1654.738281 C 1563.089844 1657.449219 1551.078125 1649.859375 1548.371094 1637.769531 C 1545.859375 1626.679688 1539.570312 1616.960938 1530.921875 1610.058594 C 1522.46875 1603.320312 1511.71875 1599.28125 1500 1599.28125 L 1497.570312 1599.339844 C 1484.871094 1599.949219 1473.410156 1605.359375 1464.988281 1613.78125 C 1456.03125 1622.738281 1450.480469 1635.128906 1450.480469 1648.800781 C 1450.480469 1662.46875 1456.03125 1674.859375 1464.988281 1683.820312 C 1473.949219 1692.78125 1486.328125 1698.320312 1500 1698.320312 C 1526.101562 1698.320312 1549.730469 1708.898438 1566.839844 1726.011719 C 1583.949219 1743.109375 1594.53125 1766.75 1594.53125 1792.851562 C 1594.53125 1818.949219 1583.949219 1842.578125 1566.839844 1859.679688 C 1554.089844 1872.441406 1537.710938 1881.558594 1519.378906 1885.378906 L 1519.378906 1904.019531 C 1519.378906 1916.441406 1509.308594 1926.519531 1496.878906 1926.519531 C 1484.460938 1926.519531 1474.378906 1916.441406 1474.378906 1904.019531 L 1474.378906 1883.828125 C 1463.421875 1880.730469 1453.238281 1875.691406 1444.25 1869.109375 C 1428.210938 1857.371094 1416 1840.699219 1409.878906 1821.371094 C 1406.148438 1809.519531 1412.71875 1796.890625 1424.558594 1793.148438 C 1436.398438 1789.421875 1449.039062 1795.988281 1452.769531 1807.828125 C 1455.988281 1818 1462.390625 1826.75 1470.789062 1832.898438 C 1478.921875 1838.851562 1489.019531 1842.371094 1500 1842.371094 C 1513.679688 1842.371094 1526.058594 1836.828125 1535.019531 1827.871094 C 1543.980469 1818.910156 1549.53125 1806.519531 1549.53125 1792.851562 C 1549.53125 1779.179688 1543.980469 1766.789062 1535.019531 1757.828125 C 1526.058594 1748.871094 1513.679688 1743.320312 1500 1743.320312 C 1473.910156 1743.320312 1450.269531 1732.738281 1433.171875 1715.640625 Z M 1510.511719 585.28125 Z M 1500 799.390625 C 1546.660156 799.390625 1588.910156 818.308594 1619.488281 848.890625 C 1650.070312 879.46875 1668.980469 921.71875 1668.980469 968.378906 C 1668.980469 1015.039062 1650.070312 1057.289062 1619.488281 1087.871094 C 1588.910156 1118.441406 1546.660156 1137.359375 1500 1137.359375 C 1453.339844 1137.359375 1411.089844 1118.441406 1380.511719 1087.871094 C 1349.929688 1057.289062 1331.019531 1015.039062 1331.019531 968.378906 C 1331.019531 921.71875 1349.929688 879.46875 1380.511719 848.890625 C 1411.089844 818.308594 1453.339844 799.390625 1500 799.390625 Z M 1587.671875 880.710938 C 1565.238281 858.269531 1534.238281 844.390625 1500 844.390625 C 1465.761719 844.390625 1434.761719 858.269531 1412.328125 880.710938 C 1389.898438 903.140625 1376.019531 934.140625 1376.019531 968.378906 C 1376.019531 1002.609375 1389.898438 1033.609375 1412.328125 1056.050781 C 1434.761719 1078.480469 1465.761719 1092.359375 1500 1092.359375 C 1534.238281 1092.359375 1565.238281 1078.480469 1587.671875 1056.050781 C 1610.101562 1033.609375 1623.980469 1002.609375 1623.980469 968.378906 C 1623.980469 934.140625 1610.101562 903.140625 1587.671875 880.710938 Z M 562.5 1261.5 L 2437.488281 1261.46875 C 2444.710938 1261.460938 2451.789062 1258 2456.128906 1251.570312 C 2463.070312 1241.28125 2460.351562 1227.300781 2450.058594 1220.359375 L 1510.480469 585.339844 C 1503.109375 580.378906 1493.171875 580.078125 1485.378906 585.371094 L 551.65625 1219.28125 C 544.710938 1223.109375 540 1230.511719 540 1239 C 540 1251.421875 550.078125 1261.5 562.5 1261.5 Z M 562.5 2184.761719 L 2437.488281 2184.761719 C 2449.921875 2184.761719 2459.988281 2194.835938 2459.988281 2207.261719 L 2459.988281 2279.175781 L 540 2279.175781 L 540 2207.261719 C 540 2194.835938 550.078125 2184.761719 562.5 2184.761719 Z M 2459.988281 2324.175781 L 2459.988281 2395.988281 C 2459.988281 2408.414062 2449.921875 2418.488281 2437.488281 2418.488281 L 562.5 2418.488281 C 550.078125 2418.488281 540 2408.414062 540 2395.988281 L 540 2324.175781 Z M 687.703125 2147.261719 L 687.703125 2055.457031 C 687.703125 2043.03125 697.777344 2032.957031 710.203125 2032.957031 L 1071.25 2032.957031 C 1083.679688 2032.957031 1093.75 2043.03125 1093.75 2055.457031 L 1093.75 2147.261719 Z M 1906.25 2147.261719 L 1906.25 2055.457031 C 1906.25 2043.03125 1916.320312 2032.957031 1928.75 2032.957031 L 2289.800781 2032.957031 C 2302.21875 2032.957031 2312.300781 2043.03125 2312.300781 2055.457031 L 2312.300781 2147.261719 Z M 759.5 1995.460938 L 759.5 1450.800781 L 1021.949219 1450.800781 L 1021.949219 1995.460938 Z M 1978.039062 1995.460938 L 1978.039062 1450.800781 L 2240.488281 1450.800781 L 2240.488281 1995.460938 Z M 1071.25 1413.300781 L 710.203125 1413.300781 C 697.777344 1413.300781 687.703125 1403.21875 687.703125 1390.800781 L 687.703125 1298.988281 L 1093.75 1298.988281 L 1093.75 1390.800781 C 1093.75 1403.21875 1083.679688 1413.300781 1071.25 1413.300781 Z M 2289.800781 1413.300781 L 1928.75 1413.300781 C 1916.320312 1413.300781 1906.25 1403.21875 1906.25 1390.800781 L 1906.25 1298.980469 L 2312.300781 1298.96875 L 2312.300781 1390.800781 C 2312.300781 1403.21875 2302.21875 1413.300781 2289.800781 1413.300781 Z M 1719.71875 1503.449219 C 1663.5 1447.230469 1585.808594 1412.441406 1500 1412.441406 C 1414.199219 1412.441406 1336.511719 1447.230469 1280.28125 1503.449219 C 1224.058594 1559.679688 1189.269531 1637.371094 1189.269531 1723.171875 C 1189.269531 1808.980469 1224.058594 1886.671875 1280.28125 1942.890625 C 1336.511719 1999.121094 1414.199219 2033.910156 1500 2033.910156 C 1585.808594 2033.910156 1663.5 1999.121094 1719.71875 1942.890625 C 1775.949219 1886.671875 1810.738281 1808.980469 1810.738281 1723.171875 C 1810.738281 1637.371094 1775.949219 1559.679688 1719.71875 1503.449219 "/>
<path fill-rule="nonzero" fill="rgb(0%, 0%, 0%)" fill-opacity="1" d="M 1427.871094 1720.941406 C 1418.480469 1711.550781 1410.898438 1700.308594 1405.730469 1687.820312 L 1405.730469 1687.789062 C 1400.738281 1675.738281 1397.980469 1662.558594 1397.980469 1648.800781 C 1397.980469 1635.039062 1400.738281 1621.859375 1405.730469 1609.808594 L 1405.730469 1609.78125 C 1410.898438 1597.289062 1418.480469 1586.050781 1427.871094 1576.660156 C 1433.949219 1570.578125 1440.878906 1565.21875 1448.480469 1560.769531 C 1454.289062 1557.371094 1460.449219 1554.511719 1466.878906 1552.300781 L 1466.878906 1542.328125 C 1466.878906 1534.070312 1470.238281 1526.570312 1475.671875 1521.140625 L 1475.671875 1521.121094 C 1481.101562 1515.691406 1488.601562 1512.328125 1496.878906 1512.328125 C 1505.160156 1512.328125 1512.671875 1515.691406 1518.089844 1521.121094 L 1518.089844 1521.140625 C 1523.519531 1526.570312 1526.890625 1534.070312 1526.890625 1542.328125 L 1526.890625 1550.390625 C 1532.601562 1551.960938 1538.121094 1554 1543.371094 1556.488281 C 1550.601562 1559.890625 1557.371094 1564.128906 1563.53125 1569.039062 C 1572.488281 1576.199219 1580.238281 1584.859375 1586.371094 1594.628906 C 1592.378906 1604.21875 1596.859375 1614.898438 1599.429688 1626.289062 C 1601.238281 1634.351562 1599.609375 1642.378906 1595.53125 1648.828125 C 1591.441406 1655.308594 1584.859375 1660.21875 1576.808594 1662.03125 C 1568.761719 1663.839844 1560.71875 1662.21875 1554.269531 1658.128906 C 1547.789062 1654.039062 1542.878906 1647.460938 1541.070312 1639.410156 C 1540.03125 1634.78125 1538.179688 1630.398438 1535.699219 1626.46875 C 1533.179688 1622.460938 1529.96875 1618.878906 1526.261719 1615.921875 C 1522.589844 1612.988281 1518.429688 1610.660156 1513.941406 1609.101562 C 1509.640625 1607.609375 1504.949219 1606.78125 1500 1606.78125 L 1500 1606.761719 L 1497.921875 1606.800781 L 1497.921875 1606.808594 C 1492.601562 1607.058594 1487.550781 1608.300781 1482.96875 1610.328125 L 1482.96875 1610.359375 C 1478.238281 1612.460938 1473.929688 1615.441406 1470.289062 1619.089844 C 1466.398438 1622.96875 1463.269531 1627.609375 1461.148438 1632.730469 L 1461.140625 1632.730469 C 1459.109375 1637.640625 1457.988281 1643.070312 1457.988281 1648.800781 C 1457.988281 1654.53125 1459.109375 1659.960938 1461.140625 1664.871094 L 1461.148438 1664.871094 C 1463.269531 1669.988281 1466.398438 1674.628906 1470.289062 1678.519531 C 1474.179688 1682.398438 1478.820312 1685.539062 1483.941406 1687.660156 L 1483.929688 1687.671875 C 1488.839844 1689.699219 1494.269531 1690.820312 1500 1690.820312 C 1513.769531 1690.820312 1526.941406 1693.578125 1538.988281 1698.570312 L 1539.019531 1698.570312 C 1551.519531 1703.738281 1562.761719 1711.320312 1572.140625 1720.710938 C 1581.511719 1730.078125 1589.089844 1741.328125 1594.28125 1753.859375 C 1599.269531 1765.910156 1602.03125 1779.089844 1602.03125 1792.851562 C 1602.03125 1806.609375 1599.269531 1819.789062 1594.28125 1831.839844 L 1594.28125 1831.871094 C 1589.109375 1844.359375 1581.53125 1855.601562 1572.140625 1864.988281 C 1565.210938 1871.910156 1557.25 1877.871094 1548.488281 1882.609375 C 1541.71875 1886.269531 1534.488281 1889.199219 1526.890625 1891.269531 L 1526.890625 1904.019531 C 1526.890625 1912.300781 1523.519531 1919.808594 1518.089844 1925.230469 C 1512.671875 1930.660156 1505.160156 1934.019531 1496.878906 1934.019531 C 1488.601562 1934.019531 1481.101562 1930.660156 1475.671875 1925.230469 C 1470.238281 1919.808594 1466.878906 1912.300781 1466.878906 1904.019531 L 1466.878906 1889.320312 C 1462.910156 1887.960938 1459.078125 1886.371094 1455.410156 1884.570312 C 1449.96875 1881.921875 1444.738281 1878.75 1439.820312 1875.148438 C 1431.140625 1868.789062 1423.480469 1861.058594 1417.160156 1852.289062 C 1410.910156 1843.609375 1406 1833.949219 1402.730469 1823.621094 C 1400.238281 1815.730469 1401.191406 1807.558594 1404.730469 1800.761719 C 1408.261719 1793.96875 1414.398438 1788.511719 1422.308594 1786.019531 L 1422.300781 1786.011719 C 1430.199219 1783.519531 1438.359375 1784.460938 1445.171875 1788 C 1451.960938 1791.53125 1457.421875 1797.679688 1459.910156 1805.578125 L 1459.921875 1805.578125 C 1461.289062 1809.898438 1463.308594 1813.898438 1465.839844 1817.421875 C 1468.429688 1821.019531 1471.601562 1824.21875 1475.210938 1826.859375 C 1478.71875 1829.421875 1482.660156 1831.460938 1486.878906 1832.828125 C 1490.949219 1834.148438 1495.371094 1834.871094 1500 1834.871094 C 1505.738281 1834.871094 1511.171875 1833.75 1516.078125 1831.710938 L 1516.070312 1831.710938 C 1521.191406 1829.578125 1525.828125 1826.449219 1529.71875 1822.558594 C 1533.609375 1818.679688 1536.738281 1814.039062 1538.859375 1808.921875 L 1538.871094 1808.921875 C 1540.898438 1804.011719 1542.019531 1798.578125 1542.019531 1792.851562 C 1542.019531 1787.128906 1540.890625 1781.691406 1538.859375 1776.78125 L 1538.859375 1776.75 C 1536.75 1771.660156 1533.621094 1767.03125 1529.71875 1763.128906 C 1525.828125 1759.238281 1521.191406 1756.109375 1516.070312 1753.988281 L 1516.078125 1753.980469 C 1511.171875 1751.949219 1505.738281 1750.828125 1500 1750.828125 C 1486.238281 1750.828125 1473.070312 1748.070312 1461.011719 1743.078125 L 1460.988281 1743.078125 C 1448.488281 1737.898438 1437.25 1730.320312 1427.871094 1720.941406 Z M 1419.550781 1682.078125 C 1423.960938 1692.710938 1430.429688 1702.300781 1438.46875 1710.328125 C 1446.511719 1718.371094 1456.101562 1724.851562 1466.730469 1729.25 L 1466.71875 1729.261719 C 1476.941406 1733.480469 1488.179688 1735.820312 1500 1735.820312 C 1507.671875 1735.820312 1515.039062 1737.371094 1521.789062 1740.160156 L 1521.808594 1740.160156 C 1528.800781 1743.050781 1535.089844 1747.289062 1540.320312 1752.53125 C 1545.539062 1757.75 1549.769531 1764.03125 1552.679688 1771.039062 L 1552.691406 1771.039062 C 1555.480469 1777.789062 1557.03125 1785.160156 1557.03125 1792.851562 C 1557.03125 1800.519531 1555.480469 1807.878906 1552.691406 1814.628906 L 1552.691406 1814.660156 C 1549.800781 1821.640625 1545.558594 1827.929688 1540.320312 1833.171875 C 1535.089844 1838.398438 1528.800781 1842.640625 1521.808594 1845.53125 L 1521.789062 1845.53125 C 1515.039062 1848.328125 1507.671875 1849.871094 1500 1849.871094 C 1493.871094 1849.871094 1487.910156 1848.890625 1482.308594 1847.070312 C 1476.511719 1845.199219 1471.121094 1842.421875 1466.359375 1838.929688 C 1461.519531 1835.390625 1457.238281 1831.070312 1453.71875 1826.160156 C 1450.210938 1821.28125 1447.449219 1815.859375 1445.621094 1810.089844 L 1445.621094 1810.058594 C 1444.390625 1806.140625 1441.660156 1803.078125 1438.25 1801.300781 C 1434.851562 1799.539062 1430.761719 1799.058594 1426.808594 1800.300781 L 1426.789062 1800.300781 C 1422.871094 1801.53125 1419.800781 1804.269531 1418.03125 1807.679688 C 1416.261719 1811.078125 1415.78125 1815.171875 1417.03125 1819.109375 C 1419.839844 1827.988281 1424.011719 1836.21875 1429.289062 1843.550781 C 1434.660156 1851.011719 1441.21875 1857.609375 1448.671875 1863.070312 C 1452.800781 1866.089844 1457.261719 1868.789062 1461.96875 1871.089844 C 1466.628906 1873.359375 1471.449219 1875.230469 1476.398438 1876.621094 L 1481.890625 1878.171875 L 1481.890625 1904.019531 C 1481.890625 1908.171875 1483.570312 1911.921875 1486.269531 1914.628906 C 1488.980469 1917.328125 1492.738281 1919.019531 1496.878906 1919.019531 C 1501.03125 1919.019531 1504.78125 1917.328125 1507.488281 1914.628906 C 1510.199219 1911.921875 1511.878906 1908.171875 1511.878906 1904.019531 L 1511.878906 1879.300781 L 1517.859375 1878.058594 C 1526.191406 1876.320312 1534.109375 1873.371094 1541.398438 1869.429688 C 1548.789062 1865.429688 1555.578125 1860.339844 1561.539062 1854.378906 C 1569.578125 1846.339844 1576.050781 1836.761719 1580.460938 1826.121094 L 1580.460938 1826.128906 C 1584.679688 1815.921875 1587.019531 1804.671875 1587.019531 1792.851562 C 1587.019531 1781.011719 1584.679688 1769.761719 1580.460938 1759.550781 C 1576.070312 1748.941406 1569.589844 1739.359375 1561.539062 1731.308594 C 1553.5 1723.269531 1543.910156 1716.800781 1533.28125 1712.390625 L 1533.289062 1712.390625 C 1523.070312 1708.160156 1511.828125 1705.828125 1500 1705.828125 C 1492.339844 1705.828125 1484.96875 1704.28125 1478.21875 1701.488281 L 1478.199219 1701.488281 C 1471.210938 1698.589844 1464.921875 1694.351562 1459.691406 1689.121094 C 1454.449219 1683.878906 1450.210938 1677.589844 1447.320312 1670.609375 L 1447.320312 1670.578125 C 1444.53125 1663.828125 1442.980469 1656.46875 1442.980469 1648.800781 C 1442.980469 1641.128906 1444.53125 1633.769531 1447.320312 1627.019531 L 1447.320312 1626.988281 C 1450.210938 1620.011719 1454.449219 1613.71875 1459.691406 1608.480469 C 1464.601562 1603.570312 1470.449219 1599.53125 1476.941406 1596.648438 L 1476.949219 1596.679688 C 1483.21875 1593.898438 1490.058594 1592.210938 1497.21875 1591.859375 L 1497.390625 1591.859375 L 1499.828125 1591.808594 L 1500 1591.78125 C 1506.558594 1591.78125 1512.921875 1592.910156 1518.859375 1594.980469 C 1525.011719 1597.121094 1530.648438 1600.269531 1535.578125 1604.199219 C 1540.589844 1608.199219 1544.929688 1613.039062 1548.359375 1618.5 C 1551.71875 1623.828125 1554.230469 1629.789062 1555.660156 1636.128906 C 1556.558594 1640.148438 1559.011719 1643.429688 1562.238281 1645.46875 C 1565.480469 1647.519531 1569.511719 1648.339844 1573.53125 1647.441406 C 1577.550781 1646.539062 1580.828125 1644.089844 1582.871094 1640.859375 C 1584.921875 1637.621094 1585.738281 1633.589844 1584.839844 1629.570312 C 1582.648438 1619.878906 1578.828125 1610.78125 1573.710938 1602.609375 C 1568.480469 1594.261719 1561.871094 1586.871094 1554.210938 1580.761719 C 1548.921875 1576.550781 1543.140625 1572.921875 1536.988281 1570.019531 C 1530.960938 1567.179688 1524.539062 1565 1517.859375 1563.601562 L 1511.878906 1562.351562 L 1511.878906 1542.328125 C 1511.878906 1538.179688 1510.199219 1534.421875 1507.5 1531.710938 L 1507.488281 1531.71875 C 1504.78125 1529.019531 1501.03125 1527.328125 1496.878906 1527.328125 C 1492.738281 1527.328125 1488.980469 1529.019531 1486.269531 1531.71875 L 1486.261719 1531.710938 C 1483.558594 1534.421875 1481.890625 1538.179688 1481.890625 1542.328125 L 1481.890625 1563.460938 L 1476.398438 1565 C 1469.160156 1567.03125 1462.320312 1569.96875 1456.03125 1573.660156 C 1449.671875 1577.390625 1443.75 1581.980469 1438.46875 1587.269531 C 1430.429688 1595.308594 1423.960938 1604.890625 1419.550781 1615.519531 C 1415.320312 1625.730469 1412.988281 1636.96875 1412.988281 1648.800781 C 1412.988281 1660.628906 1415.320312 1671.871094 1419.550781 1682.078125 Z M 1500 791.890625 C 1523.851562 791.890625 1546.640625 796.660156 1567.460938 805.269531 C 1589.101562 814.230469 1608.550781 827.339844 1624.789062 843.589844 C 1641.03125 859.828125 1654.140625 879.28125 1663.101562 900.910156 C 1671.71875 921.730469 1676.488281 944.53125 1676.488281 968.378906 C 1676.488281 992.21875 1671.71875 1015.019531 1663.101562 1035.839844 C 1654.140625 1057.480469 1641.03125 1076.929688 1624.789062 1093.171875 C 1608.550781 1109.410156 1589.101562 1122.519531 1567.460938 1131.480469 C 1546.640625 1140.101562 1523.851562 1144.859375 1500 1144.859375 C 1476.148438 1144.859375 1453.359375 1140.101562 1432.539062 1131.480469 C 1410.898438 1122.519531 1391.449219 1109.410156 1375.210938 1093.171875 C 1358.96875 1076.929688 1345.859375 1057.480469 1336.898438 1035.839844 C 1328.28125 1015.019531 1323.511719 992.21875 1323.511719 968.378906 C 1323.511719 944.53125 1328.28125 921.730469 1336.898438 900.910156 C 1345.859375 879.28125 1358.96875 859.828125 1375.210938 843.589844 C 1391.449219 827.339844 1410.898438 814.230469 1432.539062 805.269531 C 1453.359375 796.660156 1476.148438 791.890625 1500 791.890625 Z M 1561.78125 819.101562 C 1542.789062 811.238281 1521.921875 806.898438 1500 806.898438 C 1478.078125 806.898438 1457.210938 811.238281 1438.21875 819.101562 C 1418.511719 827.261719 1400.730469 839.28125 1385.808594 854.191406 C 1370.898438 869.101562 1358.890625 886.878906 1350.730469 906.601562 C 1342.859375 925.589844 1338.519531 946.460938 1338.519531 968.378906 C 1338.519531 990.300781 1342.859375 1011.160156 1350.730469 1030.148438 C 1358.890625 1049.871094 1370.898438 1067.648438 1385.808594 1082.558594 C 1400.730469 1097.480469 1418.511719 1109.488281 1438.21875 1117.648438 C 1457.210938 1125.511719 1478.078125 1129.859375 1500 1129.859375 C 1521.921875 1129.859375 1542.789062 1125.511719 1561.78125 1117.648438 C 1581.488281 1109.488281 1599.269531 1097.480469 1614.191406 1082.558594 C 1629.101562 1067.648438 1641.109375 1049.871094 1649.269531 1030.148438 C 1657.140625 1011.160156 1661.480469 990.300781 1661.480469 968.378906 C 1661.480469 946.460938 1657.140625 925.589844 1649.269531 906.601562 C 1641.109375 886.878906 1629.101562 869.101562 1614.191406 854.191406 C 1599.269531 839.28125 1581.488281 827.261719 1561.78125 819.101562 Z M 1582.371094 886.011719 C 1561.300781 864.941406 1532.171875 851.890625 1500 851.890625 C 1484.171875 851.890625 1469.121094 855.03125 1455.429688 860.699219 C 1441.230469 866.578125 1428.398438 875.238281 1417.628906 886.011719 C 1396.558594 907.078125 1383.519531 936.210938 1383.519531 968.378906 C 1383.519531 984.199219 1386.648438 999.261719 1392.320312 1012.949219 C 1398.199219 1027.160156 1406.859375 1039.980469 1417.628906 1050.738281 C 1438.699219 1071.808594 1467.828125 1084.859375 1500 1084.859375 C 1515.828125 1084.859375 1530.878906 1081.730469 1544.570312 1076.058594 C 1558.769531 1070.179688 1571.601562 1061.511719 1582.371094 1050.738281 C 1603.441406 1029.679688 1616.480469 1000.550781 1616.480469 968.378906 C 1616.480469 952.550781 1613.351562 937.488281 1607.679688 923.808594 C 1601.800781 909.601562 1593.140625 896.78125 1582.371094 886.011719 Z M 1500 836.890625 C 1536.300781 836.890625 1569.179688 851.621094 1592.96875 875.398438 C 1605.058594 887.5 1614.828125 901.988281 1621.511719 918.121094 C 1627.941406 933.640625 1631.488281 950.621094 1631.488281 968.378906 C 1631.488281 1004.679688 1616.761719 1037.558594 1592.96875 1061.351562 C 1580.878906 1073.441406 1566.390625 1083.210938 1550.261719 1089.890625 C 1534.738281 1096.308594 1517.75 1099.859375 1500 1099.859375 C 1463.699219 1099.859375 1430.820312 1085.140625 1407.03125 1061.351562 C 1394.941406 1049.261719 1385.171875 1034.761719 1378.488281 1018.628906 C 1372.058594 1003.109375 1368.511719 986.128906 1368.511719 968.378906 C 1368.511719 932.078125 1383.238281 899.191406 1407.03125 875.398438 C 1419.121094 863.308594 1433.609375 853.550781 1449.738281 846.871094 C 1465.261719 840.441406 1482.25 836.890625 1500 836.890625 Z M 562.5 1254.019531 L 2437.488281 1254 C 2439.910156 1254 2442.351562 1253.378906 2444.558594 1252.210938 C 2446.648438 1251.101562 2448.511719 1249.46875 2449.921875 1247.378906 C 2452.230469 1243.941406 2452.929688 1239.890625 2452.199219 1236.121094 C 2451.480469 1232.371094 2449.300781 1228.878906 2445.878906 1226.570312 L 1506.289062 591.550781 C 1503.789062 589.859375 1500.839844 588.980469 1497.898438 588.980469 C 1495.03125 588.980469 1492.121094 589.820312 1489.570312 591.550781 L 555.847656 1225.460938 L 555.261719 1225.839844 C 552.910156 1227.140625 550.929688 1229.058594 549.5625 1231.371094 C 548.261719 1233.578125 547.503906 1236.191406 547.503906 1239 C 547.503906 1243.148438 549.179688 1246.910156 551.878906 1249.621094 L 551.894531 1249.601562 C 554.597656 1252.308594 558.355469 1253.988281 562.5 1253.988281 Z M 2437.488281 1268.949219 L 562.5 1268.96875 L 562.5 1269 C 554.222656 1269 546.714844 1265.628906 541.289062 1260.210938 L 541.289062 1260.179688 C 535.863281 1254.75 532.496094 1247.25 532.496094 1239 C 532.496094 1233.460938 534.027344 1228.238281 536.675781 1223.761719 C 539.375 1219.179688 543.273438 1215.378906 547.921875 1212.789062 L 1481.191406 579.191406 C 1486.308594 575.710938 1492.140625 574.039062 1497.898438 574.039062 C 1503.820312 574.03125 1509.699219 575.78125 1514.660156 579.128906 L 2454.261719 1214.148438 C 2461.109375 1218.769531 2465.441406 1225.761719 2466.910156 1233.300781 C 2468.371094 1240.820312 2466.960938 1248.898438 2462.339844 1255.761719 C 2459.5 1259.960938 2455.769531 1263.230469 2451.589844 1265.460938 C 2447.28125 1267.738281 2442.421875 1268.941406 2437.488281 1268.949219 Z M 562.5 2177.257812 L 2437.488281 2177.257812 C 2445.769531 2177.257812 2453.28125 2180.621094 2458.710938 2186.050781 L 2458.710938 2186.074219 C 2464.128906 2191.507812 2467.5 2199.003906 2467.5 2207.261719 L 2467.5 2286.679688 L 532.496094 2286.679688 L 532.496094 2207.261719 C 532.496094 2199.003906 535.863281 2191.507812 541.289062 2186.074219 L 541.289062 2186.050781 C 546.714844 2180.621094 554.222656 2177.257812 562.5 2177.257812 Z M 2437.488281 2192.261719 L 562.5 2192.261719 C 558.355469 2192.261719 554.597656 2193.945312 551.894531 2196.652344 L 551.878906 2196.640625 C 549.179688 2199.351562 547.503906 2203.109375 547.503906 2207.261719 L 547.503906 2271.671875 L 2452.488281 2271.671875 L 2452.488281 2207.261719 C 2452.488281 2203.109375 2450.820312 2199.351562 2448.121094 2196.640625 L 2448.101562 2196.652344 C 2445.398438 2193.945312 2441.640625 2192.261719 2437.488281 2192.261719 Z M 2467.5 2324.175781 L 2467.5 2395.988281 C 2467.5 2404.269531 2464.128906 2411.773438 2458.710938 2417.199219 C 2453.28125 2422.625 2445.769531 2425.992188 2437.488281 2425.992188 L 562.5 2425.992188 C 554.222656 2425.992188 546.714844 2422.625 541.289062 2417.199219 C 535.863281 2411.773438 532.496094 2404.269531 532.496094 2395.988281 L 532.496094 2316.671875 L 2467.5 2316.671875 Z M 2452.488281 2395.988281 L 2452.488281 2331.679688 L 547.503906 2331.679688 L 547.503906 2395.988281 C 547.503906 2400.136719 549.1875 2403.890625 551.894531 2406.597656 C 554.597656 2409.304688 558.355469 2410.984375 562.5 2410.984375 L 2437.488281 2410.984375 C 2441.640625 2410.984375 2445.398438 2409.304688 2448.101562 2406.597656 C 2450.808594 2403.890625 2452.488281 2400.136719 2452.488281 2395.988281 Z M 680.199219 2147.261719 L 680.199219 2055.457031 C 680.199219 2047.199219 683.566406 2039.703125 688.992188 2034.273438 L 688.992188 2034.246094 C 694.417969 2028.820312 701.925781 2025.453125 710.203125 2025.453125 L 1071.25 2025.453125 C 1079.511719 2025.453125 1087.011719 2028.820312 1092.441406 2034.246094 L 1092.460938 2034.273438 C 1097.890625 2039.703125 1101.261719 2047.199219 1101.261719 2055.457031 L 1101.261719 2154.765625 L 680.199219 2154.765625 Z M 695.207031 2055.457031 L 695.207031 2139.761719 L 1086.25 2139.761719 L 1086.25 2055.457031 C 1086.25 2051.3125 1084.578125 2047.554688 1081.890625 2044.847656 L 1081.859375 2044.820312 C 1079.148438 2042.128906 1075.398438 2040.460938 1071.25 2040.460938 L 710.203125 2040.460938 C 706.058594 2040.460938 702.300781 2042.144531 699.59375 2044.847656 L 699.582031 2044.835938 C 696.878906 2047.546875 695.207031 2051.304688 695.207031 2055.457031 Z M 1898.75 2147.261719 L 1898.75 2055.457031 C 1898.75 2047.199219 1902.109375 2039.703125 1907.539062 2034.273438 L 1907.558594 2034.246094 C 1912.988281 2028.820312 1920.488281 2025.453125 1928.75 2025.453125 L 2289.800781 2025.453125 C 2298.078125 2025.453125 2305.578125 2028.820312 2311.011719 2034.246094 L 2311.011719 2034.273438 C 2316.429688 2039.703125 2319.800781 2047.199219 2319.800781 2055.457031 L 2319.800781 2154.765625 L 1898.75 2154.765625 Z M 1913.75 2055.457031 L 1913.75 2139.761719 L 2304.789062 2139.761719 L 2304.789062 2055.457031 C 2304.789062 2051.304688 2303.121094 2047.546875 2300.421875 2044.835938 L 2300.398438 2044.847656 C 2297.699219 2042.144531 2293.941406 2040.460938 2289.800781 2040.460938 L 1928.75 2040.460938 C 1924.601562 2040.460938 1920.851562 2042.128906 1918.140625 2044.820312 L 1918.109375 2044.847656 C 1915.421875 2047.554688 1913.75 2051.3125 1913.75 2055.457031 Z M 751.996094 1995.460938 L 751.996094 1443.289062 L 1029.449219 1443.289062 L 1029.449219 2002.960938 L 751.996094 2002.960938 Z M 767.003906 1458.300781 L 767.003906 1987.960938 L 1014.441406 1987.960938 L 1014.441406 1458.300781 Z M 1970.539062 1995.460938 L 1970.539062 1443.289062 L 2247.988281 1443.289062 L 2247.988281 2002.960938 L 1970.539062 2002.960938 Z M 1985.550781 1458.300781 L 1985.550781 1987.960938 L 2232.988281 1987.960938 L 2232.988281 1458.300781 Z M 1071.25 1420.800781 L 710.203125 1420.800781 C 701.925781 1420.800781 694.417969 1417.441406 688.992188 1412.011719 L 688.992188 1411.980469 C 683.566406 1406.550781 680.199219 1399.058594 680.199219 1390.800781 L 680.199219 1291.53125 L 687.703125 1291.519531 L 1101.261719 1291.519531 L 1101.261719 1390.800781 C 1101.261719 1399.058594 1097.890625 1406.550781 1092.460938 1411.980469 L 1092.441406 1412.011719 C 1087.011719 1417.441406 1079.511719 1420.800781 1071.25 1420.800781 Z M 710.203125 1405.800781 L 1071.25 1405.800781 C 1075.398438 1405.800781 1079.148438 1404.128906 1081.859375 1401.429688 L 1081.890625 1401.410156 C 1084.578125 1398.699219 1086.25 1394.949219 1086.25 1390.800781 L 1086.25 1306.460938 L 695.207031 1306.460938 L 695.207031 1390.800781 C 695.207031 1394.949219 696.878906 1398.710938 699.582031 1401.421875 L 699.59375 1401.410156 C 702.300781 1404.109375 706.058594 1405.800781 710.203125 1405.800781 Z M 2289.800781 1420.800781 L 1928.75 1420.800781 C 1920.488281 1420.800781 1912.988281 1417.441406 1907.558594 1412.011719 L 1907.539062 1411.980469 C 1902.109375 1406.550781 1898.75 1399.058594 1898.75 1390.800781 L 1898.75 1291.511719 L 1906.25 1291.5 L 2319.800781 1291.5 L 2319.800781 1390.800781 C 2319.800781 1399.058594 2316.429688 1406.550781 2311.011719 1411.980469 L 2311.011719 1412.011719 C 2305.578125 1417.441406 2298.078125 1420.800781 2289.800781 1420.800781 Z M 1928.75 1405.800781 L 2289.800781 1405.800781 C 2293.941406 1405.800781 2297.699219 1404.109375 2300.398438 1401.410156 L 2300.421875 1401.421875 C 2303.121094 1398.710938 2304.789062 1394.949219 2304.789062 1390.800781 L 2304.789062 1306.441406 L 1913.75 1306.449219 L 1913.75 1390.800781 C 1913.75 1394.949219 1915.421875 1398.699219 1918.109375 1401.410156 L 1918.140625 1401.429688 C 1920.851562 1404.128906 1924.601562 1405.800781 1928.75 1405.800781 Z M 1714.421875 1508.761719 C 1686.441406 1480.78125 1653.050781 1458.238281 1615.988281 1442.890625 C 1580.300781 1428.109375 1541.128906 1419.941406 1500 1419.941406 C 1458.878906 1419.941406 1419.699219 1428.109375 1384.019531 1442.890625 C 1346.960938 1458.238281 1313.558594 1480.78125 1285.589844 1508.761719 C 1257.609375 1536.730469 1235.070312 1570.128906 1219.71875 1607.191406 C 1204.941406 1642.871094 1196.769531 1682.050781 1196.769531 1723.171875 C 1196.769531 1764.300781 1204.941406 1803.46875 1219.71875 1839.160156 C 1235.070312 1876.21875 1257.609375 1909.609375 1285.589844 1937.589844 C 1313.558594 1965.570312 1346.960938 1988.109375 1384.019531 2003.464844 C 1419.699219 2018.238281 1458.878906 2026.40625 1500 2026.40625 C 1541.128906 2026.40625 1580.300781 2018.238281 1615.988281 2003.464844 C 1653.050781 1988.109375 1686.441406 1965.570312 1714.421875 1937.589844 C 1742.398438 1909.609375 1764.941406 1876.21875 1780.289062 1839.160156 C 1795.070312 1803.46875 1803.238281 1764.300781 1803.238281 1723.171875 C 1803.238281 1682.050781 1795.070312 1642.871094 1780.289062 1607.191406 C 1764.941406 1570.128906 1742.398438 1536.730469 1714.421875 1508.761719 Z M 1621.679688 1429.058594 C 1660.660156 1445.210938 1695.71875 1468.851562 1725.03125 1498.148438 C 1754.328125 1527.460938 1777.96875 1562.519531 1794.121094 1601.5 C 1809.660156 1639.019531 1818.238281 1680.128906 1818.238281 1723.171875 C 1818.238281 1766.230469 1809.660156 1807.328125 1794.121094 1844.851562 C 1777.96875 1883.828125 1754.328125 1918.890625 1725.03125 1948.199219 C 1695.71875 1977.5 1660.660156 2001.140625 1621.679688 2017.289062 C 1584.160156 2032.828125 1543.058594 2041.410156 1500 2041.410156 C 1456.949219 2041.410156 1415.851562 2032.828125 1378.328125 2017.289062 C 1339.351562 2001.140625 1304.289062 1977.5 1274.980469 1948.199219 C 1245.679688 1918.890625 1222.039062 1883.828125 1205.890625 1844.851562 C 1190.351562 1807.328125 1181.769531 1766.230469 1181.769531 1723.171875 C 1181.769531 1680.128906 1190.351562 1639.019531 1205.890625 1601.5 C 1222.039062 1562.519531 1245.679688 1527.460938 1274.980469 1498.148438 C 1304.289062 1468.851562 1339.351562 1445.210938 1378.328125 1429.058594 C 1415.851562 1413.519531 1456.949219 1404.941406 1500 1404.941406 C 1543.058594 1404.941406 1584.160156 1413.519531 1621.679688 1429.058594 "/>
</svg>
