<?xml version="1.0" encoding="UTF-8"?>
<svg xmlns="http://www.w3.org/2000/svg" xmlns:xlink="http://www.w3.org/1999/xlink" width="3000" height="3000" viewBox="0 0 3000 3000">
<path fill-rule="evenodd" fill="rgb(95.3125%, 56.054688%, 25.488281%)" fill-opacity="1" d="M 1500 0 C 2328.429688 0 3000 671.570312 3000 1500 C 3000 2328.429688 2328.429688 2999.996094 1500 2999.996094 C 671.570312 2999.996094 0.00390625 2328.429688 0.00390625 1500 C 0.00390625 671.570312 671.570312 0 1500 0 "/>
<path fill-rule="evenodd" fill="rgb(90.234375%, 90.234375%, 90.234375%)" fill-opacity="1" d="M 2101.480469 2200.777344 L 698.359375 2200.777344 C 611.015625 2200.777344 540.078125 2129.839844 540.078125 2042.652344 L 540.078125 1175.628906 C 540.078125 1088.441406 611.015625 1017.5 698.203125 1017.5 L 2101.320312 1017.5 C 2188.511719 1017.5 2259.441406 1088.441406 2259.441406 1175.628906 L 2259.441406 2042.65625 C 2259.601562 2129.839844 2188.671875 2200.777344 2101.480469 2200.777344 Z M 2301.949219 1982.660156 L 2296.941406 1982.660156 L 2296.941406 1175.628906 C 2296.941406 1067.738281 2209.199219 980.011719 2101.320312 980.011719 L 740.546875 980.011719 L 740.546875 957.351562 C 740.546875 870.160156 811.484375 799.21875 898.671875 799.21875 L 2301.789062 799.21875 C 2388.980469 799.21875 2459.910156 870.160156 2459.910156 957.351562 L 2459.910156 1824.371094 C 2460.070312 1911.558594 2389.128906 1982.660156 2301.949219 1982.660156 Z M 2041.011719 1906.25 L 1891.320312 1906.25 C 1878.980469 1906.25 1868.820312 1896.089844 1868.820312 1883.75 C 1868.820312 1871.398438 1878.980469 1861.25 1891.320312 1861.25 L 2041.011719 1861.25 C 2053.351562 1861.25 2063.511719 1871.398438 2063.511719 1883.75 C 2063.511719 1896.089844 2053.511719 1906.25 2041.011719 1906.25 Z M 1729.140625 1906.25 L 1471.800781 1906.25 C 1459.300781 1906.25 1449.300781 1896.089844 1449.300781 1883.75 C 1449.300781 1871.398438 1459.300781 1861.25 1471.800781 1861.25 L 1729.140625 1861.25 C 1741.480469 1861.25 1751.640625 1871.398438 1751.640625 1883.75 C 1751.640625 1896.089844 1741.480469 1906.25 1729.140625 1906.25 Z M 2041.011719 1716.089844 L 1792.878906 1716.089844 C 1780.539062 1716.089844 1770.378906 1705.941406 1770.378906 1693.589844 C 1770.378906 1681.25 1780.539062 1671.089844 1792.878906 1671.089844 L 2041.011719 1671.089844 C 2053.351562 1671.089844 2063.511719 1681.25 2063.511719 1693.589844 C 2063.511719 1705.941406 2053.511719 1716.089844 2041.011719 1716.089844 Z M 1630.699219 1716.089844 L 1471.800781 1716.089844 C 1459.300781 1716.089844 1449.300781 1705.941406 1449.300781 1693.589844 C 1449.300781 1681.25 1459.300781 1671.089844 1471.800781 1671.089844 L 1630.699219 1671.089844 C 1643.039062 1671.089844 1653.199219 1681.25 1653.199219 1693.589844 C 1653.199219 1705.941406 1643.039062 1716.089844 1630.699219 1716.089844 Z M 1241.789062 1976.71875 L 758.671875 1976.71875 C 746.171875 1976.71875 736.171875 1966.558594 736.171875 1954.21875 L 736.171875 1623.28125 C 736.171875 1610.941406 746.171875 1600.78125 758.671875 1600.78125 L 1241.789062 1600.78125 C 1254.289062 1600.78125 1264.289062 1610.941406 1264.289062 1623.28125 L 1264.289062 1954.21875 C 1264.289062 1966.558594 1254.289062 1976.71875 1241.789062 1976.71875 Z M 781.171875 1931.71875 L 968.515625 1931.71875 L 968.515625 1870.78125 L 781.171875 1870.78125 Z M 968.515625 1825.78125 L 968.515625 1751.558594 L 781.171875 1751.558594 L 781.171875 1825.78125 Z M 968.515625 1706.558594 L 968.515625 1645.78125 L 781.171875 1645.78125 L 781.171875 1706.558594 Z M 1013.511719 1931.71875 L 1219.300781 1931.71875 L 1219.300781 1811.25 L 1013.511719 1811.25 Z M 1013.511719 1766.25 L 1219.300781 1766.25 L 1219.300781 1645.78125 L 1013.511719 1645.78125 Z M 2041.011719 1409.058594 L 1784.609375 1409.058594 C 1772.261719 1409.058594 1762.109375 1399.058594 1762.109375 1386.558594 L 1762.109375 1264.058594 C 1762.109375 1251.558594 1772.261719 1241.558594 1784.609375 1241.558594 L 2041.011719 1241.570312 C 2053.351562 1241.570312 2063.511719 1251.570312 2063.511719 1264.070312 L 2063.511719 1386.570312 C 2063.511719 1399.058594 2053.511719 1409.058594 2041.011719 1409.058594 Z M 1807.109375 1364.058594 L 2018.511719 1364.058594 L 2018.511719 1286.558594 L 1807.109375 1286.570312 Z M 1015.078125 1409.058594 L 758.671875 1409.058594 C 746.171875 1409.058594 736.171875 1399.058594 736.171875 1386.558594 L 736.171875 1264.058594 C 736.171875 1251.558594 746.171875 1241.558594 758.671875 1241.558594 L 1015.078125 1241.570312 C 1027.578125 1241.570312 1037.578125 1251.570312 1037.578125 1264.070312 L 1037.578125 1386.570312 C 1037.578125 1399.058594 1027.578125 1409.058594 1015.078125 1409.058594 Z M 781.171875 1364.058594 L 992.578125 1364.058594 L 992.578125 1286.558594 L 781.171875 1286.570312 Z M 1528.039062 1409.058594 L 1271.640625 1409.058594 C 1259.140625 1409.058594 1249.140625 1399.058594 1249.140625 1386.558594 L 1249.140625 1264.058594 C 1249.140625 1251.558594 1259.140625 1241.558594 1271.640625 1241.558594 L 1528.039062 1241.570312 C 1540.390625 1241.570312 1550.539062 1251.570312 1550.539062 1264.070312 L 1550.539062 1386.570312 C 1550.539062 1399.058594 1540.539062 1409.058594 1528.039062 1409.058594 Z M 1294.140625 1364.058594 L 1505.539062 1364.058594 L 1505.539062 1286.558594 L 1294.140625 1286.570312 L 1294.140625 1364.058594 "/>
<path fill-rule="nonzero" fill="rgb(0%, 0%, 0%)" fill-opacity="1" d="M 2101.480469 2208.277344 L 698.359375 2208.277344 C 652.652344 2208.277344 611.214844 2189.707031 581.210938 2159.726562 C 551.175781 2129.71875 532.578125 2088.304688 532.578125 2042.652344 L 532.578125 1175.628906 C 532.578125 1129.96875 551.15625 1088.558594 581.148438 1058.570312 C 611.132812 1028.578125 652.546875 1010 698.203125 1010 L 2101.320312 1010 C 2146.980469 1010 2188.390625 1028.578125 2218.378906 1058.570312 C 2248.371094 1088.558594 2266.949219 1129.96875 2266.949219 1175.628906 L 2266.949219 2042.949219 C 2266.949219 2088.472656 2248.421875 2129.761719 2218.519531 2159.683594 C 2188.621094 2189.601562 2147.320312 2208.167969 2101.769531 2208.246094 L 2101.769531 2208.277344 Z M 698.359375 2193.273438 L 2101.769531 2193.273438 L 2101.769531 2193.304688 C 2143.171875 2193.230469 2180.730469 2176.34375 2207.921875 2149.132812 C 2235.101562 2121.929688 2251.941406 2084.375 2251.941406 2042.949219 L 2251.941406 1175.628906 C 2251.941406 1134.101562 2235.039062 1096.441406 2207.769531 1069.171875 C 2180.5 1041.898438 2142.851562 1025.011719 2101.320312 1025.011719 L 698.203125 1025.011719 C 656.675781 1025.011719 619.019531 1041.898438 591.75 1069.171875 C 564.480469 1096.441406 547.582031 1134.101562 547.582031 1175.628906 L 547.582031 2042.652344 C 547.582031 2084.203125 564.480469 2121.871094 591.757812 2149.125 C 619.046875 2176.390625 656.746094 2193.273438 698.359375 2193.273438 Z M 2301.949219 1990.160156 L 2289.441406 1990.160156 L 2289.441406 1175.628906 C 2289.441406 1123.75 2268.339844 1076.71875 2234.289062 1042.660156 C 2200.230469 1008.609375 2153.191406 987.511719 2101.320312 987.511719 L 733.042969 987.511719 L 733.042969 957.351562 C 733.042969 911.691406 751.625 870.28125 781.613281 840.289062 C 811.597656 810.300781 853.011719 791.71875 898.671875 791.71875 L 2301.789062 791.71875 C 2347.449219 791.71875 2388.859375 810.300781 2418.851562 840.289062 C 2448.839844 870.28125 2467.421875 911.691406 2467.421875 957.351562 L 2467.421875 1824.660156 C 2467.421875 1870.179688 2448.890625 1911.511719 2418.988281 1941.480469 C 2389.089844 1971.441406 2347.789062 1990.050781 2302.230469 1990.128906 L 2302.230469 1990.160156 Z M 2304.441406 1175.628906 L 2304.441406 1975.160156 C 2344.96875 1974.5 2381.671875 1957.699219 2408.378906 1930.929688 C 2435.570312 1903.691406 2452.410156 1866.089844 2452.410156 1824.660156 L 2452.410156 957.351562 C 2452.410156 915.820312 2435.511719 878.160156 2408.238281 850.890625 C 2380.96875 823.621094 2343.320312 806.730469 2301.789062 806.730469 L 898.671875 806.730469 C 857.144531 806.730469 819.488281 823.621094 792.21875 850.890625 C 764.945312 878.160156 748.050781 915.820312 748.050781 957.351562 L 748.050781 972.511719 L 2101.320312 972.511719 C 2157.328125 972.511719 2208.109375 995.28125 2244.890625 1032.058594 C 2281.660156 1068.828125 2304.441406 1119.621094 2304.441406 1175.628906 Z M 2041.011719 1913.75 L 1891.320312 1913.75 C 1883.089844 1913.75 1875.578125 1910.371094 1870.140625 1904.929688 L 1870.148438 1904.921875 C 1864.710938 1899.46875 1861.320312 1891.960938 1861.320312 1883.75 C 1861.320312 1875.511719 1864.699219 1868.011719 1870.140625 1862.570312 C 1875.578125 1857.128906 1883.089844 1853.75 1891.320312 1853.75 L 2041.011719 1853.75 C 2049.21875 1853.75 2056.730469 1857.140625 2062.179688 1862.578125 L 2062.191406 1862.570312 C 2067.628906 1868.011719 2071.011719 1875.511719 2071.011719 1883.75 C 2071.011719 1892 2067.648438 1899.53125 2062.210938 1904.96875 L 2062.179688 1904.96875 C 2056.769531 1910.378906 2049.289062 1913.75 2041.011719 1913.75 Z M 1891.320312 1898.75 L 2041.011719 1898.75 C 2045.171875 1898.75 2048.921875 1897.070312 2051.621094 1894.378906 L 2051.609375 1894.359375 C 2054.320312 1891.648438 2056.011719 1887.878906 2056.011719 1883.75 C 2056.011719 1879.648438 2054.308594 1875.898438 2051.589844 1873.171875 L 2051.589844 1873.140625 C 2048.878906 1870.441406 2045.128906 1868.75 2041.011719 1868.75 L 1891.320312 1868.75 C 1887.21875 1868.75 1883.46875 1870.449219 1880.738281 1873.171875 C 1878.019531 1875.898438 1876.320312 1879.648438 1876.320312 1883.75 C 1876.320312 1887.871094 1878.011719 1891.621094 1880.71875 1894.328125 L 1880.738281 1894.328125 C 1883.46875 1897.050781 1887.21875 1898.75 1891.320312 1898.75 Z M 1729.140625 1913.75 L 1471.800781 1913.75 C 1463.511719 1913.75 1456.039062 1910.378906 1450.621094 1904.96875 L 1450.589844 1904.941406 C 1445.148438 1899.488281 1441.789062 1891.980469 1441.789062 1883.75 C 1441.789062 1875.519531 1445.148438 1868.011719 1450.589844 1862.558594 L 1450.621094 1862.53125 C 1456.039062 1857.121094 1463.511719 1853.75 1471.800781 1853.75 L 1729.140625 1853.75 C 1737.351562 1853.75 1744.859375 1857.140625 1750.300781 1862.578125 L 1750.320312 1862.570312 C 1755.761719 1868.011719 1759.140625 1875.511719 1759.140625 1883.75 C 1759.140625 1891.949219 1755.75 1899.449219 1750.320312 1904.898438 L 1750.300781 1904.921875 L 1750.289062 1904.929688 C 1744.839844 1910.359375 1737.339844 1913.75 1729.140625 1913.75 Z M 1471.800781 1898.75 L 1729.140625 1898.75 C 1733.261719 1898.75 1737.011719 1897.058594 1739.710938 1894.351562 L 1739.738281 1894.328125 C 1742.449219 1891.621094 1744.128906 1887.871094 1744.128906 1883.75 C 1744.128906 1879.648438 1742.441406 1875.898438 1739.710938 1873.171875 L 1739.710938 1873.140625 C 1737.011719 1870.441406 1733.261719 1868.75 1729.140625 1868.75 L 1471.800781 1868.75 C 1467.621094 1868.75 1463.871094 1870.429688 1461.171875 1873.128906 C 1458.46875 1875.851562 1456.800781 1879.621094 1456.800781 1883.75 C 1456.800781 1887.878906 1458.46875 1891.648438 1461.171875 1894.359375 C 1463.871094 1897.058594 1467.621094 1898.75 1471.800781 1898.75 Z M 2041.011719 1723.601562 L 1792.878906 1723.601562 C 1784.648438 1723.601562 1777.140625 1720.210938 1771.699219 1714.769531 L 1771.71875 1714.761719 C 1766.269531 1709.308594 1762.878906 1701.800781 1762.878906 1693.589844 C 1762.878906 1685.359375 1766.269531 1677.851562 1771.699219 1672.410156 C 1777.140625 1666.96875 1784.648438 1663.589844 1792.878906 1663.589844 L 2041.011719 1663.589844 C 2049.21875 1663.589844 2056.730469 1666.980469 2062.179688 1672.429688 L 2062.191406 1672.410156 C 2067.628906 1677.851562 2071.011719 1685.359375 2071.011719 1693.589844 C 2071.011719 1701.839844 2067.648438 1709.371094 2062.210938 1714.808594 L 2062.179688 1714.808594 C 2056.769531 1720.21875 2049.289062 1723.601562 2041.011719 1723.601562 Z M 1792.878906 1708.589844 L 2041.011719 1708.589844 C 2045.171875 1708.589844 2048.921875 1706.910156 2051.621094 1704.21875 L 2051.609375 1704.210938 C 2054.320312 1701.488281 2056.011719 1697.71875 2056.011719 1693.589844 C 2056.011719 1689.488281 2054.308594 1685.738281 2051.589844 1683.019531 L 2051.589844 1682.988281 C 2048.878906 1680.28125 2045.128906 1678.601562 2041.011719 1678.601562 L 1792.878906 1678.601562 C 1788.78125 1678.601562 1785.03125 1680.289062 1782.308594 1683.019531 C 1779.578125 1685.738281 1777.890625 1689.488281 1777.890625 1693.589844 C 1777.890625 1697.71875 1779.578125 1701.46875 1782.28125 1704.171875 L 1782.308594 1704.171875 C 1785.03125 1706.890625 1788.78125 1708.589844 1792.878906 1708.589844 Z M 1630.699219 1723.601562 L 1471.800781 1723.601562 C 1463.511719 1723.601562 1456.039062 1720.21875 1450.621094 1714.808594 L 1450.589844 1714.789062 C 1445.148438 1709.339844 1441.789062 1701.820312 1441.789062 1693.589844 C 1441.789062 1685.359375 1445.148438 1677.851562 1450.589844 1672.398438 L 1450.621094 1672.371094 C 1456.039062 1666.960938 1463.511719 1663.589844 1471.800781 1663.589844 L 1630.699219 1663.589844 C 1638.910156 1663.589844 1646.421875 1666.980469 1651.871094 1672.429688 L 1651.878906 1672.410156 C 1657.320312 1677.851562 1660.699219 1685.359375 1660.699219 1693.589844 C 1660.699219 1701.800781 1657.308594 1709.300781 1651.878906 1714.75 L 1651.871094 1714.761719 L 1651.851562 1714.769531 C 1646.398438 1720.210938 1638.898438 1723.601562 1630.699219 1723.601562 Z M 1471.800781 1708.589844 L 1630.699219 1708.589844 C 1634.820312 1708.589844 1638.570312 1706.898438 1641.28125 1704.199219 L 1641.300781 1704.171875 C 1644.011719 1701.46875 1645.699219 1697.71875 1645.699219 1693.589844 C 1645.699219 1689.488281 1644 1685.738281 1641.28125 1683.019531 L 1641.28125 1682.988281 C 1638.570312 1680.28125 1634.820312 1678.601562 1630.699219 1678.601562 L 1471.800781 1678.601562 C 1467.621094 1678.601562 1463.871094 1680.28125 1461.171875 1682.980469 C 1458.46875 1685.699219 1456.800781 1689.460938 1456.800781 1693.589844 C 1456.800781 1697.730469 1458.46875 1701.488281 1461.171875 1704.210938 C 1463.871094 1706.910156 1467.621094 1708.589844 1471.800781 1708.589844 Z M 1241.789062 1984.21875 L 758.671875 1984.21875 C 750.386719 1984.21875 742.910156 1980.839844 737.496094 1975.441406 L 737.46875 1975.410156 C 732.03125 1969.960938 728.667969 1962.449219 728.667969 1954.21875 L 728.667969 1623.28125 C 728.667969 1615.050781 732.023438 1607.539062 737.46875 1602.089844 L 737.496094 1602.058594 C 742.910156 1596.648438 750.386719 1593.28125 758.671875 1593.28125 L 1241.789062 1593.28125 C 1250.078125 1593.28125 1257.550781 1596.648438 1262.96875 1602.058594 L 1263 1602.089844 C 1268.441406 1607.539062 1271.800781 1615.050781 1271.800781 1623.28125 L 1271.800781 1954.21875 C 1271.800781 1962.449219 1268.441406 1969.960938 1263 1975.410156 L 1262.96875 1975.441406 C 1257.550781 1980.839844 1250.078125 1984.21875 1241.789062 1984.21875 Z M 991.015625 1969.210938 L 1241.789062 1969.210938 C 1245.96875 1969.210938 1249.71875 1967.53125 1252.421875 1964.828125 C 1255.121094 1962.109375 1256.789062 1958.351562 1256.789062 1954.21875 L 1256.789062 1623.28125 C 1256.789062 1619.148438 1255.121094 1615.378906 1252.421875 1612.660156 C 1249.71875 1609.96875 1245.96875 1608.28125 1241.789062 1608.28125 L 758.671875 1608.28125 C 754.496094 1608.28125 750.742188 1609.96875 748.046875 1612.660156 C 745.34375 1615.378906 743.675781 1619.148438 743.675781 1623.28125 L 743.675781 1954.21875 C 743.675781 1958.351562 745.34375 1962.109375 748.046875 1964.828125 C 750.742188 1967.53125 754.496094 1969.210938 758.671875 1969.210938 Z M 788.671875 1924.210938 L 961.011719 1924.210938 L 961.011719 1878.28125 L 788.671875 1878.28125 Z M 968.515625 1939.21875 L 773.667969 1939.21875 L 773.667969 1863.28125 L 976.015625 1863.28125 L 976.015625 1939.21875 Z M 961.011719 1818.28125 L 961.011719 1759.058594 L 788.671875 1759.058594 L 788.671875 1818.28125 Z M 976.015625 1788.75 L 976.015625 1833.28125 L 773.667969 1833.28125 L 773.667969 1744.058594 L 976.015625 1744.058594 Z M 961.011719 1699.058594 L 961.011719 1653.28125 L 788.671875 1653.28125 L 788.671875 1699.058594 Z M 976.015625 1645.78125 L 976.015625 1714.058594 L 773.667969 1714.058594 L 773.667969 1638.28125 L 976.015625 1638.28125 Z M 1021.019531 1924.210938 L 1211.789062 1924.210938 L 1211.789062 1818.75 L 1021.019531 1818.75 Z M 1219.300781 1939.21875 L 1006.011719 1939.21875 L 1006.011719 1803.738281 L 1226.800781 1803.738281 L 1226.800781 1939.21875 Z M 1021.019531 1758.75 L 1211.789062 1758.75 L 1211.789062 1653.28125 L 1021.019531 1653.28125 Z M 1219.300781 1773.75 L 1006.011719 1773.75 L 1006.011719 1638.28125 L 1226.800781 1638.28125 L 1226.800781 1773.75 Z M 2041.011719 1416.558594 L 1784.609375 1416.558594 C 1776.378906 1416.558594 1768.871094 1413.210938 1763.410156 1407.761719 L 1763.390625 1407.738281 C 1757.980469 1402.320312 1754.601562 1394.839844 1754.601562 1386.558594 L 1754.601562 1264.058594 C 1754.601562 1255.78125 1757.980469 1248.300781 1763.390625 1242.890625 L 1763.410156 1242.859375 C 1768.871094 1237.410156 1776.378906 1234.058594 1784.609375 1234.058594 L 1784.609375 1234.089844 L 2041.011719 1234.089844 L 2041.011719 1234.058594 C 2049.238281 1234.058594 2056.75 1237.421875 2062.199219 1242.859375 L 2062.230469 1242.890625 C 2067.640625 1248.308594 2071.011719 1255.78125 2071.011719 1264.070312 L 2071.011719 1386.570312 C 2071.011719 1394.878906 2067.671875 1402.378906 2062.25 1407.800781 L 2062.21875 1407.800781 C 2056.789062 1413.21875 2049.300781 1416.558594 2041.011719 1416.558594 Z M 1784.609375 1401.558594 L 2041.011719 1401.558594 C 2045.199219 1401.558594 2048.960938 1399.898438 2051.660156 1397.210938 L 2051.648438 1397.199219 C 2054.339844 1394.511719 2056.011719 1390.75 2056.011719 1386.570312 L 2056.011719 1264.070312 C 2056.011719 1259.890625 2054.320312 1256.140625 2051.628906 1253.441406 C 2048.910156 1250.738281 2045.140625 1249.070312 2041.011719 1249.070312 L 2041.011719 1249.039062 L 1784.609375 1249.03125 L 1784.609375 1249.058594 C 1780.46875 1249.058594 1776.710938 1250.730469 1773.988281 1253.441406 C 1771.289062 1256.128906 1769.609375 1259.890625 1769.609375 1264.058594 L 1769.609375 1386.558594 C 1769.609375 1390.730469 1771.289062 1394.488281 1773.988281 1397.191406 C 1776.710938 1399.890625 1780.46875 1401.558594 1784.609375 1401.558594 Z M 1814.609375 1356.558594 L 2011.011719 1356.558594 L 2011.011719 1294.03125 L 1814.609375 1294.039062 Z M 2018.511719 1371.558594 L 1799.601562 1371.558594 L 1799.601562 1279.101562 L 1807.109375 1279.089844 L 2026.011719 1279.089844 L 2026.011719 1371.558594 Z M 1015.078125 1416.558594 L 758.671875 1416.558594 C 750.355469 1416.558594 742.855469 1413.21875 737.433594 1407.800781 L 737.445312 1407.789062 C 732.015625 1402.351562 728.667969 1394.851562 728.667969 1386.558594 L 728.667969 1264.058594 C 728.667969 1255.78125 732.011719 1248.28125 737.433594 1242.851562 L 737.445312 1242.839844 L 737.460938 1242.820312 C 742.894531 1237.398438 750.386719 1234.058594 758.671875 1234.058594 L 758.671875 1234.089844 L 1015.078125 1234.089844 L 1015.078125 1234.058594 C 1023.371094 1234.058594 1030.871094 1237.410156 1036.300781 1242.839844 L 1036.308594 1242.828125 C 1041.738281 1248.25 1045.078125 1255.75 1045.078125 1264.070312 L 1045.078125 1386.570312 C 1045.078125 1394.859375 1041.730469 1402.359375 1036.300781 1407.789062 L 1036.308594 1407.800781 C 1030.890625 1413.21875 1023.390625 1416.558594 1015.078125 1416.558594 Z M 758.671875 1401.558594 L 1015.078125 1401.558594 C 1019.261719 1401.558594 1023.019531 1399.890625 1025.710938 1397.199219 L 1025.738281 1397.199219 C 1028.421875 1394.519531 1030.070312 1390.761719 1030.070312 1386.570312 L 1030.070312 1264.070312 C 1030.070312 1259.878906 1028.398438 1256.121094 1025.710938 1253.429688 L 1025.710938 1253.398438 C 1023.039062 1250.71875 1019.28125 1249.070312 1015.078125 1249.070312 L 1015.078125 1249.039062 L 758.671875 1249.03125 L 758.671875 1249.058594 C 754.472656 1249.058594 750.710938 1250.71875 748.035156 1253.398438 L 748.011719 1253.429688 C 745.328125 1256.101562 743.675781 1259.859375 743.675781 1264.058594 L 743.675781 1386.558594 C 743.675781 1390.761719 745.328125 1394.519531 748.011719 1397.199219 L 748.035156 1397.199219 C 750.730469 1399.890625 754.488281 1401.558594 758.671875 1401.558594 Z M 788.671875 1356.558594 L 985.074219 1356.558594 L 985.074219 1294.03125 L 788.671875 1294.039062 Z M 992.578125 1371.558594 L 773.667969 1371.558594 L 773.667969 1279.101562 L 781.171875 1279.089844 L 1000.078125 1279.089844 L 1000.078125 1371.558594 Z M 1528.039062 1416.558594 L 1271.640625 1416.558594 C 1263.328125 1416.558594 1255.820312 1413.21875 1250.398438 1407.800781 L 1250.410156 1407.789062 C 1244.980469 1402.351562 1241.640625 1394.851562 1241.640625 1386.558594 L 1241.640625 1264.058594 C 1241.640625 1255.78125 1244.980469 1248.28125 1250.398438 1242.851562 L 1250.429688 1242.820312 C 1255.859375 1237.398438 1263.359375 1234.058594 1271.640625 1234.058594 L 1271.640625 1234.089844 L 1528.039062 1234.089844 L 1528.039062 1234.058594 C 1536.269531 1234.058594 1543.789062 1237.421875 1549.238281 1242.859375 L 1549.261719 1242.890625 C 1554.671875 1248.308594 1558.050781 1255.78125 1558.050781 1264.070312 L 1558.050781 1386.570312 C 1558.050781 1394.859375 1554.699219 1402.359375 1549.269531 1407.789062 L 1549.28125 1407.800781 C 1543.859375 1413.21875 1536.359375 1416.558594 1528.039062 1416.558594 Z M 1271.640625 1401.558594 L 1528.039062 1401.558594 C 1532.230469 1401.558594 1535.988281 1399.890625 1538.679688 1397.199219 L 1538.710938 1397.199219 C 1541.390625 1394.519531 1543.039062 1390.761719 1543.039062 1386.570312 L 1543.039062 1264.070312 C 1543.039062 1259.890625 1541.359375 1256.140625 1538.660156 1253.441406 C 1535.941406 1250.738281 1532.179688 1249.070312 1528.039062 1249.070312 L 1528.039062 1249.039062 L 1271.640625 1249.03125 L 1271.640625 1249.058594 C 1267.441406 1249.058594 1263.679688 1250.71875 1261 1253.398438 L 1260.980469 1253.429688 C 1258.300781 1256.101562 1256.640625 1259.859375 1256.640625 1264.058594 L 1256.640625 1386.558594 C 1256.640625 1390.761719 1258.300781 1394.519531 1260.980469 1397.199219 L 1261 1397.199219 C 1263.699219 1399.890625 1267.460938 1401.558594 1271.640625 1401.558594 Z M 1301.640625 1356.558594 L 1498.039062 1356.558594 L 1498.039062 1294.03125 L 1301.640625 1294.039062 Z M 1505.539062 1371.558594 L 1286.640625 1371.558594 L 1286.640625 1279.101562 L 1294.140625 1279.089844 L 1513.050781 1279.089844 L 1513.050781 1371.558594 L 1505.539062 1371.558594 "/>
</svg>
