<?xml version="1.0" encoding="UTF-8"?>
<svg xmlns="http://www.w3.org/2000/svg" xmlns:xlink="http://www.w3.org/1999/xlink" width="3000" height="3000" viewBox="0 0 3000 3000">
<path fill-rule="evenodd" fill="rgb(95.3125%, 56.054688%, 25.488281%)" fill-opacity="1" d="M 1500 0 C 2328.421875 0 3000 671.578125 3000 1500 C 3000 2328.425781 2328.421875 2999.996094 1500 2999.996094 C 671.574219 2999.996094 0.00390625 2328.425781 0.00390625 1500 C 0.00390625 671.578125 671.574219 0 1500 0 "/>
<path fill-rule="evenodd" fill="rgb(90.234375%, 90.234375%, 90.234375%)" fill-opacity="1" d="M 890.890625 2438.617188 C 877.449219 2438.617188 864.328125 2435.023438 852.292969 2428.144531 C 834.324219 2417.835938 821.671875 2401.113281 816.199219 2381.273438 L 772.488281 2218.160156 L 1051.25 2143.191406 L 1095.101562 2306.898438 C 1106.199219 2347.992188 1081.660156 2390.492188 1040.421875 2401.585938 L 910.730469 2436.273438 C 904.171875 2437.679688 897.453125 2438.617188 890.890625 2438.617188 Z M 1476.011719 799.128906 L 1430.570312 650.96875 C 1428.539062 644.101562 1429.789062 636.761719 1434.011719 630.96875 C 1438.230469 625.191406 1444.949219 621.910156 1452.128906 621.910156 L 1693.070312 621.910156 C 1749.160156 607.378906 1806.351562 593.46875 1861.660156 580.039062 C 1913.851562 567.390625 1967.910156 554.261719 2020.730469 540.671875 C 2030.101562 538.320312 2039.789062 542.070312 2045.101562 550.039062 C 2050.410156 558.011719 2050.101562 568.480469 2044.160156 576.128906 L 2008.539062 622.691406 L 2097.128906 640.039062 C 2104.320312 641.441406 2110.410156 646.289062 2113.378906 653.011719 C 2116.351562 659.71875 2115.878906 667.378906 2112.128906 673.789062 L 2038.230469 796.921875 C 2027.140625 793.558594 2015.390625 791.761719 2003.21875 791.761719 L 1517.601562 791.761719 C 1502.988281 791.761719 1488.980469 794.371094 1476.011719 799.128906 Z M 1439.621094 977.820312 C 1436.101562 968.601562 1434.171875 958.601562 1434.171875 948.160156 L 1434.171875 912.691406 C 1434.171875 866.601562 1471.671875 829.261719 1517.601562 829.261719 L 2003.21875 829.25 C 2049.320312 829.25 2086.660156 866.761719 2086.660156 912.691406 L 2086.660156 948.160156 C 2086.621094 958.570312 2084.671875 968.550781 2081.140625 977.769531 C 2060.078125 959.988281 2032.890625 949.261719 2003.21875 949.261719 L 1517.601562 949.261719 C 1487.910156 949.261719 1460.691406 960.011719 1439.621094 977.820312 Z M 2003.070312 1189.101562 L 1517.601562 1189.101562 C 1471.511719 1189.101562 1434.171875 1151.601562 1434.171875 1105.660156 L 1434.171875 1070.191406 C 1434.171875 1024.101562 1471.671875 986.761719 1517.601562 986.761719 L 2003.21875 986.75 C 2049.320312 986.75 2086.660156 1024.25 2086.660156 1070.191406 L 2086.660156 1105.660156 C 2086.5 1151.601562 2049.160156 1189.101562 2003.070312 1189.101562 Z M 1222.199219 1747.988281 C 1223.089844 1740.828125 1224.160156 1733.648438 1225.421875 1726.429688 C 1256.511719 1545.5 1362.609375 1383.78125 1465.261719 1227.378906 L 1465.78125 1226.589844 L 2054.410156 1226.589844 C 2156.710938 1383.390625 2261.28125 1545.53125 2294.929688 1726.128906 C 2317.769531 1848.46875 2287.421875 1938.980469 2240.570312 2004.289062 C 2213.820312 1997.839844 2185.71875 1998.078125 2158.5 2005.371094 L 1760.921875 2111.910156 L 1759.308594 2111.347656 C 1771.28125 2095.085938 1780.539062 2076.824219 1786.429688 2057.519531 C 1814.828125 1964.308594 1759.46875 1883.988281 1671.019531 1854.039062 C 1641.480469 1844.039062 1612.109375 1833.53125 1582.738281 1823.011719 C 1517.070312 1799.480469 1450.878906 1775.441406 1382.460938 1761.140625 C 1327.230469 1749.589844 1274.511719 1745.609375 1222.199219 1747.988281 Z M 1760.878906 1820.960938 C 1604.320312 1820.960938 1476.820312 1693.460938 1476.820312 1536.898438 C 1476.820312 1380.339844 1604.160156 1252.839844 1760.878906 1252.839844 C 1917.441406 1252.839844 2044.941406 1380.179688 2044.941406 1536.898438 C 2044.941406 1693.621094 1917.601562 1820.960938 1760.878906 1820.960938 Z M 1760.878906 1297.851562 C 1629.011719 1297.851562 1521.820312 1405.03125 1521.820312 1536.898438 C 1521.820312 1668.78125 1629 1775.96875 1760.878906 1775.96875 C 1892.75 1775.96875 1999.941406 1668.78125 1999.941406 1536.898438 C 1999.941406 1405.03125 1892.761719 1297.851562 1760.878906 1297.851562 Z M 1760.878906 1740.339844 C 1648.851562 1740.339844 1557.601562 1649.089844 1557.601562 1537.058594 C 1557.601562 1424.878906 1648.851562 1333.78125 1760.878906 1333.78125 C 1873.058594 1333.78125 1964.160156 1425.03125 1964.160156 1537.058594 C 1964.320312 1649.089844 1873.070312 1740.339844 1760.878906 1740.339844 Z M 1760.878906 1378.621094 C 1673.691406 1378.621094 1602.601562 1449.71875 1602.601562 1536.898438 C 1602.601562 1624.238281 1673.539062 1695.179688 1760.878906 1695.179688 C 1848.21875 1695.179688 1919.160156 1624.238281 1919.160156 1536.898438 C 1919.320312 1449.71875 1848.230469 1378.621094 1760.878906 1378.621094 Z M 1736.660156 1638.21875 C 1715.488281 1635.960938 1698.851562 1618.011719 1698.851562 1596.121094 C 1698.851562 1583.78125 1709.011719 1573.621094 1721.351562 1573.621094 C 1732.910156 1573.621094 1742.289062 1582.210938 1743.691406 1593.460938 L 1777.910156 1593.460938 L 1777.910156 1559.398438 L 1741.039062 1559.398438 C 1717.761719 1559.398438 1698.691406 1540.488281 1698.691406 1517.058594 L 1698.691406 1477.53125 C 1698.691406 1455.71875 1715.289062 1437.609375 1736.660156 1435.410156 L 1736.660156 1430.5 C 1736.660156 1418 1746.820312 1408 1759.160156 1408 C 1771.511719 1408 1781.660156 1418 1781.660156 1430.5 L 1781.660156 1435.199219 C 1804.441406 1435.78125 1822.910156 1454.460938 1822.910156 1477.53125 C 1822.910156 1489.871094 1812.75 1500.03125 1800.410156 1500.03125 C 1788.839844 1500.03125 1779.46875 1491.429688 1778.058594 1480.179688 L 1761.808594 1480.179688 C 1760.949219 1480.28125 1760.058594 1480.339844 1759.160156 1480.339844 C 1758.28125 1480.339844 1757.398438 1480.289062 1756.539062 1480.179688 L 1743.851562 1480.179688 L 1743.851562 1514.25 L 1780.730469 1514.238281 C 1804.011719 1514.238281 1823.070312 1533.148438 1823.070312 1556.589844 L 1823.070312 1596.121094 C 1822.910156 1619.238281 1804.511719 1637.949219 1781.660156 1638.449219 L 1781.660156 1643.308594 C 1781.660156 1655.808594 1771.660156 1665.808594 1759.160156 1665.808594 C 1746.820312 1665.808594 1736.660156 1655.648438 1736.660156 1643.308594 Z M 1741.191406 2460.019531 C 1663.21875 2460.019531 1590.878906 2427.210938 1450.730469 2362.054688 C 1384.480469 2331.269531 1301.980469 2292.988281 1195.421875 2247.519531 C 1189.949219 2245.179688 1184.789062 2242.835938 1179.789062 2240.492188 C 1162.921875 2232.679688 1150.570312 2227.054688 1133.851562 2227.054688 C 1133.699219 2227.054688 1133.539062 2227.054688 1133.378906 2227.054688 C 1126.890625 2227.09375 1119.980469 2227.632812 1112.929688 2228.523438 C 1077.140625 2094.90625 1041.328125 1961.289062 1005.53125 1827.679688 L 1052.910156 1815.03125 C 1274.308594 1752.371094 1398.378906 1796.75 1570.089844 1858.308594 C 1598.058594 1868.308594 1627.589844 1878.929688 1659 1889.558594 C 1746.179688 1919.089844 1767.898438 1989.710938 1750.558594 2046.589844 C 1740.71875 2078.929688 1718.371094 2108.464844 1688.371094 2126.277344 L 1759.460938 2151.121094 L 2168.210938 2041.589844 C 2201.640625 2032.683594 2236.488281 2037.214844 2266.648438 2054.710938 C 2296.800781 2072.058594 2318.210938 2100.027344 2327.109375 2133.308594 C 2344.300781 2197.371094 2306.800781 2263.929688 2237.890625 2291.429688 L 2213.199219 2301.273438 C 2161.949219 2321.738281 2116.640625 2340.179688 2076.328125 2356.585938 C 1906.5 2425.648438 1820.878906 2460.019531 1741.191406 2460.019531 Z M 760.851562 2174.742188 L 671.359375 1840.808594 C 666.050781 1820.96875 668.859375 1800.179688 679.171875 1782.210938 C 689.484375 1764.25 706.203125 1751.589844 726.046875 1746.28125 L 855.574219 1711.589844 C 896.667969 1700.648438 939.171875 1725.03125 950.261719 1766.269531 L 1039.609375 2099.773438 L 760.851562 2174.742188 "/>
<path fill-rule="nonzero" fill="rgb(0%, 0%, 0%)" fill-opacity="1" d="M 890.890625 2446.117188 C 883.527344 2446.117188 876.242188 2445.132812 869.144531 2443.210938 C 862.0625 2441.289062 855.160156 2438.414062 848.574219 2434.652344 C 838.796875 2429.039062 830.425781 2421.664062 823.742188 2412.984375 C 817.007812 2404.238281 811.996094 2394.171875 808.996094 2383.265625 L 808.964844 2383.207031 L 765.253906 2220.097656 L 763.316406 2212.867188 L 770.554688 2210.921875 L 1049.308594 2135.957031 L 1056.539062 2134.007812 L 1058.480469 2141.257812 L 1102.339844 2304.960938 L 1102.328125 2304.96875 L 1102.328125 2304.984375 L 1102.359375 2305.042969 C 1108.410156 2327.542969 1104.710938 2350.445312 1093.859375 2369.242188 L 1093.851562 2369.234375 C 1083 2388.019531 1064.988281 2402.714844 1042.429688 2408.800781 L 1042.429688 2408.785156 L 1042.410156 2408.789062 L 1042.351562 2408.820312 L 912.667969 2443.511719 L 912.285156 2443.597656 C 908.765625 2444.351562 905.214844 2444.984375 901.71875 2445.414062 C 898.085938 2445.855469 894.449219 2446.117188 890.890625 2446.117188 Z M 873.070312 2428.734375 C 878.867188 2430.308594 884.84375 2431.113281 890.890625 2431.113281 C 893.886719 2431.113281 896.914062 2430.898438 899.902344 2430.53125 C 902.945312 2430.160156 905.957031 2429.628906 908.902344 2429.003906 L 1038.480469 2394.347656 L 1038.488281 2394.359375 L 1038.5 2394.355469 L 1038.558594 2394.324219 C 1057.171875 2389.300781 1072 2377.214844 1080.910156 2361.769531 L 1080.910156 2361.738281 C 1089.828125 2346.285156 1092.871094 2327.441406 1087.890625 2308.914062 L 1087.898438 2308.910156 L 1087.898438 2308.890625 L 1087.871094 2308.835938 L 1045.949219 2152.375 L 781.664062 2223.453125 L 823.4375 2379.335938 L 823.425781 2379.339844 C 825.914062 2388.351562 830.046875 2396.660156 835.578125 2403.84375 C 841.042969 2410.9375 847.9375 2417 856.015625 2421.640625 C 861.476562 2424.761719 867.199219 2427.144531 873.070312 2428.734375 Z M 1468.859375 801.320312 L 1423.421875 653.171875 L 1423.390625 653.078125 C 1422.050781 648.53125 1421.789062 643.808594 1422.570312 639.300781 C 1423.339844 634.789062 1425.171875 630.429688 1427.96875 626.578125 C 1430.808594 622.679688 1434.460938 619.640625 1438.570312 617.589844 L 1438.578125 617.609375 C 1442.769531 615.519531 1447.398438 614.410156 1452.128906 614.410156 L 1452.128906 614.441406 L 1692.101562 614.441406 C 1720.46875 607.089844 1748.398438 600.078125 1775.871094 593.300781 C 1802.449219 586.730469 1831.320312 579.710938 1859.910156 572.769531 C 1885 566.691406 1910.628906 560.46875 1939.171875 553.429688 C 1966.699219 546.660156 1993.589844 539.929688 2018.878906 533.429688 L 2018.941406 533.398438 C 2025.109375 531.859375 2031.429688 532.328125 2037.089844 534.511719 C 2042.800781 536.699219 2047.808594 540.609375 2051.339844 545.910156 C 2054.878906 551.21875 2056.539062 557.390625 2056.320312 563.511719 C 2056.101562 569.621094 2054.019531 575.660156 2050.078125 580.738281 L 2050.070312 580.730469 L 2021.808594 617.660156 L 2098.558594 632.679688 C 2103.351562 633.621094 2107.789062 635.710938 2111.511719 638.679688 C 2115.238281 641.648438 2118.261719 645.511719 2120.238281 649.988281 C 2122.199219 654.441406 2123.03125 659.21875 2122.75 663.949219 C 2122.460938 668.640625 2121.058594 673.320312 2118.578125 677.570312 L 2118.550781 677.628906 L 2044.640625 800.761719 L 2041.621094 805.789062 L 2036.058594 804.101562 C 2030.78125 802.5 2025.359375 801.269531 2019.859375 800.46875 C 2014.480469 799.679688 2008.910156 799.261719 2003.21875 799.261719 L 2003.21875 799.230469 L 1517.601562 799.230469 L 1517.601562 799.261719 C 1510.800781 799.261719 1504.160156 799.859375 1497.738281 801 C 1491.140625 802.171875 1484.730469 803.910156 1478.589844 806.160156 L 1471.179688 808.878906 Z M 1437.75 648.859375 L 1480.910156 789.609375 C 1485.558594 788.21875 1490.320312 787.089844 1495.160156 786.230469 C 1502.46875 784.941406 1509.96875 784.261719 1517.601562 784.261719 L 1517.601562 784.289062 L 2003.21875 784.289062 L 2003.21875 784.25 C 2009.570312 784.25 2015.859375 784.730469 2022.03125 785.640625 C 2026.359375 786.269531 2030.609375 787.121094 2034.75 788.171875 L 2105.710938 669.949219 L 2105.71875 669.949219 C 2106.949219 667.820312 2107.660156 665.449219 2107.800781 663.070312 C 2107.949219 660.699219 2107.519531 658.28125 2106.519531 656.019531 C 2105.539062 653.789062 2104.03125 651.871094 2102.191406 650.398438 C 2100.320312 648.898438 2098.089844 647.859375 2095.691406 647.390625 L 2007.101562 630.039062 L 1995.261719 627.730469 L 2002.589844 618.148438 L 2038.210938 571.589844 L 2038.238281 571.53125 C 2040.21875 568.988281 2041.269531 565.980469 2041.378906 562.980469 C 2041.480469 559.949219 2040.648438 556.851562 2038.859375 554.171875 C 2037.078125 551.5 2034.578125 549.53125 2031.761719 548.449219 C 2028.929688 547.359375 2025.699219 547.140625 2022.519531 547.929688 L 2022.511719 547.921875 C 1995.019531 554.988281 1968.488281 561.640625 1942.75 567.96875 C 1918.03125 574.058594 1890.511719 580.738281 1863.421875 587.308594 C 1836.710938 593.789062 1809.320312 600.460938 1779.449219 607.828125 C 1750.78125 614.921875 1722.359375 622.050781 1694.941406 629.148438 L 1693.070312 629.390625 L 1452.128906 629.378906 L 1452.128906 629.410156 C 1449.640625 629.410156 1447.28125 629.960938 1445.25 630.980469 L 1445.25 631.011719 C 1443.191406 632.03125 1441.390625 633.519531 1440.050781 635.359375 C 1438.648438 637.28125 1437.730469 639.5 1437.328125 641.808594 C 1436.929688 644.128906 1437.070312 646.539062 1437.75 648.859375 Z M 1432.621094 980.488281 C 1430.710938 975.460938 1429.199219 970.148438 1428.191406 964.609375 C 1427.191406 959.171875 1426.671875 953.671875 1426.671875 948.160156 L 1426.671875 912.691406 C 1426.671875 887.601562 1436.871094 864.878906 1453.320312 848.429688 L 1453.328125 848.441406 C 1469.820312 831.960938 1492.578125 821.761719 1517.601562 821.761719 L 1517.601562 821.789062 L 2003.21875 821.78125 L 2003.21875 821.75 C 2028.320312 821.75 2051.039062 831.960938 2067.488281 848.410156 C 2083.96875 864.878906 2094.160156 887.640625 2094.160156 912.691406 L 2094.160156 948.160156 L 2094.128906 948.160156 C 2094.109375 953.78125 2093.578125 959.269531 2092.601562 964.558594 C 2091.570312 970.109375 2090.058594 975.421875 2088.140625 980.429688 L 2084.371094 990.300781 L 2076.300781 983.480469 C 2066.25 974.988281 2054.691406 968.199219 2042.121094 963.609375 L 2042.101562 963.609375 C 2030 959.179688 2016.898438 956.761719 2003.21875 956.761719 L 2003.21875 956.730469 L 1517.601562 956.730469 L 1517.601562 956.761719 C 1503.910156 956.761719 1490.800781 959.191406 1478.691406 963.621094 C 1466.078125 968.238281 1454.519531 975.039062 1444.460938 983.539062 L 1436.378906 990.371094 Z M 1442.890625 961.910156 C 1443.101562 963.039062 1443.339844 964.171875 1443.601562 965.289062 C 1452.769531 958.800781 1462.828125 953.480469 1473.539062 949.558594 C 1487.300781 944.511719 1502.148438 941.761719 1517.601562 941.761719 L 1517.601562 941.789062 L 2003.21875 941.78125 L 2003.21875 941.75 C 2018.660156 941.75 2033.488281 944.5 2047.25 949.539062 L 2047.25 949.550781 C 2057.96875 953.46875 2068.03125 958.789062 2077.179688 965.261719 C 2077.449219 964.128906 2077.691406 963 2077.890625 961.871094 C 2078.71875 957.398438 2079.171875 952.808594 2079.191406 948.160156 L 2079.160156 948.160156 L 2079.160156 912.691406 C 2079.160156 891.769531 2070.640625 872.769531 2056.890625 859.011719 C 2043.160156 845.28125 2024.179688 836.761719 2003.21875 836.761719 L 2003.21875 836.730469 L 1517.601562 836.730469 L 1517.601562 836.761719 C 1496.660156 836.761719 1477.660156 845.269531 1463.921875 859 L 1463.921875 859.03125 C 1450.191406 872.761719 1441.671875 891.738281 1441.671875 912.691406 L 1441.671875 948.160156 C 1441.671875 952.960938 1442.089844 957.558594 1442.890625 961.910156 Z M 2003.070312 1196.601562 L 1517.601562 1196.601562 C 1492.511719 1196.601562 1469.789062 1186.398438 1453.339844 1169.949219 C 1436.859375 1153.46875 1426.671875 1130.710938 1426.671875 1105.660156 L 1426.671875 1070.191406 C 1426.671875 1045.101562 1436.871094 1022.378906 1453.320312 1005.929688 L 1453.328125 1005.941406 C 1469.820312 989.460938 1492.578125 979.25 1517.601562 979.25 L 1517.601562 979.289062 L 2003.21875 979.28125 L 2003.21875 979.25 C 2028.320312 979.25 2051.039062 989.460938 2067.488281 1005.910156 C 2083.96875 1022.378906 2094.160156 1045.140625 2094.160156 1070.191406 L 2094.160156 1105.660156 L 2094.128906 1105.660156 C 2094.050781 1130.730469 2083.808594 1153.5 2067.308594 1169.960938 C 2050.839844 1186.398438 2028.128906 1196.601562 2003.070312 1196.601562 Z M 1517.601562 1181.589844 L 2003.070312 1181.589844 C 2024.039062 1181.589844 2043.011719 1173.078125 2056.761719 1159.359375 C 2070.558594 1145.589844 2079.121094 1126.570312 2079.191406 1105.660156 L 2079.160156 1105.660156 L 2079.160156 1070.191406 C 2079.160156 1049.269531 2070.640625 1030.269531 2056.890625 1016.511719 C 2043.160156 1002.78125 2024.179688 994.261719 2003.21875 994.261719 L 2003.21875 994.230469 L 1517.601562 994.230469 L 1517.601562 994.261719 C 1496.660156 994.261719 1477.660156 1002.761719 1463.921875 1016.5 L 1463.921875 1016.53125 C 1450.191406 1030.261719 1441.671875 1049.238281 1441.671875 1070.191406 L 1441.671875 1105.660156 C 1441.671875 1126.578125 1450.191406 1145.589844 1463.941406 1159.339844 C 1477.671875 1173.070312 1496.648438 1181.589844 1517.601562 1181.589844 Z M 1214.761719 1747.078125 C 1215.199219 1743.5 1215.710938 1739.828125 1216.261719 1736.121094 C 1216.808594 1732.410156 1217.410156 1728.75 1218.039062 1725.148438 C 1233.730469 1633.871094 1268.300781 1547.480469 1311.890625 1464.25 C 1355.410156 1381.109375 1407.628906 1301.53125 1458.988281 1223.28125 L 1459.5 1222.488281 L 1461.738281 1219.089844 L 2058.441406 1219.089844 L 2060.679688 1222.519531 C 2111.898438 1301.019531 2163.699219 1380.890625 2207.03125 1463.96875 C 2250.480469 1547.289062 2285.308594 1633.660156 2302.289062 1724.78125 C 2313.011719 1782.25 2312.199219 1832.871094 2303.519531 1877.269531 C 2293.371094 1929.261719 2272.449219 1972.710938 2246.671875 2008.65625 L 2243.730469 2012.746094 L 2238.808594 2011.558594 C 2225.96875 2008.464844 2212.800781 2006.980469 2199.601562 2007.152344 C 2186.570312 2007.320312 2173.421875 2009.132812 2160.441406 2012.609375 L 1762.859375 2119.148438 L 1758.460938 2118.96875 L 1756.839844 2118.40625 L 1747.269531 2115.066406 L 1753.269531 2106.921875 C 1759.039062 2099.078125 1764.171875 2090.757812 1768.53125 2082.089844 C 1772.871094 2073.460938 1776.488281 2064.503906 1779.28125 2055.351562 C 1792.378906 2012.351562 1786.808594 1972.28125 1768.039062 1939.179688 C 1747.898438 1903.660156 1712.53125 1876 1668.621094 1861.128906 C 1653.851562 1856.128906 1639.070312 1850.988281 1624.328125 1845.78125 C 1612.300781 1841.53125 1596.359375 1835.828125 1580.21875 1830.039062 L 1574.480469 1827.988281 C 1510.980469 1805.21875 1446.929688 1782.261719 1380.941406 1768.46875 C 1353.691406 1762.78125 1327.011719 1758.941406 1300.648438 1756.808594 C 1274.25 1754.691406 1248.289062 1754.289062 1222.519531 1755.460938 L 1213.679688 1755.859375 Z M 1231.089844 1738.289062 L 1230.808594 1740.171875 C 1254.371094 1739.429688 1277.988281 1739.960938 1301.820312 1741.871094 C 1328.691406 1744.03125 1356 1747.96875 1383.988281 1753.820312 C 1450.839844 1767.789062 1515.460938 1790.949219 1579.519531 1813.921875 L 1585.261719 1815.96875 C 1598.46875 1820.699219 1611.910156 1825.519531 1629.300781 1831.660156 C 1643.960938 1836.828125 1658.671875 1841.960938 1673.421875 1846.949219 C 1720.800781 1862.988281 1759.089844 1893.058594 1781.050781 1931.800781 C 1801.78125 1968.339844 1807.96875 2012.472656 1793.578125 2059.691406 C 1790.511719 2069.75 1786.578125 2079.511719 1781.890625 2088.828125 C 1779.941406 2092.691406 1777.859375 2096.484375 1775.660156 2100.203125 L 2156.570312 1998.128906 C 2170.648438 1994.359375 2185.050781 1992.398438 2199.421875 1992.210938 C 2212.179688 1992.039062 2224.878906 1993.28125 2237.320312 1995.890625 C 2260.671875 1962.320312 2279.488281 1922.121094 2288.820312 1874.398438 C 2297.160156 1831.691406 2297.929688 1782.929688 2287.578125 1727.480469 C 2270.910156 1638.011719 2236.609375 1553 2193.789062 1470.890625 C 2151.480469 1389.769531 2100.71875 1311.269531 2050.371094 1234.101562 L 1469.820312 1234.101562 C 1419.078125 1311.398438 1367.609375 1390.03125 1325.128906 1471.171875 C 1282.230469 1553.109375 1248.199219 1638.058594 1232.800781 1727.691406 L 1232.800781 1727.71875 C 1232.179688 1731.300781 1231.601562 1734.828125 1231.089844 1738.289062 Z M 1760.878906 1828.460938 C 1680.539062 1828.460938 1607.640625 1795.738281 1554.839844 1742.941406 C 1502.039062 1690.140625 1469.320312 1617.238281 1469.320312 1536.898438 C 1469.320312 1456.539062 1502.011719 1383.621094 1554.820312 1330.820312 C 1607.601562 1278.039062 1680.480469 1245.339844 1760.878906 1245.339844 C 1841.238281 1245.339844 1914.160156 1278.03125 1966.960938 1330.839844 C 2019.738281 1383.621094 2052.441406 1456.5 2052.441406 1536.898438 C 2052.441406 1617.320312 2019.761719 1690.21875 1966.980469 1743 C 1914.199219 1795.78125 1841.300781 1828.460938 1760.878906 1828.460938 Z M 1565.441406 1732.339844 C 1615.53125 1782.421875 1684.671875 1813.460938 1760.878906 1813.460938 C 1837.171875 1813.460938 1906.320312 1782.460938 1956.378906 1732.398438 C 2006.441406 1682.339844 2037.441406 1613.191406 2037.441406 1536.898438 C 2037.441406 1460.628906 2006.421875 1391.5 1956.359375 1341.441406 C 1906.269531 1291.359375 1837.109375 1260.339844 1760.878906 1260.339844 C 1684.609375 1260.339844 1615.480469 1291.359375 1565.421875 1341.421875 C 1515.339844 1391.511719 1484.328125 1460.671875 1484.328125 1536.898438 C 1484.328125 1613.109375 1515.359375 1682.25 1565.441406 1732.339844 Z M 1760.878906 1305.351562 C 1697.011719 1305.351562 1639.109375 1331.308594 1597.199219 1373.230469 C 1555.28125 1415.140625 1529.320312 1473.039062 1529.320312 1536.898438 C 1529.320312 1600.78125 1555.28125 1658.671875 1597.199219 1700.589844 C 1639.109375 1742.5 1697.011719 1768.460938 1760.878906 1768.460938 C 1824.75 1768.460938 1882.640625 1742.5 1924.558594 1700.589844 C 1966.480469 1658.671875 1992.441406 1600.769531 1992.441406 1536.898438 C 1992.441406 1473.039062 1966.480469 1415.140625 1924.558594 1373.230469 C 1882.640625 1331.308594 1824.75 1305.351562 1760.878906 1305.351562 Z M 1586.589844 1362.621094 C 1631.230469 1317.988281 1692.878906 1290.339844 1760.878906 1290.339844 C 1828.878906 1290.339844 1890.53125 1317.988281 1935.171875 1362.621094 C 1979.800781 1407.25 2007.441406 1468.898438 2007.441406 1536.898438 C 2007.441406 1604.898438 1979.800781 1666.550781 1935.171875 1711.191406 C 1890.53125 1755.828125 1828.878906 1783.46875 1760.878906 1783.46875 C 1692.878906 1783.46875 1631.230469 1755.828125 1586.589844 1711.191406 C 1541.960938 1666.550781 1514.308594 1604.910156 1514.308594 1536.898438 C 1514.308594 1468.898438 1541.960938 1407.261719 1586.589844 1362.621094 Z M 1760.878906 1747.839844 C 1702.800781 1747.839844 1650.101562 1724.179688 1611.929688 1686.011719 C 1573.761719 1647.839844 1550.101562 1595.140625 1550.101562 1537.058594 C 1550.101562 1478.921875 1573.738281 1426.238281 1611.890625 1388.089844 C 1650.058594 1349.921875 1702.78125 1326.28125 1760.878906 1326.28125 C 1819.019531 1326.28125 1871.699219 1349.921875 1909.851562 1388.070312 C 1948.03125 1426.25 1971.660156 1478.960938 1971.660156 1537.058594 L 1971.660156 1537.351562 C 1971.660156 1595.308594 1948.058594 1647.898438 1909.949219 1686.011719 C 1871.871094 1724.089844 1819.238281 1747.730469 1761.171875 1747.808594 L 1761.171875 1747.839844 Z M 1622.53125 1675.410156 C 1657.980469 1710.859375 1706.929688 1732.828125 1760.878906 1732.828125 L 1761.171875 1732.828125 L 1761.171875 1732.871094 C 1815.050781 1732.789062 1863.941406 1710.808594 1899.351562 1675.410156 C 1934.738281 1640.011719 1956.660156 1591.179688 1956.660156 1537.351562 L 1956.660156 1537.058594 C 1956.660156 1483.089844 1934.710938 1434.128906 1899.25 1398.679688 C 1863.820312 1363.25 1814.878906 1341.289062 1760.878906 1341.289062 C 1706.910156 1341.289062 1657.949219 1363.238281 1622.488281 1398.691406 C 1587.058594 1434.121094 1565.101562 1483.050781 1565.101562 1537.058594 C 1565.101562 1591.011719 1587.078125 1639.960938 1622.53125 1675.410156 Z M 1760.878906 1386.128906 C 1719.359375 1386.128906 1681.660156 1403.058594 1654.351562 1430.371094 C 1627.039062 1457.679688 1610.101562 1495.378906 1610.101562 1536.898438 C 1610.101562 1578.5 1627 1616.199219 1654.289062 1643.488281 C 1681.578125 1670.78125 1719.28125 1687.679688 1760.878906 1687.679688 C 1802.480469 1687.679688 1840.179688 1670.78125 1867.46875 1643.488281 C 1894.761719 1616.199219 1911.660156 1578.5 1911.660156 1536.898438 L 1911.660156 1536.609375 C 1911.660156 1495.199219 1894.78125 1457.609375 1867.53125 1430.371094 C 1840.269531 1403.101562 1802.628906 1386.171875 1761.171875 1386.101562 L 1761.171875 1386.128906 Z M 1643.738281 1419.769531 C 1673.769531 1389.738281 1715.21875 1371.121094 1760.878906 1371.121094 L 1761.171875 1371.121094 L 1761.171875 1371.148438 C 1806.820312 1371.230469 1848.199219 1389.828125 1878.140625 1419.769531 C 1908.101562 1449.730469 1926.660156 1491.070312 1926.660156 1536.609375 L 1926.660156 1536.898438 C 1926.660156 1582.628906 1908.078125 1624.089844 1878.070312 1654.089844 C 1848.070312 1684.101562 1806.609375 1702.679688 1760.878906 1702.679688 C 1715.140625 1702.679688 1673.691406 1684.101562 1643.679688 1654.089844 C 1613.679688 1624.089844 1595.101562 1582.628906 1595.101562 1536.898438 C 1595.101562 1491.238281 1613.71875 1449.789062 1643.738281 1419.769531 Z M 1729.179688 1644.480469 C 1719.359375 1642.039062 1710.671875 1636.691406 1704.109375 1629.390625 C 1696.191406 1620.570312 1691.351562 1608.898438 1691.351562 1596.121094 C 1691.351562 1587.890625 1694.730469 1580.378906 1700.171875 1574.941406 C 1705.609375 1569.5 1713.121094 1566.121094 1721.351562 1566.121094 C 1729 1566.121094 1735.949219 1568.960938 1741.230469 1573.660156 L 1741.21875 1573.671875 C 1744.929688 1576.96875 1747.820312 1581.179688 1749.550781 1585.960938 L 1770.410156 1585.960938 L 1770.410156 1566.898438 L 1741.039062 1566.898438 C 1727.339844 1566.898438 1714.859375 1561.308594 1705.820312 1552.28125 L 1705.789062 1552.28125 C 1696.789062 1543.269531 1691.191406 1530.820312 1691.191406 1517.058594 L 1691.191406 1477.53125 C 1691.191406 1464.75 1696.050781 1453.039062 1704.03125 1444.179688 C 1710.601562 1436.898438 1719.308594 1431.539062 1729.191406 1429.128906 C 1729.539062 1421.390625 1732.828125 1414.441406 1737.941406 1409.320312 L 1737.96875 1409.300781 C 1743.421875 1403.851562 1750.929688 1400.5 1759.160156 1400.5 C 1767.390625 1400.5 1774.910156 1403.859375 1780.351562 1409.300781 L 1780.378906 1409.320312 C 1785.339844 1414.289062 1788.589844 1420.980469 1789.089844 1428.449219 C 1799.648438 1430.28125 1809.089844 1435.421875 1816.261719 1442.78125 C 1825 1451.75 1830.410156 1464.011719 1830.410156 1477.53125 C 1830.410156 1485.761719 1827.03125 1493.269531 1821.589844 1498.710938 L 1821.578125 1498.691406 C 1816.128906 1504.140625 1808.621094 1507.53125 1800.410156 1507.53125 C 1792.761719 1507.53125 1785.808594 1504.691406 1780.53125 1499.988281 L 1780.539062 1499.96875 C 1776.828125 1496.679688 1773.941406 1492.46875 1772.210938 1487.691406 L 1762.109375 1487.691406 L 1761.140625 1487.769531 L 1760.941406 1487.769531 C 1760.148438 1487.820312 1759.558594 1487.839844 1759.160156 1487.839844 C 1758.769531 1487.839844 1758.179688 1487.820312 1757.398438 1487.769531 L 1757.191406 1487.769531 L 1756.238281 1487.691406 L 1751.351562 1487.691406 L 1751.351562 1506.78125 L 1780.730469 1506.769531 L 1780.730469 1506.738281 C 1794.429688 1506.738281 1806.910156 1512.328125 1815.941406 1521.359375 L 1815.96875 1521.359375 C 1824.980469 1530.371094 1830.570312 1542.820312 1830.570312 1556.589844 L 1830.570312 1596.121094 L 1830.539062 1596.148438 C 1830.460938 1609.730469 1825.011719 1622.011719 1816.269531 1630.960938 L 1816.230469 1630.988281 C 1809.058594 1638.320312 1799.640625 1643.429688 1789.101562 1645.230469 C 1788.628906 1652.738281 1785.398438 1659.511719 1780.398438 1664.519531 L 1780.390625 1664.53125 L 1780.371094 1664.550781 C 1774.941406 1669.96875 1767.441406 1673.308594 1759.160156 1673.308594 C 1750.929688 1673.308594 1743.421875 1669.929688 1737.980469 1664.488281 L 1737.988281 1664.480469 C 1732.808594 1659.289062 1729.488281 1652.230469 1729.179688 1644.480469 Z M 1715.25 1619.371094 C 1720.859375 1625.621094 1728.699219 1629.839844 1737.449219 1630.78125 L 1744.160156 1631.488281 L 1744.160156 1643.308594 C 1744.160156 1647.429688 1745.851562 1651.179688 1748.558594 1653.890625 L 1748.578125 1653.890625 C 1751.308594 1656.609375 1755.058594 1658.308594 1759.160156 1658.308594 C 1763.359375 1658.308594 1767.121094 1656.648438 1769.800781 1653.96875 L 1769.820312 1653.941406 C 1772.5 1651.269531 1774.160156 1647.511719 1774.160156 1643.308594 L 1774.160156 1631.140625 L 1781.511719 1630.980469 C 1790.890625 1630.769531 1799.378906 1626.808594 1805.539062 1620.53125 C 1811.691406 1614.230469 1815.53125 1605.601562 1815.601562 1596.121094 L 1815.570312 1596.121094 L 1815.570312 1556.589844 C 1815.570312 1546.960938 1811.648438 1538.25 1805.371094 1531.96875 L 1805.378906 1531.949219 C 1799.058594 1525.648438 1790.328125 1521.75 1780.730469 1521.75 L 1780.730469 1521.71875 L 1736.351562 1521.71875 L 1736.351562 1472.679688 L 1756.539062 1472.679688 L 1757.191406 1472.710938 L 1758.488281 1472.828125 L 1759.160156 1472.839844 L 1759.851562 1472.828125 L 1761.171875 1472.710938 L 1761.808594 1472.679688 L 1784.679688 1472.679688 L 1785.511719 1479.28125 C 1785.980469 1483.089844 1787.800781 1486.441406 1790.460938 1488.789062 L 1790.488281 1488.789062 C 1793.109375 1491.121094 1796.570312 1492.519531 1800.410156 1492.519531 C 1804.53125 1492.519531 1808.28125 1490.839844 1810.988281 1488.128906 L 1810.988281 1488.101562 C 1813.710938 1485.378906 1815.410156 1481.628906 1815.410156 1477.53125 C 1815.410156 1468.050781 1811.628906 1459.480469 1805.53125 1453.21875 C 1799.378906 1446.910156 1790.859375 1442.910156 1781.480469 1442.671875 L 1774.160156 1442.488281 L 1774.160156 1430.5 C 1774.160156 1426.328125 1772.480469 1422.570312 1769.78125 1419.871094 C 1767.058594 1417.171875 1763.289062 1415.5 1759.160156 1415.5 C 1755.03125 1415.5 1751.261719 1417.171875 1748.539062 1419.871094 C 1745.851562 1422.570312 1744.160156 1426.328125 1744.160156 1430.5 L 1744.160156 1442.160156 L 1737.421875 1442.859375 C 1728.621094 1443.761719 1720.78125 1447.96875 1715.160156 1454.199219 C 1709.589844 1460.390625 1706.199219 1468.578125 1706.199219 1477.53125 L 1706.199219 1517.058594 C 1706.199219 1526.679688 1710.109375 1535.390625 1716.398438 1541.679688 L 1716.378906 1541.691406 C 1722.699219 1547.988281 1731.429688 1551.898438 1741.039062 1551.898438 L 1785.421875 1551.898438 L 1785.421875 1600.96875 L 1737.078125 1600.96875 L 1736.25 1594.371094 C 1735.78125 1590.558594 1733.960938 1587.210938 1731.300781 1584.851562 L 1731.269531 1584.851562 C 1728.648438 1582.53125 1725.191406 1581.121094 1721.351562 1581.121094 C 1717.25 1581.121094 1713.5 1582.820312 1710.769531 1585.539062 C 1708.050781 1588.269531 1706.351562 1592.019531 1706.351562 1596.121094 C 1706.351562 1605.078125 1709.730469 1613.230469 1715.25 1619.371094 Z M 1741.191406 2467.523438 C 1701.328125 2467.523438 1662.96875 2459.160156 1616.761719 2442.503906 C 1570.949219 2425.992188 1517.738281 2401.464844 1447.589844 2368.851562 C 1414.5 2353.476562 1377.320312 2336.214844 1335.109375 2317.121094 C 1292.878906 2298.019531 1245.640625 2277.089844 1192.488281 2254.40625 C 1187.25 2252.167969 1181.960938 2249.753906 1176.671875 2247.277344 L 1176.660156 2247.289062 C 1168.441406 2243.492188 1161.328125 2240.21875 1154.449219 2237.96875 C 1147.898438 2235.828125 1141.359375 2234.558594 1133.851562 2234.558594 L 1133.378906 2234.558594 L 1133.378906 2234.527344 C 1130.621094 2234.539062 1127.5 2234.6875 1124.171875 2234.921875 C 1120.539062 2235.175781 1117.101562 2235.53125 1113.828125 2235.9375 L 1107.378906 2236.75 L 1105.691406 2230.460938 L 998.296875 1829.621094 L 996.359375 1822.371094 L 1003.601562 1820.441406 L 1050.980469 1807.789062 L 1050.980469 1807.800781 C 1162.730469 1776.191406 1250.039062 1771.589844 1331.128906 1782.671875 C 1412.019531 1793.730469 1486.328125 1820.351562 1572.601562 1851.269531 L 1572.609375 1851.25 L 1580.230469 1853.96875 C 1606.160156 1863.25 1633.441406 1873.011719 1661.398438 1882.46875 C 1703.410156 1896.691406 1731.011719 1920.230469 1746.839844 1947.371094 C 1765.480469 1979.339844 1767.628906 2016.199219 1757.710938 2048.761719 C 1752.46875 2065.988281 1743.859375 2082.460938 1732.558594 2096.941406 C 1724.621094 2107.117188 1715.339844 2116.328125 1704.949219 2124.152344 L 1759.730469 2143.296875 L 2166.269531 2034.351562 L 2166.300781 2034.351562 C 2183.988281 2029.640625 2202.070312 2028.492188 2219.730469 2030.847656 C 2237.339844 2033.191406 2254.511719 2039.019531 2270.398438 2048.238281 L 2270.390625 2048.25 C 2286.308594 2057.410156 2299.921875 2069.359375 2310.71875 2083.394531 C 2321.589844 2097.53125 2329.640625 2113.769531 2334.351562 2131.371094 C 2343.460938 2165.347656 2338.078125 2199.992188 2321.28125 2229.765625 C 2304.628906 2259.285156 2276.71875 2283.980469 2240.648438 2298.375 L 2215.960938 2308.21875 C 2193.691406 2317.109375 2168.859375 2327.125 2143.480469 2337.398438 C 2120.710938 2346.609375 2099.300781 2355.328125 2079.140625 2363.527344 C 1994.128906 2398.101562 1930.171875 2424 1877.28125 2441.320312 C 1823.910156 2458.800781 1781.871094 2467.523438 1741.191406 2467.523438 Z M 1621.800781 2428.4375 C 1666.28125 2444.472656 1703.089844 2452.519531 1741.191406 2452.519531 C 1780.199219 2452.519531 1820.828125 2444.050781 1872.640625 2427.078125 C 1924.929688 2409.953125 1988.71875 2384.125 2073.519531 2349.640625 C 2093.671875 2341.441406 2115.089844 2332.71875 2137.851562 2323.507812 C 2158.011719 2315.347656 2181.480469 2305.898438 2210.449219 2294.328125 L 2235.140625 2284.484375 C 2267.941406 2271.394531 2293.25 2249.0625 2308.269531 2222.4375 C 2323.171875 2196.035156 2327.949219 2165.335938 2319.878906 2135.242188 C 2315.671875 2119.519531 2308.519531 2105.066406 2298.878906 2092.535156 C 2289.238281 2080.003906 2277.101562 2069.34375 2262.929688 2061.1875 L 2262.890625 2061.1875 C 2248.699219 2052.953125 2233.421875 2047.757812 2217.800781 2045.675781 C 2202.078125 2043.582031 2185.949219 2044.613281 2170.140625 2048.816406 L 2170.140625 2048.824219 L 1761.398438 2158.359375 L 1757 2158.179688 L 1685.910156 2133.339844 L 1670.738281 2128.035156 L 1684.558594 2119.835938 C 1698.578125 2111.507812 1710.851562 2100.460938 1720.78125 2087.734375 C 1730.96875 2074.6875 1738.710938 2059.882812 1743.410156 2044.417969 C 1752.191406 2015.613281 1750.320312 1983.050781 1733.890625 1954.878906 C 1719.789062 1930.691406 1694.859375 1909.609375 1656.601562 1896.648438 C 1627.421875 1886.78125 1600.648438 1877.199219 1575.191406 1868.089844 L 1567.570312 1865.371094 L 1567.570312 1865.339844 C 1482.128906 1834.71875 1408.539062 1808.351562 1329.140625 1797.5 C 1249.949219 1786.679688 1164.53125 1791.21875 1054.929688 1822.230469 L 1054.851562 1822.261719 L 1014.710938 1832.980469 L 1118.5 2220.375 C 1120.101562 2220.214844 1121.640625 2220.082031 1123.109375 2219.976562 C 1126.410156 2219.746094 1129.820312 2219.601562 1133.351562 2219.582031 L 1133.378906 2219.550781 L 1133.851562 2219.550781 C 1143.058594 2219.550781 1151.070312 2221.105469 1159.078125 2223.722656 C 1166.769531 2226.234375 1174.269531 2229.6875 1182.929688 2233.691406 L 1182.949219 2233.726562 C 1187.640625 2235.917969 1192.660156 2238.199219 1198.351562 2240.632812 C 1251.75 2263.417969 1299.050781 2284.371094 1341.269531 2303.46875 C 1383.511719 2322.578125 1420.71875 2339.855469 1453.871094 2355.253906 C 1523.871094 2387.800781 1576.929688 2412.261719 1621.800781 2428.4375 Z M 753.613281 2176.675781 L 664.121094 1842.738281 C 661.222656 1831.910156 660.539062 1820.769531 661.988281 1809.878906 C 663.445312 1798.941406 667.035156 1788.300781 672.664062 1778.488281 C 678.289062 1768.691406 685.6875 1760.300781 694.394531 1753.628906 C 703.148438 1746.921875 713.210938 1741.949219 724.109375 1739.039062 L 853.640625 1704.351562 L 853.671875 1704.351562 C 876.214844 1698.351562 899.167969 1702.058594 917.984375 1712.929688 C 936.757812 1723.761719 951.429688 1741.75 957.5 1764.339844 L 1046.851562 2097.839844 L 1048.789062 2105.0625 L 1041.550781 2107.011719 L 762.785156 2181.980469 L 755.558594 2183.921875 Z M 678.597656 1838.871094 L 766.148438 2165.558594 L 1030.441406 2094.480469 L 943.023438 1768.210938 C 938.027344 1749.621094 925.945312 1734.808594 910.484375 1725.878906 C 894.996094 1716.929688 876.085938 1713.878906 857.511719 1718.820312 L 857.511719 1718.828125 L 727.980469 1753.511719 C 718.964844 1755.929688 710.664062 1760.019531 703.476562 1765.53125 C 696.375 1770.96875 690.316406 1777.859375 685.679688 1785.941406 C 680.988281 1794.109375 678.003906 1802.878906 676.816406 1811.808594 C 675.628906 1820.738281 676.195312 1829.910156 678.597656 1838.871094 "/>
</svg>
