<?xml version="1.0" encoding="UTF-8"?>
<svg xmlns="http://www.w3.org/2000/svg" xmlns:xlink="http://www.w3.org/1999/xlink" width="3000" height="3000" viewBox="0 0 3000 3000">
<path fill-rule="evenodd" fill="rgb(95.3125%, 56.054688%, 25.488281%)" fill-opacity="1" d="M 1500 0 C 2328.429688 0 3000 671.570312 3000 1500 C 3000 2328.429688 2328.429688 3000 1500 3000 C 671.570312 3000 0 2328.429688 0 1500 C 0 671.570312 671.570312 0 1500 0 "/>
<path fill-rule="evenodd" fill="rgb(90.234375%, 90.234375%, 90.234375%)" fill-opacity="1" d="M 1991.878906 2459.996094 L 1007.96875 2459.996094 C 924.105469 2459.996094 855.792969 2391.6875 855.792969 2307.816406 L 855.789062 692.179688 C 855.789062 608.308594 924.101562 540 1007.96875 540 L 1992.039062 540 C 2075.898438 540 2144.21875 608.308594 2144.21875 692.179688 L 2144.21875 2307.8125 C 2144.21875 2391.773438 2075.808594 2459.996094 1991.878906 2459.996094 Z M 1768.449219 1015.101562 C 1769.460938 1014.429688 1770.488281 1013.789062 1771.519531 1013.160156 L 1773.238281 1012.140625 L 1773.480469 1012 L 1774.988281 1011.148438 L 1775.199219 1011.03125 L 1776.210938 1010.5 L 1777.109375 1010.011719 L 1778.109375 1009.511719 L 1779.121094 1009 L 1780.039062 1008.550781 L 1781.050781 1008.078125 L 1782.140625 1007.578125 L 1782.199219 1007.558594 L 1783.980469 1006.78125 L 1784.050781 1006.75 L 1785.921875 1005.980469 L 1787.238281 1005.46875 L 1787.980469 1005.191406 L 1789.371094 1004.691406 L 1789.910156 1004.5 L 1791.429688 1003.988281 L 1791.910156 1003.828125 L 1793.53125 1003.320312 L 1793.808594 1003.238281 L 1795.539062 1002.730469 L 1795.558594 1002.730469 L 1797.460938 1002.210938 L 1797.539062 1002.199219 L 1799.539062 1001.710938 L 1799.539062 951.03125 C 1799.539062 938.769531 1809.511719 928.96875 1821.609375 928.96875 C 1833.71875 928.96875 1843.679688 938.769531 1843.679688 951.03125 L 1843.679688 1001.699219 L 1845.679688 1002.191406 C 1846.921875 1002.511719 1848.148438 1002.859375 1849.371094 1003.21875 L 1849.769531 1003.339844 L 1851.148438 1003.769531 L 1852.03125 1004.058594 L 1853.308594 1004.488281 L 1853.828125 1004.679688 L 1855.410156 1005.238281 L 1855.488281 1005.28125 L 1857.320312 1005.980469 L 1859.199219 1006.75 L 1859.308594 1006.800781 L 1861.058594 1007.558594 L 1862.710938 1008.320312 L 1862.988281 1008.460938 L 1864.429688 1009.160156 L 1864.910156 1009.390625 L 1866.410156 1010.171875 L 1866.691406 1010.308594 L 1868.160156 1011.101562 L 1868.78125 1011.441406 L 1870.019531 1012.140625 L 1870.039062 1012.148438 C 1871.628906 1013.070312 1873.179688 1014.039062 1874.71875 1015.058594 L 1875.320312 1015.449219 L 1876.710938 1016.398438 L 1876.851562 1016.5 L 1878.109375 1017.390625 L 1879.019531 1018.058594 L 1879.828125 1018.660156 L 1880.558594 1019.21875 L 1881.601562 1020.019531 L 1883.148438 1021.28125 L 1884.171875 1022.128906 L 1884.679688 1022.558594 L 1885 1022.839844 L 1886.179688 1023.878906 L 1886.359375 1024.050781 L 1887.371094 1024.96875 L 1887.898438 1025.460938 L 1888.808594 1026.328125 L 1889.628906 1027.140625 L 1890.351562 1027.851562 L 1890.851562 1028.359375 L 1891.898438 1029.441406 L 1893.261719 1030.910156 L 1893.308594 1030.960938 L 1894.589844 1032.390625 L 1894.851562 1032.699219 L 1895.300781 1033.230469 L 1896.070312 1034.140625 L 1896.839844 1035.078125 L 1897.378906 1035.75 L 1898.191406 1036.769531 L 1898.769531 1037.539062 L 1899.398438 1038.371094 L 1900.179688 1039.441406 L 1900.601562 1040.019531 L 1900.761719 1040.238281 L 1901.890625 1041.890625 L 1901.929688 1041.941406 L 1903 1043.558594 L 1903.070312 1043.671875 L 1903.828125 1044.871094 L 1904.148438 1045.390625 L 1904.800781 1046.46875 L 1905.371094 1047.429688 L 1905.871094 1048.289062 L 1906.578125 1049.558594 L 1906.851562 1050.058594 L 1907.789062 1051.851562 L 1907.898438 1052.039062 L 1908.898438 1054.058594 L 1908.921875 1054.101562 L 1909.761719 1055.878906 L 1909.800781 1055.980469 L 1910.191406 1056.839844 L 1910.769531 1058.179688 L 1910.980469 1058.679688 L 1911.648438 1060.320312 L 1911.859375 1060.851562 L 1912.398438 1062.261719 L 1912.710938 1063.128906 L 1912.808594 1063.390625 L 1913.378906 1065.019531 L 1913.480469 1065.308594 L 1914.109375 1067.25 L 1914.121094 1067.28125 L 1914.691406 1069.210938 L 1914.800781 1069.558594 L 1914.921875 1070.019531 L 1915.371094 1071.679688 L 1915.519531 1072.269531 L 1915.871094 1073.71875 L 1916.101562 1074.699219 L 1916.339844 1075.769531 L 1916.589844 1077.011719 L 1916.628906 1077.199219 L 1916.960938 1078.910156 L 1917.019531 1079.238281 L 1917.351562 1081.289062 L 1917.359375 1081.308594 L 1917.449219 1081.929688 L 1917.679688 1083.640625 L 1917.738281 1084.078125 L 1917.929688 1085.808594 L 1918.019531 1086.621094 L 1918.160156 1088.289062 L 1918.210938 1088.941406 L 1918.300781 1090.371094 L 1918.371094 1091.46875 L 1918.421875 1092.839844 L 1918.441406 1093.671875 L 1918.46875 1096.019531 C 1918.46875 1108.28125 1908.511719 1118.089844 1896.398438 1118.089844 C 1884.300781 1118.089844 1874.339844 1108.28125 1874.339844 1096.019531 C 1874.339844 1066.898438 1850.730469 1043.300781 1821.609375 1043.300781 C 1792.488281 1043.300781 1768.890625 1066.898438 1768.890625 1096.019531 C 1768.890625 1125.140625 1792.488281 1148.738281 1821.609375 1148.738281 C 1875.101562 1148.738281 1918.46875 1192.269531 1918.46875 1245.601562 L 1918.441406 1247.949219 L 1918.421875 1248.578125 L 1918.351562 1250.378906 L 1918.320312 1250.910156 L 1918.210938 1252.601562 L 1918.128906 1253.628906 L 1918.039062 1254.660156 L 1917.921875 1255.878906 L 1917.789062 1256.988281 L 1917.648438 1258.191406 L 1917.640625 1258.261719 L 1917.351562 1260.308594 L 1917.351562 1260.320312 C 1917.121094 1261.820312 1916.851562 1263.308594 1916.550781 1264.78125 L 1916.398438 1265.53125 L 1916.050781 1267.121094 L 1915.898438 1267.71875 L 1915.511719 1269.320312 L 1915.320312 1270.070312 L 1915.011719 1271.210938 L 1914.699219 1272.339844 L 1914.679688 1272.398438 L 1914.101562 1274.339844 L 1914.101562 1274.359375 C 1913.640625 1275.808594 1913.148438 1277.25 1912.628906 1278.671875 L 1912.429688 1279.199219 L 1911.898438 1280.601562 L 1911.511719 1281.578125 L 1911.050781 1282.699219 L 1910.710938 1283.5 L 1910.109375 1284.871094 L 1909.828125 1285.511719 L 1908.890625 1287.519531 L 1908.878906 1287.539062 L 1907.980469 1289.351562 L 1907.960938 1289.378906 L 1907.488281 1290.28125 L 1906.859375 1291.480469 L 1906.738281 1291.691406 L 1906.078125 1292.890625 L 1905.898438 1293.210938 L 1905.308594 1294.238281 L 1904.761719 1295.160156 L 1904.21875 1296.050781 L 1903.429688 1297.320312 L 1903.171875 1297.730469 L 1902.96875 1298.039062 L 1901.890625 1299.679688 L 1901.859375 1299.710938 L 1900.730469 1301.351562 L 1900.550781 1301.601562 L 1899.550781 1302.96875 L 1899.429688 1303.128906 L 1898.761719 1304.03125 L 1898.089844 1304.898438 L 1897.191406 1306.039062 L 1897.039062 1306.230469 L 1895.898438 1307.609375 L 1895.648438 1307.898438 L 1894.550781 1309.199219 L 1893.25 1310.660156 L 1893.21875 1310.691406 L 1891.859375 1312.148438 L 1891.660156 1312.359375 L 1890.46875 1313.589844 L 1890.269531 1313.789062 L 1889.558594 1314.488281 L 1888.78125 1315.25 L 1887.851562 1316.140625 L 1887.261719 1316.691406 L 1886.371094 1317.5 L 1885.609375 1318.179688 L 1884.671875 1319 L 1884.449219 1319.191406 L 1883.109375 1320.308594 L 1881.558594 1321.570312 L 1881.339844 1321.75 L 1879.980469 1322.800781 L 1879.890625 1322.859375 L 1878.761719 1323.699219 L 1878.109375 1324.179688 L 1876.988281 1324.96875 L 1876.449219 1325.351562 L 1875.179688 1326.210938 L 1874.910156 1326.390625 L 1873.410156 1327.371094 L 1871.761719 1328.390625 L 1871.710938 1328.421875 L 1869.980469 1329.449219 L 1868.46875 1330.308594 L 1868.128906 1330.488281 L 1866.78125 1331.21875 L 1866.300781 1331.480469 L 1864.941406 1332.179688 L 1864.300781 1332.488281 L 1863.070312 1333.089844 L 1862.410156 1333.398438 L 1861.03125 1334.039062 L 1859.25 1334.820312 L 1859.179688 1334.851562 L 1857.300781 1335.621094 L 1857.058594 1335.710938 L 1855.410156 1336.351562 L 1855.289062 1336.390625 L 1853.648438 1336.980469 L 1853.398438 1337.070312 L 1851.859375 1337.601562 L 1851.28125 1337.789062 C 1849.441406 1338.390625 1847.570312 1338.929688 1845.679688 1339.410156 L 1843.679688 1339.898438 L 1843.679688 1390.421875 C 1843.679688 1402.53125 1833.71875 1412.488281 1821.609375 1412.488281 C 1809.511719 1412.488281 1799.539062 1402.679688 1799.539062 1390.421875 L 1799.539062 1339.921875 L 1797.539062 1339.429688 L 1795.75 1338.949219 L 1795.53125 1338.890625 L 1794.019531 1338.449219 L 1793.390625 1338.261719 L 1791.878906 1337.789062 L 1791.378906 1337.621094 L 1789.988281 1337.148438 L 1789.210938 1336.878906 L 1787.941406 1336.421875 L 1787.800781 1336.371094 L 1786.101562 1335.710938 L 1785.898438 1335.640625 L 1784.019531 1334.859375 L 1783.921875 1334.820312 L 1783.460938 1334.621094 L 1781.929688 1333.949219 L 1781.128906 1333.578125 L 1780.058594 1333.078125 L 1778.828125 1332.480469 L 1778.300781 1332.21875 L 1776.929688 1331.519531 L 1776.351562 1331.210938 L 1774.980469 1330.46875 L 1774.839844 1330.398438 L 1773.210938 1329.46875 L 1771.480469 1328.449219 L 1771.390625 1328.390625 L 1769.78125 1327.390625 L 1769.738281 1327.371094 L 1768.648438 1326.660156 L 1767.769531 1326.070312 L 1766.949219 1325.511719 L 1766.128906 1324.949219 L 1764.960938 1324.109375 L 1764.53125 1323.800781 L 1763.371094 1322.941406 L 1763.210938 1322.820312 L 1761.820312 1321.75 L 1761.628906 1321.589844 L 1760.070312 1320.339844 L 1759.078125 1319.5 L 1758.550781 1319.050781 L 1758.230469 1318.78125 L 1757.78125 1318.378906 L 1756.730469 1317.441406 L 1756.101562 1316.871094 L 1755.171875 1316.011719 L 1754.421875 1315.289062 L 1753.769531 1314.648438 L 1752.78125 1313.679688 L 1752.710938 1313.601562 L 1751.5 1312.359375 L 1751.328125 1312.171875 L 1749.96875 1310.710938 L 1749.921875 1310.660156 L 1748.640625 1309.21875 L 1748.621094 1309.191406 L 1747.800781 1308.238281 L 1747.148438 1307.46875 L 1746.46875 1306.640625 L 1745.628906 1305.578125 L 1745.28125 1305.148438 L 1744.320312 1303.898438 L 1743.761719 1303.148438 L 1743.640625 1302.988281 L 1742.628906 1301.601562 L 1742.46875 1301.371094 L 1741.328125 1299.730469 L 1741.300781 1299.679688 L 1740.230469 1298.058594 L 1740.011719 1297.730469 L 1739.679688 1297.199219 L 1738.929688 1296 L 1738.558594 1295.378906 L 1737.691406 1293.898438 L 1737.511719 1293.578125 L 1736.640625 1292.03125 L 1736.339844 1291.488281 L 1735.480469 1289.859375 L 1735.328125 1289.570312 L 1734.328125 1287.558594 L 1734.308594 1287.519531 L 1733.351562 1285.460938 L 1733.191406 1285.109375 L 1732.460938 1283.429688 L 1732.238281 1282.910156 L 1731.621094 1281.410156 L 1731.320312 1280.640625 L 1730.890625 1279.5 L 1730.480469 1278.410156 L 1730.421875 1278.230469 L 1729.839844 1276.601562 L 1729.75 1276.308594 L 1729.121094 1274.371094 L 1729.109375 1274.339844 L 1728.53125 1272.410156 L 1728.429688 1272.058594 L 1728.320312 1271.640625 L 1727.859375 1269.929688 L 1727.710938 1269.351562 L 1727.359375 1267.898438 L 1727.128906 1266.941406 L 1726.851562 1265.648438 L 1726.671875 1264.820312 L 1726.339844 1263.070312 L 1726.269531 1262.699219 L 1726.210938 1262.378906 L 1725.878906 1260.328125 L 1725.871094 1260.308594 L 1725.78125 1259.691406 L 1725.539062 1257.980469 L 1725.488281 1257.539062 L 1725.300781 1255.808594 L 1725.210938 1255 L 1725.070312 1253.328125 L 1725.019531 1252.679688 L 1724.921875 1251.25 L 1724.859375 1250.148438 L 1724.808594 1248.78125 L 1724.789062 1247.949219 L 1724.761719 1245.601562 C 1724.761719 1233.339844 1734.71875 1223.53125 1746.828125 1223.53125 C 1758.929688 1223.53125 1768.898438 1233.339844 1768.898438 1245.601562 C 1768.898438 1274.71875 1792.5 1298.320312 1821.621094 1298.320312 C 1850.738281 1298.320312 1874.339844 1274.71875 1874.339844 1245.601562 C 1874.339844 1216.480469 1850.738281 1192.878906 1821.621094 1192.878906 C 1768.128906 1192.878906 1724.761719 1149.351562 1724.761719 1096.019531 L 1724.789062 1093.660156 L 1724.808594 1093.039062 L 1724.878906 1091.21875 L 1724.910156 1090.710938 L 1725.019531 1088.988281 L 1725.101562 1087.980469 L 1725.191406 1086.941406 L 1725.308594 1085.699219 L 1725.429688 1084.609375 L 1725.578125 1083.398438 L 1725.589844 1083.328125 L 1725.878906 1081.269531 L 1725.878906 1081.261719 L 1726.28125 1078.910156 L 1726.320312 1078.671875 L 1726.671875 1076.828125 L 1726.839844 1076 L 1727.179688 1074.449219 L 1727.320312 1073.828125 L 1727.710938 1072.289062 L 1727.910156 1071.46875 L 1728.210938 1070.398438 L 1728.53125 1069.21875 L 1728.550781 1069.160156 L 1729.128906 1067.21875 L 1729.128906 1067.199219 C 1729.589844 1065.75 1730.078125 1064.308594 1730.601562 1062.890625 L 1730.808594 1062.320312 L 1731.308594 1061.011719 L 1731.730469 1059.941406 L 1732.179688 1058.851562 L 1732.519531 1058.039062 L 1733.03125 1056.878906 L 1733.429688 1055.960938 L 1733.488281 1055.828125 L 1734.339844 1054.03125 L 1734.351562 1054.011719 L 1735.25 1052.199219 L 1735.269531 1052.171875 L 1735.820312 1051.109375 L 1736.339844 1050.128906 L 1736.710938 1049.441406 L 1737.449219 1048.140625 L 1737.878906 1047.378906 L 1738.429688 1046.449219 L 1739.070312 1045.390625 L 1739.558594 1044.621094 L 1740.199219 1043.601562 L 1740.261719 1043.511719 L 1741.339844 1041.871094 L 1741.371094 1041.839844 L 1742.5 1040.191406 L 1742.679688 1039.949219 L 1743.679688 1038.578125 L 1743.78125 1038.441406 L 1744.46875 1037.519531 L 1745.171875 1036.601562 L 1745.839844 1035.761719 L 1746.441406 1035.019531 L 1747.179688 1034.121094 L 1748.050781 1033.089844 L 1748.429688 1032.640625 L 1748.679688 1032.359375 L 1749.980469 1030.898438 L 1750.011719 1030.871094 L 1751.371094 1029.410156 L 1751.570312 1029.199219 L 1752.75 1027.96875 L 1752.941406 1027.789062 L 1753.78125 1026.960938 L 1754.398438 1026.351562 L 1755.390625 1025.410156 L 1755.890625 1024.941406 L 1756.96875 1023.960938 L 1757.441406 1023.550781 L 1758.558594 1022.558594 L 1758.589844 1022.539062 L 1760.070312 1021.28125 L 1761.671875 1020 L 1761.890625 1019.820312 L 1763.25 1018.78125 L 1763.460938 1018.621094 L 1764.371094 1017.949219 L 1765.148438 1017.378906 L 1766.078125 1016.710938 L 1766.941406 1016.121094 L 1767.980469 1015.410156 Z M 1506.359375 815.25 L 1310.808594 815.25 C 1275.550781 815.25 1246.898438 786.589844 1246.898438 751.339844 C 1246.898438 716.089844 1275.550781 687.429688 1310.808594 687.429688 L 1506.359375 687.429688 C 1541.621094 687.429688 1570.269531 716.089844 1570.269531 751.339844 C 1570.429688 786.589844 1541.621094 815.25 1506.359375 815.25 Z M 1677.089844 827.050781 C 1635.25 827.050781 1601.230469 793.03125 1601.230469 751.339844 C 1601.230469 709.660156 1635.398438 675.480469 1677.089844 675.480469 C 1718.78125 675.480469 1752.949219 709.5 1752.949219 751.191406 C 1752.949219 792.871094 1718.929688 827.050781 1677.089844 827.050781 Z M 1742.691406 2339.691406 L 1257.171875 2339.691406 C 1234.828125 2339.691406 1216.710938 2321.558594 1216.710938 2299.230469 C 1216.710938 2276.910156 1234.828125 2258.777344 1257.171875 2258.777344 L 1742.691406 2258.777344 C 1764.941406 2258.777344 1783.140625 2276.976562 1783.140625 2299.230469 C 1783.140625 2321.558594 1765.03125 2339.691406 1742.691406 2339.691406 Z M 1523.53125 2071.035156 C 1463.371094 2071.035156 1407.269531 2053.425781 1360.109375 2023.089844 C 1361.71875 2005.523438 1364.558594 1975.128906 1364.96875 1972.410156 C 1373.921875 1912.921875 1415.851562 1862.800781 1473.109375 1843.910156 C 1505.289062 1856.46875 1541.921875 1856.46875 1574.101562 1843.910156 C 1633.421875 1863.628906 1676.289062 1916.558594 1683.070312 1978.859375 C 1683.179688 1979.910156 1686.421875 2004.738281 1688.640625 2021.972656 C 1641.128906 2052.980469 1584.410156 2071.035156 1523.53125 2071.035156 Z M 1399.390625 1056.011719 L 1103.449219 1056.011719 C 1081.039062 1056.011719 1063 1037.960938 1063 1015.558594 C 1063 993.148438 1081.039062 975.101562 1103.449219 975.101562 L 1399.390625 975.101562 C 1421.800781 975.101562 1439.851562 993.148438 1439.851562 1015.558594 C 1439.851562 1037.960938 1421.800781 1056.011719 1399.390625 1056.011719 Z M 1768.449219 1015.101562 C 1769.460938 1014.429688 1770.480469 1013.789062 1771.519531 1013.160156 Z M 1399.390625 1211.109375 L 1103.449219 1211.109375 C 1081.039062 1211.109375 1063 1193.058594 1063 1170.648438 C 1063 1148.238281 1081.039062 1130.191406 1103.449219 1130.191406 L 1399.390625 1130.191406 C 1421.800781 1130.191406 1439.851562 1148.238281 1439.851562 1170.648438 C 1439.851562 1193.058594 1421.800781 1211.109375 1399.390625 1211.109375 Z M 1399.390625 1366.359375 L 1103.449219 1366.359375 C 1081.039062 1366.359375 1063 1348.308594 1063 1325.898438 C 1063 1303.488281 1081.039062 1285.441406 1103.449219 1285.441406 L 1399.390625 1285.441406 C 1421.800781 1285.441406 1439.851562 1303.488281 1439.851562 1325.898438 C 1439.851562 1348.308594 1421.800781 1366.359375 1399.390625 1366.359375 Z M 1318.761719 1991.148438 C 1258.511719 1935.761719 1220.691406 1856.339844 1220.691406 1768.199219 C 1220.691406 1601.148438 1356.480469 1465.359375 1523.53125 1465.359375 C 1690.578125 1465.359375 1826.359375 1601.148438 1826.359375 1768.199219 C 1826.359375 1856.050781 1788.800781 1935.25 1728.890625 1990.601562 C 1727.769531 1981.960938 1726.921875 1975.351562 1726.859375 1974.75 C 1718.21875 1891.890625 1659.238281 1821.660156 1578.691406 1799.160156 C 1573.628906 1797.769531 1568.269531 1798.238281 1563.519531 1800.378906 C 1538.390625 1812.03125 1508.660156 1812.03125 1483.519531 1800.378906 C 1478.78125 1798.238281 1473.410156 1797.78125 1468.351562 1799.160156 C 1390.429688 1820.921875 1332.710938 1887.339844 1321.191406 1966.671875 C 1320.929688 1968.488281 1319.898438 1979.039062 1318.761719 1991.148438 Z M 1523.53125 1789.039062 C 1471.109375 1789.039062 1428.511719 1746.441406 1428.511719 1694.03125 C 1428.511719 1641.609375 1471.109375 1599 1523.53125 1599 C 1575.941406 1599 1618.550781 1641.609375 1618.550781 1694.03125 C 1618.550781 1746.441406 1575.941406 1789.039062 1523.53125 1789.039062 Z M 1523.53125 1642.988281 C 1495.480469 1642.988281 1472.648438 1665.820312 1472.648438 1693.871094 C 1472.648438 1721.921875 1495.480469 1744.75 1523.53125 1744.75 C 1551.578125 1744.75 1574.410156 1721.921875 1574.410156 1693.871094 C 1574.410156 1665.820312 1551.578125 1642.988281 1523.53125 1642.988281 Z M 1007.96875 620.921875 C 968.625 620.921875 936.707031 652.828125 936.707031 692.179688 L 936.707031 2307.8125 C 936.707031 2347.078125 968.695312 2379.074219 1007.96875 2379.074219 L 1992.039062 2379.078125 C 2031.300781 2379.078125 2063.300781 2347.09375 2063.300781 2307.816406 L 2063.300781 692.179688 C 2063.300781 652.828125 2031.378906 620.921875 1992.039062 620.921875 L 1007.96875 620.921875 "/>
<path fill-rule="nonzero" fill="rgb(0%, 0%, 0%)" fill-opacity="1" d="M 1991.878906 2467.5 L 1007.96875 2467.5 C 963.972656 2467.5 924.050781 2449.574219 895.132812 2420.65625 C 866.214844 2391.742188 848.289062 2351.816406 848.289062 2307.816406 L 848.320312 2307.816406 L 848.316406 692.179688 L 848.285156 692.179688 C 848.285156 648.191406 866.210938 608.261719 895.128906 579.339844 C 924.046875 550.429688 963.96875 532.5 1007.96875 532.5 L 1992.039062 532.5 C 2036.039062 532.5 2075.960938 550.429688 2104.878906 579.339844 C 2133.789062 608.261719 2151.71875 648.191406 2151.71875 692.179688 L 2151.71875 2307.8125 C 2151.71875 2351.828125 2133.769531 2391.742188 2104.820312 2420.660156 C 2075.878906 2449.589844 2035.910156 2467.5 1991.878906 2467.5 Z M 1007.96875 2452.492188 L 1991.878906 2452.492188 C 2031.808594 2452.492188 2068.039062 2436.265625 2094.269531 2410.058594 C 2120.46875 2383.886719 2136.710938 2347.726562 2136.710938 2307.8125 L 2136.710938 692.179688 C 2136.710938 652.320312 2120.46875 616.140625 2094.269531 589.949219 C 2068.078125 563.75 2031.898438 547.511719 1992.039062 547.511719 L 1007.96875 547.511719 C 968.101562 547.511719 931.929688 563.75 905.730469 589.949219 C 879.53125 616.140625 863.289062 652.320312 863.289062 692.179688 L 863.257812 692.179688 L 863.265625 2307.816406 L 863.296875 2307.816406 C 863.296875 2347.683594 879.535156 2383.859375 905.734375 2410.054688 C 931.933594 2436.253906 968.105469 2452.492188 1007.96875 2452.492188 Z M 1764.410156 1008.800781 L 1765.929688 1007.820312 L 1766.019531 1007.761719 L 1767.558594 1006.800781 L 1767.710938 1006.710938 L 1769.429688 1005.691406 L 1769.460938 1005.691406 L 1769.699219 1005.550781 L 1769.808594 1005.46875 L 1771.328125 1004.621094 L 1771.449219 1004.558594 L 1771.660156 1004.441406 L 1771.691406 1004.441406 L 1772.691406 1003.910156 L 1772.691406 1003.878906 L 1773.601562 1003.390625 L 1773.71875 1003.359375 L 1774.710938 1002.851562 L 1774.800781 1002.789062 L 1775.808594 1002.289062 L 1775.839844 1002.289062 L 1776.761719 1001.839844 L 1776.898438 1001.75 L 1777.910156 1001.28125 L 1777.949219 1001.28125 L 1779.039062 1000.78125 L 1779.210938 1000.699219 L 1780.988281 999.921875 L 1781.199219 999.828125 L 1781.269531 999.808594 L 1781.269531 999.820312 L 1783.109375 999.070312 L 1783.230469 999.011719 L 1784.539062 998.5 L 1784.570312 998.46875 L 1785.320312 998.191406 L 1785.460938 998.160156 L 1786.851562 997.660156 L 1786.878906 997.628906 L 1787.421875 997.441406 L 1787.511719 997.410156 L 1789.03125 996.898438 L 1789.148438 996.859375 L 1789.628906 996.710938 L 1789.660156 996.679688 L 1791.269531 996.171875 L 1791.421875 996.140625 L 1791.699219 996.058594 L 1791.730469 996.058594 L 1792.039062 995.96875 L 1792.039062 951.03125 C 1792.039062 942.851562 1795.371094 935.46875 1800.699219 930.140625 C 1806.058594 924.78125 1813.480469 921.460938 1821.609375 921.460938 C 1829.738281 921.460938 1837.160156 924.769531 1842.53125 930.140625 C 1847.859375 935.46875 1851.191406 942.851562 1851.191406 951.03125 L 1851.191406 995.941406 L 1851.511719 996.039062 L 1851.5 996.050781 L 1851.878906 996.160156 L 1852 996.191406 L 1853.378906 996.621094 L 1853.441406 996.648438 L 1854.320312 996.941406 L 1854.429688 996.96875 L 1855.710938 997.398438 L 1855.800781 997.429688 L 1856.320312 997.621094 L 1856.351562 997.640625 L 1857.929688 998.210938 L 1858.308594 998.359375 L 1858.398438 998.390625 L 1858.390625 998.398438 L 1859.988281 999.011719 L 1860.171875 999.070312 L 1861.980469 999.808594 L 1862.089844 999.851562 L 1862.300781 999.941406 L 1864.050781 1000.699219 L 1864.191406 1000.761719 L 1865.839844 1001.519531 L 1866.128906 1001.660156 L 1866.238281 1001.710938 L 1867.679688 1002.410156 L 1867.769531 1002.480469 L 1868.25 1002.71875 L 1868.308594 1002.738281 L 1869.808594 1003.511719 L 1869.839844 1003.511719 L 1870.121094 1003.648438 L 1870.199219 1003.71875 L 1871.671875 1004.5 L 1871.820312 1004.589844 L 1872.441406 1004.941406 L 1873.5 1005.539062 L 1873.789062 1005.679688 C 1874.429688 1006.050781 1875.320312 1006.589844 1876.320312 1007.210938 C 1877.050781 1007.660156 1877.910156 1008.21875 1878.820312 1008.808594 L 1879.429688 1009.210938 L 1879.550781 1009.269531 L 1880.929688 1010.21875 L 1880.960938 1010.25 L 1881.101562 1010.351562 L 1881.160156 1010.398438 L 1882.421875 1011.289062 L 1882.539062 1011.351562 L 1883.449219 1012.019531 L 1883.480469 1012.050781 L 1884.28125 1012.648438 L 1884.398438 1012.738281 L 1885.128906 1013.300781 L 1886.171875 1014.109375 L 1886.289062 1014.199219 L 1887.839844 1015.449219 L 1887.960938 1015.558594 L 1888.96875 1016.421875 L 1889.011719 1016.421875 L 1889.519531 1016.851562 L 1889.570312 1016.910156 L 1889.890625 1017.179688 L 1889.949219 1017.238281 L 1891.128906 1018.28125 L 1891.25 1018.398438 L 1891.378906 1018.53125 L 1891.398438 1018.511719 L 1892.410156 1019.441406 L 1892.46875 1019.488281 L 1893 1019.980469 L 1893.050781 1020.039062 L 1893.960938 1020.910156 L 1894.050781 1020.988281 L 1894.878906 1021.800781 L 1894.941406 1021.839844 L 1895.648438 1022.550781 L 1895.679688 1022.609375 L 1896.191406 1023.121094 L 1896.238281 1023.179688 L 1897.289062 1024.261719 L 1897.378906 1024.351562 L 1898.558594 1025.609375 L 1898.609375 1025.660156 L 1898.910156 1025.980469 L 1900.179688 1027.410156 L 1900.238281 1027.5 L 1900.511719 1027.808594 L 1900.570312 1027.890625 L 1901 1028.410156 L 1901.011719 1028.398438 L 1901.78125 1029.308594 L 1901.839844 1029.398438 L 1902.609375 1030.339844 L 1902.671875 1030.398438 L 1903.210938 1031.058594 L 1903.238281 1031.121094 L 1904.050781 1032.148438 L 1904.140625 1032.238281 L 1904.71875 1033 L 1904.75 1033.019531 L 1905.378906 1033.859375 L 1905.429688 1033.980469 L 1906.210938 1035.039062 L 1906.238281 1035.039062 L 1906.660156 1035.628906 L 1906.730469 1035.738281 L 1906.878906 1035.960938 L 1906.910156 1036 L 1907.949219 1037.5 L 1907.960938 1037.488281 L 1907.988281 1037.539062 L 1908.171875 1037.800781 L 1909.238281 1039.421875 L 1909.390625 1039.628906 L 1909.460938 1039.75 L 1909.449219 1039.761719 L 1910.148438 1040.878906 L 1910.480469 1041.398438 L 1910.570312 1041.519531 L 1911.21875 1042.601562 L 1911.25 1042.660156 L 1911.820312 1043.621094 L 1911.851562 1043.679688 L 1912.339844 1044.539062 L 1912.398438 1044.648438 L 1913.109375 1045.929688 L 1913.140625 1045.949219 L 1913.410156 1046.449219 L 1913.46875 1046.570312 L 1914.421875 1048.371094 L 1914.398438 1048.371094 L 1914.488281 1048.53125 L 1914.609375 1048.699219 L 1915.609375 1050.71875 L 1915.699219 1050.949219 L 1916.519531 1052.71875 L 1916.578125 1052.800781 L 1916.628906 1052.898438 L 1916.628906 1052.929688 L 1917.011719 1053.800781 L 1917.039062 1053.851562 L 1917.628906 1055.191406 L 1917.660156 1055.25 L 1917.871094 1055.75 L 1917.929688 1055.871094 L 1918.589844 1057.5 L 1918.589844 1057.53125 L 1918.808594 1058.070312 L 1918.859375 1058.210938 L 1919.398438 1059.628906 L 1919.429688 1059.691406 L 1919.75 1060.550781 L 1919.738281 1060.558594 L 1919.808594 1060.75 L 1919.871094 1060.921875 L 1920.441406 1062.550781 L 1920.46875 1062.671875 L 1920.570312 1062.960938 L 1920.601562 1063.019531 L 1921.230469 1064.960938 L 1921.289062 1065.140625 L 1921.300781 1065.140625 L 1921.308594 1065.191406 L 1921.320312 1065.199219 L 1921.328125 1065.230469 L 1921.871094 1067.070312 L 1921.898438 1067.148438 L 1922 1067.511719 L 1922.03125 1067.601562 L 1922.160156 1068.050781 L 1922.609375 1069.71875 L 1922.640625 1069.890625 L 1922.789062 1070.480469 L 1922.789062 1070.511719 L 1923.140625 1071.960938 L 1923.171875 1072.019531 L 1923.398438 1073 L 1923.429688 1073.121094 L 1923.660156 1074.191406 L 1923.660156 1074.25 L 1923.921875 1075.480469 L 1923.921875 1075.511719 L 1923.960938 1075.710938 L 1923.988281 1075.820312 L 1924.308594 1077.539062 L 1924.339844 1077.621094 L 1924.398438 1077.949219 L 1924.398438 1078.039062 L 1924.738281 1080.089844 L 1924.730469 1080.089844 L 1924.769531 1080.25 L 1924.859375 1080.871094 L 1924.859375 1080.898438 L 1925.101562 1082.609375 L 1925.128906 1082.761719 L 1925.179688 1083.210938 L 1925.179688 1083.261719 L 1925.371094 1084.988281 L 1925.371094 1085.039062 L 1925.460938 1085.859375 L 1925.488281 1085.96875 L 1925.628906 1087.640625 L 1925.628906 1087.761719 L 1925.679688 1088.410156 L 1925.679688 1088.46875 L 1925.78125 1089.898438 L 1925.78125 1089.960938 L 1925.839844 1091.058594 L 1925.839844 1091.210938 L 1925.890625 1092.578125 L 1925.890625 1092.609375 L 1925.910156 1093.429688 L 1925.910156 1093.578125 L 1925.941406 1095.929688 L 1925.980469 1096.019531 C 1925.980469 1104.199219 1922.648438 1111.578125 1917.320312 1116.921875 C 1911.949219 1122.28125 1904.53125 1125.589844 1896.398438 1125.589844 C 1888.300781 1125.589844 1880.878906 1122.28125 1875.511719 1116.898438 L 1875.488281 1116.921875 C 1870.160156 1111.578125 1866.828125 1104.199219 1866.828125 1096.019531 C 1866.828125 1083.53125 1861.769531 1072.21875 1853.589844 1064.039062 C 1845.421875 1055.859375 1834.109375 1050.800781 1821.609375 1050.800781 C 1809.121094 1050.800781 1797.808594 1055.859375 1789.628906 1064.039062 C 1781.460938 1072.21875 1776.390625 1083.53125 1776.390625 1096.019531 C 1776.390625 1108.519531 1781.449219 1119.828125 1789.621094 1128.019531 L 1789.628906 1128 C 1797.808594 1136.179688 1809.121094 1141.238281 1821.609375 1141.238281 C 1850.398438 1141.238281 1876.480469 1152.949219 1895.359375 1171.828125 L 1895.359375 1171.859375 C 1914.269531 1190.769531 1925.96875 1216.871094 1925.96875 1245.601562 L 1925.941406 1245.691406 L 1925.910156 1248.039062 L 1925.910156 1248.160156 L 1925.890625 1248.789062 L 1925.890625 1248.878906 L 1925.820312 1250.671875 L 1925.820312 1250.820312 L 1925.789062 1251.339844 L 1925.789062 1251.378906 L 1925.679688 1253.070312 L 1925.679688 1253.160156 L 1925.601562 1254.179688 L 1925.570312 1254.269531 L 1925.480469 1255.308594 L 1925.480469 1255.390625 L 1925.359375 1256.609375 L 1925.359375 1256.699219 L 1925.238281 1257.808594 L 1925.238281 1257.898438 L 1925.089844 1259.101562 L 1925.078125 1259.171875 L 1925.050781 1259.308594 L 1924.761719 1261.371094 L 1924.75 1261.371094 L 1924.730469 1261.550781 L 1924.359375 1263.789062 L 1924.328125 1263.96875 L 1923.898438 1266.191406 L 1923.878906 1266.269531 L 1923.71875 1267.019531 L 1923.71875 1267.140625 L 1923.371094 1268.730469 L 1923.339844 1268.820312 L 1923.199219 1269.421875 L 1923.171875 1269.480469 L 1922.78125 1271.078125 L 1922.78125 1271.160156 L 1922.589844 1271.910156 L 1922.558594 1272.03125 L 1922.25 1273.171875 L 1922.21875 1273.199219 L 1921.910156 1274.328125 L 1921.910156 1274.390625 L 1921.890625 1274.449219 L 1921.859375 1274.539062 L 1921.28125 1276.480469 L 1921.21875 1276.671875 L 1920.511719 1278.839844 L 1920.449219 1279.011719 L 1919.691406 1281.160156 L 1919.628906 1281.28125 L 1919.429688 1281.808594 L 1919.429688 1281.839844 L 1918.910156 1283.230469 L 1918.851562 1283.378906 L 1918.460938 1284.359375 L 1918.421875 1284.429688 L 1917.960938 1285.539062 L 1917.960938 1285.601562 L 1917.628906 1286.398438 L 1917.570312 1286.488281 L 1916.96875 1287.859375 L 1916.941406 1287.890625 L 1916.660156 1288.53125 L 1916.601562 1288.671875 L 1915.71875 1290.550781 L 1915.589844 1290.878906 L 1914.691406 1292.691406 L 1914.660156 1292.691406 L 1914.640625 1292.71875 L 1914.578125 1292.839844 L 1914.109375 1293.738281 L 1914.109375 1293.761719 L 1913.480469 1294.960938 L 1913.371094 1295.179688 L 1913.28125 1295.328125 L 1912.609375 1296.519531 L 1912.589844 1296.578125 L 1912.398438 1296.898438 L 1912.371094 1296.929688 L 1911.78125 1297.960938 L 1911.75 1298.050781 L 1911.199219 1298.96875 L 1911.148438 1299.03125 L 1910.609375 1299.921875 L 1910.578125 1300.011719 L 1909.789062 1301.28125 L 1909.761719 1301.308594 L 1909.5 1301.71875 L 1909.46875 1301.769531 L 1909.269531 1302.078125 L 1909.210938 1302.171875 L 1908.128906 1303.808594 L 1907.980469 1304.019531 L 1907.960938 1304.050781 L 1907.949219 1304.050781 L 1906.878906 1305.601562 L 1906.820312 1305.691406 L 1906.648438 1305.929688 L 1906.621094 1305.988281 L 1905.609375 1307.371094 L 1905.53125 1307.460938 L 1905.410156 1307.621094 L 1904.738281 1308.511719 L 1904.679688 1308.601562 L 1904 1309.46875 L 1903.980469 1309.53125 L 1903.078125 1310.671875 L 1903.019531 1310.730469 L 1902.871094 1310.910156 L 1902.808594 1310.96875 L 1901.671875 1312.359375 L 1901.621094 1312.449219 L 1901.371094 1312.738281 L 1901.339844 1312.769531 L 1900.230469 1314.058594 L 1900.140625 1314.148438 L 1898.851562 1315.609375 L 1898.550781 1315.960938 L 1898.519531 1315.988281 L 1897.339844 1317.25 L 1897.25 1317.339844 L 1897.050781 1317.550781 L 1897.03125 1317.578125 L 1895.839844 1318.800781 L 1895.71875 1318.921875 L 1895.558594 1319.070312 L 1895.570312 1319.089844 L 1894.871094 1319.789062 L 1894.78125 1319.851562 L 1894 1320.621094 L 1893.941406 1320.671875 L 1893 1321.558594 L 1892.941406 1321.621094 L 1892.351562 1322.171875 L 1892.300781 1322.199219 L 1891.410156 1323.011719 L 1891.351562 1323.101562 L 1890.589844 1323.78125 L 1890.53125 1323.808594 L 1889.589844 1324.628906 L 1889.480469 1324.75 L 1889.25 1324.929688 L 1889.238281 1324.921875 L 1887.921875 1326.03125 L 1887.828125 1326.121094 L 1886.28125 1327.371094 L 1886.21875 1327.429688 L 1886 1327.609375 L 1885.910156 1327.660156 L 1884.550781 1328.710938 L 1884.398438 1328.828125 L 1884.320312 1328.890625 L 1883.21875 1329.699219 L 1883.191406 1329.738281 L 1882.53125 1330.21875 L 1882.410156 1330.308594 L 1881.300781 1331.089844 L 1881.269531 1331.089844 L 1880.730469 1331.46875 L 1880.640625 1331.53125 L 1879.371094 1332.390625 L 1879.339844 1332.421875 L 1879.070312 1332.601562 L 1878.980469 1332.660156 L 1877.488281 1333.640625 L 1877.371094 1333.730469 L 1875.71875 1334.75 L 1875.519531 1334.871094 L 1873.789062 1335.890625 L 1873.679688 1335.949219 L 1872.160156 1336.808594 L 1872.070312 1336.871094 L 1871.738281 1337.058594 L 1871.671875 1337.078125 L 1870.320312 1337.808594 L 1869.839844 1338.070312 L 1869.691406 1338.128906 L 1868.339844 1338.828125 L 1868.261719 1338.890625 L 1867.609375 1339.210938 L 1867.578125 1339.238281 L 1866.359375 1339.828125 L 1866.238281 1339.859375 L 1865.570312 1340.171875 L 1865.511719 1340.199219 L 1864.128906 1340.839844 L 1864.039062 1340.890625 L 1862.261719 1341.679688 L 1861.960938 1341.789062 L 1860.148438 1342.53125 L 1860.078125 1342.558594 L 1859.839844 1342.660156 L 1859.730469 1342.691406 L 1858.078125 1343.320312 L 1857.929688 1343.410156 L 1857.808594 1343.449219 L 1857.800781 1343.429688 L 1856.171875 1344.019531 L 1856.121094 1344.039062 L 1855.859375 1344.128906 L 1855.800781 1344.160156 L 1854.261719 1344.691406 L 1854.179688 1344.71875 L 1853.589844 1344.910156 L 1853.558594 1344.910156 L 1851.191406 1345.640625 L 1851.191406 1390.421875 C 1851.191406 1398.539062 1847.851562 1405.941406 1842.488281 1411.300781 C 1837.140625 1416.648438 1829.730469 1419.988281 1821.609375 1419.988281 C 1813.480469 1419.988281 1806.058594 1416.679688 1800.699219 1411.320312 C 1795.371094 1405.980469 1792.039062 1398.601562 1792.039062 1390.421875 L 1792.039062 1345.648438 L 1791.941406 1345.628906 L 1791.910156 1345.628906 L 1791.289062 1345.441406 L 1791.171875 1345.410156 L 1789.660156 1344.941406 L 1789.511719 1344.878906 L 1789.011719 1344.710938 L 1787.609375 1344.238281 L 1787.5 1344.210938 L 1786.71875 1343.941406 L 1786.691406 1343.910156 L 1785.421875 1343.449219 L 1785.390625 1343.449219 L 1785.238281 1343.398438 L 1785.128906 1343.371094 L 1783.429688 1342.71875 L 1783.320312 1342.660156 L 1783.121094 1342.578125 L 1783.058594 1342.550781 L 1781.179688 1341.78125 L 1781.148438 1341.78125 L 1781.050781 1341.730469 L 1780.898438 1341.679688 L 1780.449219 1341.480469 L 1780.449219 1341.46875 L 1778.941406 1340.800781 L 1778.828125 1340.75 L 1778.03125 1340.378906 L 1777.96875 1340.351562 L 1776.898438 1339.851562 L 1776.808594 1339.820312 L 1775.578125 1339.21875 L 1775.460938 1339.160156 L 1774.929688 1338.890625 L 1774.898438 1338.890625 L 1773.53125 1338.199219 L 1773.410156 1338.140625 L 1772.828125 1337.828125 L 1772.808594 1337.800781 L 1771.441406 1337.058594 L 1771.378906 1337.03125 L 1771.238281 1336.960938 L 1771.179688 1336.898438 L 1769.539062 1335.980469 L 1769.398438 1335.910156 L 1767.671875 1334.890625 L 1767.640625 1334.859375 L 1767.550781 1334.808594 L 1767.429688 1334.75 L 1765.820312 1333.75 L 1765.789062 1333.730469 L 1765.671875 1333.640625 L 1764.570312 1332.929688 L 1764.488281 1332.898438 L 1763.609375 1332.308594 L 1763.578125 1332.261719 L 1762.761719 1331.699219 L 1762.699219 1331.671875 L 1761.878906 1331.101562 L 1761.789062 1331.039062 L 1760.621094 1330.210938 L 1760.5 1330.121094 L 1760.070312 1329.800781 L 1758.910156 1328.941406 L 1758.921875 1328.929688 L 1758.808594 1328.851562 L 1758.628906 1328.730469 L 1757.25 1327.660156 L 1757.191406 1327.609375 L 1757 1327.449219 L 1756.910156 1327.421875 L 1755.359375 1326.171875 L 1755.269531 1326.078125 L 1754.269531 1325.238281 L 1754.269531 1325.210938 L 1753.738281 1324.769531 L 1753.679688 1324.738281 L 1753.371094 1324.460938 L 1753.25 1324.378906 L 1752.800781 1323.980469 L 1752.808594 1323.96875 L 1751.769531 1323.039062 L 1751.691406 1322.949219 L 1751.058594 1322.378906 L 1751 1322.351562 L 1750.070312 1321.480469 L 1750.019531 1321.429688 L 1749.261719 1320.710938 L 1749.171875 1320.621094 L 1748.53125 1319.988281 L 1748.5 1319.960938 L 1747.511719 1318.980469 L 1747.480469 1318.980469 L 1747.410156 1318.910156 L 1747.351562 1318.820312 L 1746.140625 1317.578125 L 1746.078125 1317.519531 L 1745.910156 1317.328125 L 1745.851562 1317.269531 L 1744.671875 1316.011719 L 1744.660156 1316.011719 L 1744.621094 1315.960938 L 1744.320312 1315.609375 L 1743.039062 1314.171875 L 1742.960938 1314.078125 L 1742.929688 1314.050781 L 1742.121094 1313.101562 L 1742.089844 1313.070312 L 1741.441406 1312.308594 L 1741.378906 1312.21875 L 1740.699219 1311.390625 L 1740.640625 1311.300781 L 1739.800781 1310.238281 L 1739.769531 1310.238281 L 1739.421875 1309.808594 L 1739.328125 1309.691406 L 1738.371094 1308.441406 L 1738.339844 1308.378906 L 1737.78125 1307.628906 L 1737.660156 1307.46875 L 1737.578125 1307.390625 L 1736.558594 1305.988281 L 1736.5 1305.898438 L 1736.339844 1305.679688 L 1736.320312 1305.621094 L 1735.179688 1303.980469 L 1735.070312 1303.800781 L 1735.058594 1303.808594 L 1733.988281 1302.191406 L 1733.960938 1302.128906 L 1733.738281 1301.808594 L 1733.648438 1301.691406 L 1733.320312 1301.148438 L 1732.570312 1299.949219 L 1732.519531 1299.871094 L 1732.140625 1299.25 L 1732.121094 1299.160156 L 1731.25 1297.679688 L 1731.21875 1297.621094 L 1731.03125 1297.300781 L 1730.96875 1297.238281 L 1730.109375 1295.699219 L 1730.078125 1295.609375 L 1729.78125 1295.058594 L 1729.71875 1294.980469 L 1728.859375 1293.351562 L 1728.859375 1293.320312 L 1728.710938 1293.03125 L 1728.621094 1292.910156 L 1727.621094 1290.898438 L 1727.53125 1290.660156 L 1726.578125 1288.621094 L 1726.550781 1288.558594 L 1726.390625 1288.210938 L 1726.328125 1288.101562 L 1725.601562 1286.421875 L 1725.539062 1286.328125 L 1725.320312 1285.808594 L 1725.320312 1285.75 L 1724.710938 1284.25 L 1724.648438 1284.160156 L 1724.351562 1283.398438 L 1724.320312 1283.308594 L 1723.878906 1282.171875 L 1723.851562 1282.078125 L 1723.449219 1280.988281 L 1723.449219 1280.960938 L 1723.378906 1280.78125 L 1723.359375 1280.691406 L 1722.789062 1279.058594 L 1722.75 1278.941406 L 1722.660156 1278.648438 L 1722.628906 1278.589844 L 1722 1276.648438 L 1722.011719 1276.648438 L 1721.929688 1276.480469 L 1721.351562 1274.550781 L 1721.328125 1274.460938 L 1721.230469 1274.109375 L 1721.230469 1274.050781 L 1721.109375 1273.628906 L 1721.078125 1273.570312 L 1720.621094 1271.871094 L 1720.589844 1271.75 L 1720.441406 1271.160156 L 1720.441406 1271.109375 L 1720.089844 1269.660156 L 1720.058594 1269.601562 L 1719.839844 1268.640625 L 1719.800781 1268.519531 L 1719.519531 1267.230469 L 1719.519531 1267.171875 L 1719.351562 1266.351562 L 1719.320312 1266.199219 L 1718.988281 1264.480469 L 1718.921875 1264.109375 L 1718.890625 1263.988281 L 1718.828125 1263.671875 L 1718.828125 1263.578125 L 1718.488281 1261.53125 L 1718.5 1261.53125 L 1718.460938 1261.371094 L 1718.371094 1260.75 L 1718.371094 1260.71875 L 1718.128906 1259.011719 L 1718.101562 1258.859375 L 1718.050781 1258.410156 L 1718.050781 1258.359375 L 1717.859375 1256.628906 L 1717.859375 1256.578125 L 1717.769531 1255.761719 L 1717.738281 1255.648438 L 1717.589844 1253.980469 L 1717.589844 1253.859375 L 1717.550781 1253.199219 L 1717.550781 1253.148438 L 1717.449219 1251.71875 L 1717.449219 1251.660156 L 1717.390625 1250.558594 L 1717.390625 1250.410156 L 1717.339844 1249.039062 L 1717.339844 1249.011719 L 1717.308594 1248.191406 L 1717.308594 1248.039062 L 1717.28125 1245.691406 L 1717.25 1245.601562 C 1717.25 1237.410156 1720.578125 1230.039062 1725.910156 1224.699219 C 1731.28125 1219.339844 1738.691406 1216.03125 1746.828125 1216.03125 C 1754.960938 1216.03125 1762.378906 1219.339844 1767.738281 1224.699219 C 1773.070312 1230.039062 1776.398438 1237.410156 1776.398438 1245.601562 C 1776.398438 1258.089844 1781.460938 1269.398438 1789.640625 1277.578125 C 1797.808594 1285.75 1809.128906 1290.820312 1821.621094 1290.820312 C 1834.121094 1290.820312 1845.429688 1285.761719 1853.609375 1277.589844 L 1853.601562 1277.578125 C 1861.78125 1269.398438 1866.839844 1258.089844 1866.839844 1245.601562 C 1866.839844 1233.109375 1861.78125 1221.789062 1853.601562 1213.621094 C 1845.421875 1205.441406 1834.109375 1200.378906 1821.621094 1200.378906 C 1792.828125 1200.378906 1766.75 1188.671875 1747.871094 1169.789062 L 1747.871094 1169.761719 C 1728.960938 1150.851562 1717.261719 1124.75 1717.261719 1096.019531 L 1717.289062 1095.929688 L 1717.320312 1093.570312 L 1717.320312 1093.460938 L 1717.339844 1092.828125 L 1717.339844 1092.769531 L 1717.410156 1090.960938 L 1717.410156 1090.78125 L 1717.441406 1090.269531 L 1717.550781 1088.550781 L 1717.550781 1088.410156 L 1717.628906 1087.398438 L 1717.660156 1087.328125 L 1717.75 1086.289062 L 1717.75 1086.238281 L 1717.871094 1085 L 1717.871094 1084.878906 L 1717.988281 1083.789062 L 1717.988281 1083.738281 L 1718.140625 1082.519531 L 1718.171875 1082.429688 L 1718.171875 1082.300781 L 1718.46875 1080.238281 L 1718.480469 1080.238281 L 1718.5 1080.03125 L 1718.890625 1077.671875 L 1718.921875 1077.5 L 1718.96875 1077.269531 L 1719.320312 1075.421875 L 1719.351562 1075.371094 L 1719.519531 1074.539062 L 1719.519531 1074.390625 L 1719.859375 1072.839844 L 1719.890625 1072.78125 L 1720.03125 1072.160156 L 1720.058594 1072.039062 L 1720.441406 1070.5 L 1720.441406 1070.441406 L 1720.648438 1069.628906 L 1720.679688 1069.511719 L 1720.96875 1068.429688 L 1721 1068.429688 L 1721.320312 1067.261719 L 1721.378906 1067.03125 L 1721.371094 1067.019531 L 1721.949219 1065.078125 L 1722.011719 1064.890625 L 1722.71875 1062.710938 L 1722.78125 1062.539062 L 1723.539062 1060.398438 L 1723.601562 1060.28125 L 1723.808594 1059.710938 L 1723.808594 1059.679688 L 1724.300781 1058.378906 L 1724.339844 1058.289062 L 1724.761719 1057.21875 L 1724.808594 1057.070312 L 1725.269531 1055.980469 L 1725.609375 1055.160156 L 1725.660156 1055.050781 L 1726.171875 1053.890625 L 1726.171875 1053.871094 L 1726.578125 1052.949219 L 1726.609375 1052.910156 L 1726.660156 1052.789062 L 1726.71875 1052.640625 L 1727.53125 1050.921875 L 1727.640625 1050.671875 L 1728.539062 1048.859375 L 1728.570312 1048.859375 L 1728.589844 1048.828125 L 1728.640625 1048.679688 L 1729.199219 1047.628906 L 1729.71875 1046.640625 L 1729.769531 1046.519531 L 1730.148438 1045.839844 L 1730.179688 1045.78125 L 1730.910156 1044.480469 L 1730.96875 1044.390625 L 1731.410156 1043.628906 L 1731.441406 1043.609375 L 1731.988281 1042.671875 L 1732.019531 1042.578125 L 1732.648438 1041.53125 L 1732.738281 1041.410156 L 1733.230469 1040.628906 L 1733.878906 1039.609375 L 1733.929688 1039.53125 L 1734.019531 1039.378906 L 1735.101562 1037.738281 L 1735.21875 1037.578125 L 1736.351562 1035.949219 L 1736.410156 1035.859375 L 1736.578125 1035.609375 L 1736.640625 1035.558594 L 1737.640625 1034.179688 L 1737.730469 1034.039062 L 1737.828125 1033.910156 L 1737.839844 1033.910156 L 1738.488281 1033.039062 L 1738.519531 1032.980469 L 1739.230469 1032.058594 L 1739.308594 1031.96875 L 1739.980469 1031.128906 L 1740.011719 1031.070312 L 1740.609375 1030.339844 L 1740.628906 1030.269531 L 1741.371094 1029.371094 L 1741.460938 1029.28125 L 1742.339844 1028.25 L 1742.371094 1028.230469 L 1742.75 1027.769531 L 1742.808594 1027.71875 L 1743.058594 1027.429688 L 1743.078125 1027.371094 L 1744.378906 1025.910156 L 1744.390625 1025.921875 L 1744.53125 1025.769531 L 1745.890625 1024.308594 L 1745.980469 1024.21875 L 1746.179688 1024.011719 L 1746.199219 1023.980469 L 1747.390625 1022.761719 L 1747.449219 1022.671875 L 1747.640625 1022.488281 L 1747.660156 1022.488281 L 1748.5 1021.660156 L 1748.558594 1021.601562 L 1749.179688 1020.988281 L 1749.238281 1020.929688 L 1750.238281 1019.988281 L 1750.289062 1019.929688 L 1750.789062 1019.46875 L 1750.851562 1019.410156 L 1751.929688 1018.429688 L 1752.019531 1018.359375 L 1752.519531 1017.921875 L 1753.640625 1016.941406 L 1753.699219 1016.878906 L 1753.730469 1016.851562 L 1753.75 1016.820312 L 1755.238281 1015.570312 L 1755.46875 1015.359375 L 1755.511719 1015.328125 L 1755.519531 1015.351562 L 1756.980469 1014.171875 L 1757.011719 1014.140625 L 1757.230469 1013.96875 L 1757.308594 1013.910156 L 1758.679688 1012.859375 L 1758.769531 1012.800781 L 1758.980469 1012.640625 L 1759.039062 1012.578125 L 1759.949219 1011.910156 L 1759.980469 1011.910156 L 1760.761719 1011.339844 L 1760.820312 1011.28125 L 1761.75 1010.621094 L 1761.808594 1010.558594 L 1762.660156 1009.96875 L 1762.75 1009.929688 L 1763.789062 1009.230469 L 1763.828125 1009.171875 L 1764.289062 1008.859375 Z M 1773.929688 1020.46875 L 1772.601562 1021.328125 L 1772.609375 1021.339844 L 1772.140625 1021.648438 L 1772.128906 1021.621094 L 1771.199219 1022.25 L 1771.21875 1022.269531 L 1770.359375 1022.859375 L 1770.351562 1022.851562 L 1769.488281 1023.46875 L 1769.480469 1023.460938 L 1768.789062 1023.96875 L 1768.789062 1023.980469 L 1767.890625 1024.648438 L 1767.878906 1024.640625 L 1767.820312 1024.691406 L 1766.539062 1025.679688 L 1766.328125 1025.859375 L 1766.320312 1025.851562 L 1764.910156 1026.988281 L 1764.910156 1027 L 1764.761719 1027.128906 L 1764.71875 1027.171875 L 1764.679688 1027.199219 L 1764.671875 1027.199219 L 1763.429688 1028.25 L 1763.421875 1028.238281 L 1762.390625 1029.140625 L 1762 1029.488281 L 1762.011719 1029.5 L 1760.929688 1030.480469 L 1760.488281 1030.890625 L 1759.621094 1031.71875 L 1758.988281 1032.320312 L 1758.230469 1033.078125 L 1758.238281 1033.089844 L 1758.050781 1033.28125 L 1758.050781 1033.269531 L 1756.929688 1034.410156 L 1756.839844 1034.5 L 1755.621094 1035.808594 L 1755.578125 1035.878906 L 1754.28125 1037.339844 L 1754.261719 1037.320312 L 1754.109375 1037.5 L 1754.121094 1037.5 L 1753.761719 1037.921875 L 1753.761719 1037.929688 L 1752.96875 1038.859375 L 1752.980469 1038.871094 L 1752.238281 1039.769531 L 1752.230469 1039.761719 L 1751.671875 1040.441406 L 1751.660156 1040.429688 L 1751.109375 1041.128906 L 1751.121094 1041.140625 L 1750.421875 1042.058594 L 1750.410156 1042.058594 L 1749.761719 1042.929688 L 1749.730469 1042.988281 L 1749.628906 1043.121094 L 1749.609375 1043.109375 L 1748.761719 1044.28125 L 1748.769531 1044.289062 L 1748.601562 1044.53125 L 1748.589844 1044.53125 L 1747.578125 1046 L 1746.5 1047.640625 L 1746.488281 1047.640625 L 1745.890625 1048.609375 L 1745.480469 1049.261719 L 1745.488281 1049.261719 L 1744.851562 1050.320312 L 1744.828125 1050.300781 L 1744.351562 1051.128906 L 1744.359375 1051.128906 L 1743.96875 1051.800781 L 1743.980469 1051.800781 L 1743.25 1053.109375 L 1742.898438 1053.730469 L 1742.441406 1054.601562 L 1741.949219 1055.539062 L 1741.960938 1055.539062 L 1741.058594 1057.351562 L 1741.050781 1057.339844 L 1740.28125 1058.96875 L 1740.289062 1058.980469 L 1739.878906 1059.898438 L 1739.871094 1059.898438 L 1739.429688 1060.910156 L 1739.089844 1061.71875 L 1738.640625 1062.808594 L 1738.28125 1063.738281 L 1738.269531 1063.738281 L 1737.808594 1064.949219 L 1737.800781 1064.949219 L 1737.640625 1065.371094 L 1737.660156 1065.371094 L 1736.960938 1067.351562 L 1736.308594 1069.339844 L 1736.308594 1069.359375 L 1735.730469 1071.300781 L 1735.699219 1071.359375 L 1735.679688 1071.421875 L 1735.671875 1071.421875 L 1735.410156 1072.351562 L 1735.441406 1072.359375 L 1735.179688 1073.339844 L 1734.96875 1074.128906 L 1734.960938 1074.128906 L 1734.589844 1075.621094 L 1734.488281 1076.058594 L 1734.511719 1076.070312 L 1734.171875 1077.621094 L 1734.140625 1077.609375 L 1734.011719 1078.238281 L 1734.03125 1078.238281 L 1733.671875 1080.078125 L 1733.640625 1080.261719 L 1733.289062 1082.359375 L 1733.019531 1084.269531 L 1732.871094 1085.488281 L 1732.75 1086.519531 L 1732.738281 1086.519531 L 1732.628906 1087.640625 L 1732.539062 1088.570312 L 1732.570312 1088.570312 L 1732.488281 1089.570312 L 1732.480469 1089.570312 L 1732.378906 1091.148438 L 1732.351562 1091.660156 L 1732.339844 1091.660156 L 1732.28125 1093.300781 L 1732.261719 1093.871094 L 1732.230469 1096.019531 L 1732.261719 1096.019531 C 1732.261719 1120.648438 1742.28125 1143.011719 1758.460938 1159.199219 L 1758.46875 1159.179688 C 1774.640625 1175.351562 1796.960938 1185.371094 1821.621094 1185.371094 C 1838.238281 1185.371094 1853.308594 1192.121094 1864.199219 1203.011719 C 1875.101562 1213.910156 1881.839844 1228.96875 1881.839844 1245.601562 C 1881.839844 1262.21875 1875.101562 1277.289062 1864.199219 1288.179688 L 1864.179688 1288.179688 C 1853.269531 1299.078125 1838.21875 1305.820312 1821.621094 1305.820312 C 1804.988281 1305.820312 1789.929688 1299.078125 1779.039062 1288.179688 C 1768.140625 1277.289062 1761.390625 1262.21875 1761.390625 1245.601562 C 1761.390625 1241.570312 1759.75 1237.921875 1757.140625 1235.308594 C 1754.5 1232.671875 1750.828125 1231.03125 1746.828125 1231.03125 C 1742.820312 1231.03125 1739.160156 1232.671875 1736.519531 1235.308594 C 1733.898438 1237.921875 1732.261719 1241.570312 1732.261719 1245.601562 L 1732.230469 1245.601562 L 1732.261719 1247.71875 L 1732.289062 1248.511719 L 1732.328125 1249.738281 L 1732.390625 1250.78125 L 1732.398438 1250.78125 L 1732.480469 1252.148438 L 1732.488281 1252.148438 L 1732.53125 1252.691406 L 1732.539062 1252.691406 L 1732.679688 1254.351562 L 1732.671875 1254.351562 L 1732.730469 1254.988281 L 1732.738281 1254.988281 L 1732.929688 1256.660156 L 1732.988281 1257.101562 L 1732.980469 1257.101562 L 1733.191406 1258.640625 L 1733.199219 1258.640625 L 1733.289062 1259.261719 L 1733.28125 1259.261719 L 1733.578125 1261.089844 L 1733.601562 1261.089844 L 1733.648438 1261.410156 L 1733.691406 1261.660156 L 1733.691406 1261.691406 L 1734 1263.300781 L 1734.160156 1264.070312 L 1734.171875 1264.058594 L 1734.460938 1265.359375 L 1734.449219 1265.359375 L 1734.648438 1266.199219 L 1734.640625 1266.199219 L 1734.96875 1267.539062 L 1734.980469 1267.53125 L 1735.109375 1268.050781 L 1735.550781 1269.699219 L 1735.539062 1269.710938 L 1735.628906 1270.011719 L 1735.640625 1270 L 1735.738281 1270.359375 L 1736.289062 1272.199219 L 1736.28125 1272.210938 L 1736.871094 1274.019531 L 1736.859375 1274.03125 L 1736.898438 1274.140625 L 1736.910156 1274.140625 L 1737.449219 1275.679688 L 1737.511719 1275.839844 L 1737.519531 1275.828125 L 1737.890625 1276.839844 L 1738.289062 1277.890625 L 1738.589844 1278.648438 L 1738.578125 1278.660156 L 1739.128906 1280.011719 L 1739.148438 1280.011719 L 1739.371094 1280.53125 L 1739.351562 1280.539062 L 1740.050781 1282.121094 L 1740.039062 1282.121094 L 1740.148438 1282.351562 L 1740.140625 1282.351562 L 1741.019531 1284.230469 L 1741.039062 1284.21875 L 1742.039062 1286.230469 L 1742.019531 1286.238281 L 1742.101562 1286.378906 L 1742.109375 1286.378906 L 1742.960938 1288 L 1742.960938 1288.011719 L 1743.160156 1288.378906 L 1743.171875 1288.371094 L 1744.039062 1289.921875 L 1744.019531 1289.929688 L 1744.140625 1290.128906 L 1744.960938 1291.53125 L 1744.980469 1291.519531 L 1745.351562 1292.128906 L 1746.039062 1293.238281 L 1746.371094 1293.78125 L 1746.460938 1293.929688 L 1746.46875 1293.929688 L 1747.539062 1295.550781 L 1747.570312 1295.601562 L 1748.578125 1297.070312 L 1748.589844 1297.070312 L 1748.691406 1297.199219 L 1749.710938 1298.601562 L 1749.691406 1298.609375 L 1749.738281 1298.671875 L 1750.261719 1299.359375 L 1750.269531 1299.359375 L 1751.140625 1300.488281 L 1751.488281 1300.921875 L 1751.46875 1300.941406 L 1752.230469 1301.898438 L 1752.238281 1301.890625 L 1752.859375 1302.640625 L 1752.871094 1302.628906 L 1753.511719 1303.398438 L 1754.300781 1304.328125 L 1754.320312 1304.359375 L 1755.210938 1305.371094 L 1755.21875 1305.359375 L 1755.269531 1305.410156 L 1755.449219 1305.609375 L 1756.808594 1307.078125 L 1756.871094 1307.140625 L 1758.011719 1308.308594 L 1758.011719 1308.300781 L 1758.089844 1308.371094 L 1758.078125 1308.378906 L 1758.078125 1308.390625 L 1759.019531 1309.320312 L 1759.570312 1309.871094 L 1760.269531 1310.53125 L 1761.199219 1311.390625 L 1761.191406 1311.410156 L 1761.671875 1311.851562 L 1761.679688 1311.851562 L 1762.738281 1312.789062 L 1762.769531 1312.789062 L 1763.210938 1313.179688 L 1763.210938 1313.191406 L 1763.410156 1313.371094 L 1763.398438 1313.378906 L 1763.871094 1313.769531 L 1763.878906 1313.761719 L 1764.789062 1314.511719 L 1766.351562 1315.769531 L 1766.328125 1315.789062 L 1766.390625 1315.839844 L 1766.390625 1315.828125 L 1767.78125 1316.898438 L 1767.769531 1316.898438 L 1767.820312 1316.929688 L 1768.988281 1317.789062 L 1769.300781 1318.019531 L 1770.460938 1318.851562 L 1770.460938 1318.859375 L 1771.199219 1319.359375 L 1771.191406 1319.371094 L 1771.910156 1319.859375 L 1771.929688 1319.828125 L 1772.808594 1320.421875 L 1772.800781 1320.429688 L 1773.691406 1321.011719 L 1773.699219 1321.011719 L 1773.730469 1321.03125 L 1775.351562 1322.03125 L 1775.351562 1322.039062 L 1777.019531 1323.03125 L 1777.011719 1323.039062 L 1778.441406 1323.851562 L 1778.449219 1323.828125 L 1778.589844 1323.910156 L 1778.578125 1323.910156 L 1779.859375 1324.601562 L 1779.871094 1324.589844 L 1780.441406 1324.890625 L 1780.441406 1324.898438 L 1781.699219 1325.539062 L 1781.691406 1325.550781 L 1782.078125 1325.738281 L 1783.308594 1326.339844 L 1783.300781 1326.351562 L 1784.230469 1326.789062 L 1784.230469 1326.78125 L 1784.921875 1327.101562 L 1784.921875 1327.089844 L 1786.449219 1327.761719 L 1786.480469 1327.761719 L 1786.929688 1327.960938 L 1786.929688 1327.980469 L 1788.679688 1328.691406 L 1788.761719 1328.71875 L 1788.769531 1328.710938 L 1790.460938 1329.359375 L 1790.460938 1329.371094 L 1790.488281 1329.390625 L 1791.699219 1329.828125 L 1791.699219 1329.820312 L 1792.480469 1330.089844 L 1792.46875 1330.101562 L 1793.761719 1330.53125 L 1794.109375 1330.648438 L 1794.109375 1330.640625 L 1795.621094 1331.109375 L 1795.621094 1331.121094 L 1796.128906 1331.269531 L 1796.128906 1331.28125 L 1797.609375 1331.710938 L 1797.691406 1331.730469 L 1797.691406 1331.710938 L 1799.480469 1332.191406 L 1801.328125 1332.648438 L 1807.039062 1334.050781 L 1807.039062 1390.421875 C 1807.039062 1394.449219 1808.679688 1398.089844 1811.300781 1400.710938 C 1813.941406 1403.351562 1817.609375 1404.988281 1821.609375 1404.988281 C 1825.601562 1404.988281 1829.238281 1403.339844 1831.890625 1400.691406 C 1834.53125 1398.050781 1836.179688 1394.410156 1836.179688 1390.421875 L 1836.179688 1334.039062 L 1841.890625 1332.640625 L 1843.890625 1332.140625 L 1843.890625 1332.160156 C 1844.621094 1331.980469 1845.460938 1331.738281 1846.421875 1331.460938 C 1847.148438 1331.25 1848.03125 1330.96875 1848.96875 1330.671875 L 1848.960938 1330.671875 L 1849.539062 1330.480469 L 1851 1329.980469 L 1851 1329.988281 L 1851.191406 1329.921875 L 1851.191406 1329.929688 L 1852.769531 1329.359375 L 1852.769531 1329.328125 L 1852.890625 1329.289062 L 1852.898438 1329.308594 L 1854.28125 1328.78125 L 1854.28125 1328.769531 L 1854.519531 1328.671875 L 1854.519531 1328.679688 L 1856.230469 1327.96875 L 1856.230469 1327.960938 L 1858.011719 1327.179688 L 1858.019531 1327.191406 L 1859.300781 1326.601562 L 1859.300781 1326.609375 L 1859.800781 1326.371094 L 1859.789062 1326.351562 L 1861.019531 1325.75 L 1861.019531 1325.769531 L 1861.628906 1325.46875 L 1861.628906 1325.480469 L 1862.761719 1324.898438 L 1862.75 1324.890625 L 1863.230469 1324.628906 L 1864.53125 1323.929688 L 1864.859375 1323.738281 L 1864.871094 1323.75 L 1866.171875 1323.011719 L 1866.171875 1323 L 1867.808594 1322.03125 L 1869.460938 1321.011719 L 1870.828125 1320.121094 L 1870.839844 1320.121094 L 1871.019531 1320 L 1872.171875 1319.21875 L 1872.699219 1318.851562 L 1872.691406 1318.839844 L 1873.800781 1318.058594 L 1874.339844 1317.660156 L 1874.339844 1317.671875 L 1875.441406 1316.851562 L 1875.46875 1316.820312 L 1875.550781 1316.761719 L 1875.558594 1316.761719 L 1876.691406 1315.890625 L 1876.679688 1315.890625 L 1876.898438 1315.710938 L 1876.910156 1315.71875 L 1878.390625 1314.511719 L 1878.398438 1314.519531 L 1879.640625 1313.480469 L 1879.640625 1313.449219 L 1879.859375 1313.261719 L 1879.871094 1313.269531 L 1880.640625 1312.601562 L 1880.628906 1312.578125 L 1881.390625 1311.898438 L 1881.410156 1311.921875 L 1882.171875 1311.230469 L 1882.160156 1311.210938 L 1882.75 1310.660156 L 1883.570312 1309.890625 L 1884.269531 1309.199219 L 1884.261719 1309.191406 L 1884.96875 1308.480469 L 1885.019531 1308.449219 L 1885.109375 1308.371094 L 1886.300781 1307.140625 L 1886.378906 1307.050781 L 1887.738281 1305.589844 L 1887.921875 1305.390625 L 1887.949219 1305.359375 L 1887.960938 1305.371094 L 1888.871094 1304.339844 L 1888.859375 1304.328125 L 1889.941406 1303.070312 L 1890.191406 1302.78125 L 1890.199219 1302.78125 L 1891.21875 1301.539062 L 1891.210938 1301.539062 L 1891.300781 1301.421875 L 1892.191406 1300.269531 L 1892.210938 1300.28125 L 1892.839844 1299.460938 L 1892.851562 1299.460938 L 1893.449219 1298.648438 L 1893.5 1298.589844 L 1893.488281 1298.578125 L 1894.488281 1297.199219 L 1894.488281 1297.210938 L 1894.628906 1297.019531 L 1894.640625 1297.019531 L 1895.648438 1295.550781 L 1895.640625 1295.550781 L 1896.710938 1293.941406 L 1896.871094 1293.691406 L 1896.878906 1293.691406 L 1897.078125 1293.371094 L 1897.070312 1293.371094 L 1897.859375 1292.101562 L 1897.878906 1292.109375 L 1898.328125 1291.359375 L 1898.320312 1291.351562 L 1898.859375 1290.429688 L 1898.871094 1290.441406 L 1899.410156 1289.519531 L 1899.390625 1289.511719 L 1899.570312 1289.199219 L 1899.578125 1289.199219 L 1900.128906 1288.210938 L 1900.121094 1288.210938 L 1900.238281 1287.988281 L 1900.871094 1286.789062 L 1900.878906 1286.800781 L 1901.289062 1286.019531 L 1901.269531 1286.011719 L 1902.171875 1284.199219 L 1902.191406 1284.210938 L 1903.058594 1282.351562 L 1903.070312 1282.351562 L 1903.28125 1281.890625 L 1903.261719 1281.878906 L 1903.820312 1280.609375 L 1903.800781 1280.601562 L 1904.140625 1279.800781 L 1904.160156 1279.808594 L 1904.570312 1278.800781 L 1904.921875 1277.921875 L 1905.429688 1276.570312 L 1905.441406 1276.570312 L 1905.578125 1276.191406 L 1905.570312 1276.179688 L 1906.269531 1274.210938 L 1906.921875 1272.21875 L 1906.921875 1272.199219 L 1907.480469 1270.351562 L 1907.488281 1270.289062 L 1907.5 1270.261719 L 1907.519531 1270.269531 L 1907.800781 1269.25 L 1907.78125 1269.25 L 1908.058594 1268.210938 L 1908.25 1267.46875 L 1908.269531 1267.480469 L 1908.621094 1266.03125 L 1908.609375 1266.019531 L 1908.730469 1265.5 L 1908.71875 1265.5 L 1909.070312 1263.910156 L 1909.089844 1263.921875 L 1909.210938 1263.371094 L 1909.199219 1263.371094 L 1909.609375 1261.210938 L 1909.929688 1259.289062 L 1909.929688 1259.261719 L 1910.199219 1257.351562 L 1910.210938 1257.28125 L 1910.351562 1256.078125 L 1910.359375 1256.078125 L 1910.480469 1255.058594 L 1910.488281 1255.058594 L 1910.601562 1253.929688 L 1910.609375 1253.929688 L 1910.679688 1253.070312 L 1910.660156 1253.070312 L 1910.738281 1252.039062 L 1910.851562 1250.441406 L 1910.878906 1249.941406 L 1910.949219 1248.289062 L 1910.96875 1247.75 L 1911 1245.601562 L 1910.96875 1245.601562 C 1910.96875 1220.96875 1900.949219 1198.609375 1884.769531 1182.421875 L 1884.761719 1182.441406 C 1868.589844 1166.269531 1846.261719 1156.25 1821.609375 1156.25 C 1804.988281 1156.25 1789.929688 1149.5 1779.03125 1138.609375 L 1779.03125 1138.578125 C 1768.128906 1127.671875 1761.390625 1112.621094 1761.390625 1096.019531 C 1761.390625 1079.398438 1768.128906 1064.328125 1779.03125 1053.441406 C 1789.929688 1042.539062 1804.988281 1035.800781 1821.609375 1035.800781 C 1838.238281 1035.800781 1853.300781 1042.539062 1864.199219 1053.441406 C 1875.089844 1064.328125 1881.839844 1079.398438 1881.839844 1096.019531 C 1881.839844 1100.050781 1883.480469 1103.691406 1886.101562 1106.308594 L 1886.101562 1106.339844 C 1888.71875 1108.960938 1892.371094 1110.589844 1896.398438 1110.589844 C 1900.410156 1110.589844 1904.070312 1108.949219 1906.710938 1106.308594 C 1909.328125 1103.691406 1910.96875 1100.050781 1910.96875 1096.019531 L 1911 1096.019531 L 1910.96875 1093.898438 L 1910.941406 1093.109375 L 1910.898438 1091.878906 L 1910.890625 1091.878906 L 1910.839844 1090.839844 L 1910.828125 1090.839844 L 1910.738281 1089.46875 L 1910.699219 1088.929688 L 1910.691406 1088.929688 L 1910.539062 1087.269531 L 1910.558594 1087.269531 L 1910.5 1086.621094 L 1910.488281 1086.621094 L 1910.300781 1084.960938 L 1910.238281 1084.519531 L 1910.25 1084.519531 L 1910.039062 1082.980469 L 1910.03125 1082.980469 L 1909.941406 1082.359375 L 1909.949219 1082.359375 L 1909.648438 1080.519531 L 1909.628906 1080.53125 L 1909.570312 1080.199219 L 1909.589844 1080.199219 L 1909.28125 1078.578125 L 1909.289062 1078.578125 L 1909.269531 1078.53125 L 1909.03125 1077.351562 L 1909.011719 1077.359375 L 1908.78125 1076.28125 L 1908.578125 1075.421875 L 1908.589844 1075.410156 L 1908.261719 1074.058594 L 1908.25 1074.058594 L 1908.148438 1073.640625 L 1908.140625 1073.640625 L 1907.679688 1071.980469 L 1907.558594 1071.519531 L 1907.488281 1071.261719 L 1906.941406 1069.421875 L 1906.910156 1069.328125 L 1906.898438 1069.300781 L 1906.910156 1069.300781 L 1906.359375 1067.589844 L 1906.371094 1067.589844 L 1906.328125 1067.46875 L 1906.320312 1067.480469 L 1905.808594 1066.019531 L 1905.710938 1065.761719 L 1905.679688 1065.710938 L 1905.359375 1064.839844 L 1905.371094 1064.839844 L 1904.871094 1063.519531 L 1904.710938 1063.121094 L 1904.699219 1063.128906 L 1904.039062 1061.488281 L 1903.878906 1061.109375 L 1903.890625 1061.109375 L 1903.328125 1059.828125 L 1902.988281 1059.050781 L 1902.980469 1059.058594 L 1902.929688 1058.960938 L 1902.941406 1058.949219 L 1902.210938 1057.390625 L 1902.191406 1057.398438 L 1901.191406 1055.378906 L 1901.199219 1055.371094 L 1901.171875 1055.339844 L 1900.289062 1053.660156 L 1900.011719 1053.160156 L 1900.03125 1053.148438 L 1899.398438 1052.03125 L 1899.390625 1052.039062 L 1898.929688 1051.238281 L 1898.390625 1050.328125 L 1898.390625 1050.339844 L 1897.738281 1049.261719 L 1897.738281 1049.25 L 1897.5 1048.851562 L 1896.761719 1047.691406 L 1896.730469 1047.648438 L 1896.691406 1047.601562 L 1896.609375 1047.480469 L 1896.621094 1047.480469 L 1895.691406 1046.070312 L 1895.691406 1046.058594 L 1894.601562 1044.488281 L 1894.609375 1044.488281 L 1894.550781 1044.410156 L 1894.539062 1044.421875 L 1894.109375 1043.828125 L 1894.128906 1043.820312 L 1893.429688 1042.871094 L 1893.421875 1042.878906 L 1892.789062 1042.050781 L 1892.800781 1042.050781 L 1892.238281 1041.320312 L 1892.25 1041.308594 L 1891.558594 1040.421875 L 1891.550781 1040.429688 L 1891.011719 1039.769531 L 1891.019531 1039.761719 L 1890.371094 1038.96875 L 1890.359375 1038.980469 L 1889.589844 1038.070312 L 1889.589844 1038.039062 L 1889.210938 1037.589844 L 1889.199219 1037.589844 L 1889 1037.371094 L 1888.988281 1037.378906 L 1887.710938 1035.941406 L 1887.71875 1035.941406 L 1886.421875 1034.539062 L 1885.460938 1033.550781 L 1885.058594 1033.140625 L 1885.050781 1033.148438 L 1884.328125 1032.441406 L 1884.351562 1032.429688 L 1883.648438 1031.75 L 1882.800781 1030.941406 L 1882.328125 1030.511719 L 1881.320312 1029.578125 L 1881.289062 1029.519531 L 1881.230469 1029.46875 L 1881.230469 1029.480469 L 1880.109375 1028.488281 L 1880.101562 1028.488281 L 1879.851562 1028.269531 L 1879.839844 1028.28125 L 1879.328125 1027.851562 L 1879.351562 1027.828125 L 1878.480469 1027.101562 L 1878.46875 1027.109375 L 1876.910156 1025.851562 L 1875.988281 1025.140625 L 1875.371094 1024.660156 L 1874.601562 1024.089844 L 1873.691406 1023.429688 L 1873.699219 1023.410156 L 1872.609375 1022.640625 L 1872.601562 1022.648438 L 1872.488281 1022.578125 L 1871.101562 1021.640625 L 1871.109375 1021.621094 L 1870.621094 1021.300781 C 1870 1020.890625 1869.308594 1020.441406 1868.46875 1019.929688 C 1867.921875 1019.589844 1867.21875 1019.171875 1866.28125 1018.628906 L 1866.289062 1018.621094 L 1865.121094 1017.949219 L 1864.640625 1017.691406 L 1863.261719 1016.949219 L 1863.261719 1016.960938 L 1862.980469 1016.820312 L 1862.988281 1016.800781 L 1861.511719 1016.050781 L 1861.191406 1015.878906 L 1861.179688 1015.898438 L 1859.859375 1015.25 L 1859.570312 1015.121094 L 1857.921875 1014.359375 L 1857.929688 1014.359375 L 1856.46875 1013.71875 L 1856.421875 1013.699219 L 1856.390625 1013.691406 L 1856.320312 1013.660156 L 1854.480469 1012.898438 L 1854.488281 1012.890625 L 1852.890625 1012.269531 L 1852.890625 1012.28125 L 1851.351562 1011.71875 L 1851.339844 1011.738281 L 1850.878906 1011.570312 L 1849.628906 1011.148438 L 1849.628906 1011.140625 L 1848.929688 1010.910156 L 1848.929688 1010.921875 L 1847.539062 1010.488281 L 1847.539062 1010.480469 L 1847.261719 1010.398438 L 1847.230469 1010.398438 C 1845.789062 1009.96875 1844.621094 1009.628906 1843.898438 1009.449219 L 1843.890625 1009.460938 L 1841.890625 1008.96875 L 1836.179688 1007.570312 L 1836.179688 951.03125 C 1836.179688 947 1834.539062 943.359375 1831.921875 940.738281 C 1829.28125 938.101562 1825.628906 936.46875 1821.609375 936.46875 C 1817.609375 936.46875 1813.941406 938.101562 1811.300781 940.738281 C 1808.679688 943.359375 1807.039062 947 1807.039062 951.03125 L 1807.039062 1007.570312 L 1801.328125 1008.96875 L 1799.398438 1009.449219 L 1797.5 1009.96875 L 1797.128906 1010.050781 L 1795.921875 1010.410156 L 1795.921875 1010.421875 L 1795.78125 1010.460938 L 1795.78125 1010.46875 L 1794.171875 1010.980469 L 1794.160156 1010.96875 L 1793.828125 1011.070312 L 1793.828125 1011.078125 L 1792.328125 1011.589844 L 1791.859375 1011.75 L 1791.859375 1011.738281 L 1790.640625 1012.179688 L 1790.648438 1012.191406 L 1789.898438 1012.480469 L 1789.898438 1012.460938 L 1788.621094 1012.960938 L 1788.621094 1012.949219 L 1786.96875 1013.621094 L 1786.96875 1013.628906 L 1786.828125 1013.699219 L 1785.191406 1014.410156 L 1784.179688 1014.871094 L 1784.191406 1014.878906 L 1783.179688 1015.351562 L 1783.171875 1015.339844 L 1782.429688 1015.699219 L 1782.429688 1015.710938 L 1781.421875 1016.21875 L 1781.421875 1016.199219 L 1780.621094 1016.609375 L 1780.628906 1016.640625 L 1779.71875 1017.121094 L 1779.710938 1017.101562 L 1778.738281 1017.609375 L 1778.75 1017.621094 L 1778.648438 1017.679688 L 1777.140625 1018.53125 L 1777.128906 1018.511719 L 1777.039062 1018.570312 L 1777.050781 1018.578125 L 1775.46875 1019.519531 L 1773.929688 1020.480469 Z M 1850.910156 1011.578125 L 1850.878906 1011.570312 L 1850.820312 1011.550781 Z M 1908.058594 1268.21875 L 1908.058594 1268.210938 Z M 1769.300781 1318.019531 Z M 1733.640625 1080.261719 L 1733.628906 1080.308594 Z M 1506.359375 822.75 L 1310.808594 822.75 C 1291.121094 822.75 1273.261719 814.738281 1260.328125 801.808594 L 1260.328125 801.789062 C 1247.410156 788.859375 1239.390625 771.011719 1239.390625 751.339844 C 1239.390625 731.679688 1247.398438 713.828125 1260.328125 700.890625 L 1260.339844 700.878906 L 1260.359375 700.871094 C 1273.300781 687.941406 1291.148438 679.929688 1310.808594 679.929688 L 1506.359375 679.929688 C 1526.050781 679.929688 1543.910156 687.941406 1556.839844 700.871094 L 1556.839844 700.890625 C 1569.761719 713.820312 1577.78125 731.671875 1577.78125 751.339844 L 1577.78125 751.628906 C 1577.78125 771.191406 1569.769531 788.941406 1556.871094 801.808594 C 1544.011719 814.648438 1526.25 822.628906 1506.679688 822.71875 L 1506.648438 822.75 Z M 1310.808594 807.738281 L 1506.648438 807.738281 L 1506.648438 807.78125 C 1522.089844 807.699219 1536.140625 801.371094 1546.320312 791.210938 C 1556.46875 781.078125 1562.769531 767.078125 1562.769531 751.628906 L 1562.769531 751.339844 C 1562.769531 735.78125 1556.441406 721.660156 1546.25 711.460938 L 1546.238281 711.46875 C 1536.03125 701.261719 1521.921875 694.941406 1506.359375 694.941406 L 1310.808594 694.941406 C 1295.230469 694.941406 1281.128906 701.25 1270.929688 711.441406 L 1270.910156 711.46875 C 1260.710938 721.660156 1254.398438 735.761719 1254.398438 751.339844 C 1254.398438 766.898438 1260.730469 781.019531 1270.921875 791.21875 L 1270.929688 791.210938 C 1281.140625 801.421875 1295.25 807.738281 1310.808594 807.738281 Z M 1677.089844 834.550781 C 1654.128906 834.550781 1633.300781 825.210938 1618.210938 810.148438 C 1603.101562 795.058594 1593.730469 774.238281 1593.730469 751.339844 C 1593.730469 728.441406 1603.121094 707.589844 1618.230469 692.480469 L 1618.238281 692.488281 C 1633.371094 677.371094 1654.210938 667.96875 1677.089844 667.96875 C 1699.988281 667.96875 1720.839844 677.328125 1735.949219 692.421875 C 1751.058594 707.5 1760.449219 728.300781 1760.449219 751.191406 C 1760.449219 774.089844 1751.089844 794.949219 1735.980469 810.070312 L 1735.949219 810.089844 C 1720.859375 825.179688 1700.039062 834.550781 1677.089844 834.550781 Z M 1628.761719 799.550781 C 1641.128906 811.890625 1658.230469 819.550781 1677.089844 819.550781 C 1695.929688 819.550781 1713.011719 811.859375 1725.390625 799.5 C 1737.769531 787.109375 1745.449219 769.988281 1745.449219 751.191406 C 1745.449219 732.410156 1737.761719 715.359375 1725.398438 703.019531 C 1713.011719 690.648438 1695.898438 682.980469 1677.089844 682.980469 C 1658.300781 682.980469 1641.210938 690.671875 1628.828125 703.050781 L 1628.828125 703.078125 C 1616.441406 715.46875 1608.730469 732.570312 1608.730469 751.339844 C 1608.730469 770.140625 1616.398438 787.199219 1628.761719 799.550781 Z M 1742.691406 2347.195312 L 1257.171875 2347.195312 C 1243.929688 2347.195312 1231.941406 2341.816406 1223.261719 2333.140625 C 1214.578125 2324.460938 1209.210938 2312.457031 1209.210938 2299.230469 C 1209.210938 2286.007812 1214.578125 2274.007812 1223.261719 2265.328125 C 1231.941406 2256.648438 1243.929688 2251.273438 1257.171875 2251.273438 L 1742.691406 2251.273438 C 1755.878906 2251.273438 1767.871094 2256.667969 1776.558594 2265.359375 L 1776.550781 2265.371094 C 1785.25 2274.074219 1790.648438 2286.070312 1790.648438 2299.230469 C 1790.648438 2312.457031 1785.269531 2324.460938 1776.589844 2333.140625 C 1767.910156 2341.816406 1755.921875 2347.195312 1742.691406 2347.195312 Z M 1257.171875 2332.1875 L 1742.691406 2332.1875 C 1751.789062 2332.1875 1760.03125 2328.496094 1765.988281 2322.539062 C 1771.949219 2316.578125 1775.640625 2308.328125 1775.640625 2299.230469 C 1775.640625 2290.15625 1771.941406 2281.914062 1765.988281 2275.960938 L 1765.960938 2275.960938 C 1759.988281 2269.988281 1751.75 2266.277344 1742.691406 2266.277344 L 1257.171875 2266.277344 C 1248.070312 2266.277344 1239.820312 2269.972656 1233.871094 2275.929688 C 1227.910156 2281.890625 1224.210938 2290.140625 1224.210938 2299.230469 C 1224.210938 2308.328125 1227.910156 2316.578125 1233.871094 2322.539062 C 1239.820312 2328.496094 1248.070312 2332.1875 1257.171875 2332.1875 Z M 1523.53125 2078.535156 C 1493.28125 2078.535156 1463.96875 2074.164062 1436.230469 2066.03125 C 1407.570312 2057.621094 1380.621094 2045.183594 1356.058594 2029.386719 L 1352.25 2026.933594 L 1352.660156 2022.414062 C 1353.628906 2011.917969 1354.988281 1997.359375 1355.980469 1986.929688 C 1356.78125 1978.621094 1357.398438 1972.328125 1357.550781 1971.320312 L 1357.550781 1971.289062 C 1362.238281 1940.148438 1375.601562 1911.429688 1395.300781 1888.03125 C 1414.941406 1864.691406 1440.871094 1846.648438 1470.761719 1836.789062 L 1475.828125 1836.941406 C 1491 1842.859375 1507.289062 1845.828125 1523.601562 1845.828125 C 1539.910156 1845.828125 1556.199219 1842.859375 1571.378906 1836.941406 L 1576.441406 1836.820312 C 1607.519531 1847.148438 1634.300781 1866.191406 1654.160156 1890.78125 C 1673.980469 1915.339844 1686.96875 1945.480469 1690.511719 1978.070312 L 1690.511719 1978.101562 C 1690.589844 1978.808594 1691.640625 1986.929688 1692.941406 1996.921875 L 1696.058594 2021.035156 L 1696.648438 2025.671875 L 1692.71875 2028.246094 C 1667.960938 2044.402344 1640.75 2057.136719 1611.78125 2065.742188 C 1583.761719 2074.0625 1554.128906 2078.535156 1523.53125 2078.535156 Z M 1440.441406 2051.671875 C 1466.75 2059.386719 1494.640625 2063.53125 1523.53125 2063.53125 C 1552.75 2063.53125 1580.960938 2059.285156 1607.558594 2051.382812 C 1633.578125 2043.652344 1658.121094 2032.410156 1680.621094 2018.230469 L 1678.109375 1998.800781 L 1675.640625 1979.648438 L 1675.628906 1979.648438 C 1672.398438 1949.988281 1660.570312 1922.539062 1642.5 1900.148438 C 1624.929688 1878.398438 1601.460938 1861.429688 1574.25 1851.851562 C 1558.011719 1857.839844 1540.78125 1860.839844 1523.601562 1860.839844 C 1506.441406 1860.839844 1489.21875 1857.839844 1472.980469 1851.871094 C 1446.761719 1861.019531 1424.03125 1877.070312 1406.71875 1897.640625 C 1388.820312 1918.921875 1376.660156 1945.089844 1372.378906 1973.519531 C 1372.179688 1974.859375 1371.589844 1980.738281 1370.859375 1988.339844 C 1369.929688 1998.039062 1368.828125 2009.863281 1367.96875 2019.203125 C 1390.320312 2033.105469 1414.660156 2044.109375 1440.441406 2051.671875 Z M 1399.390625 1063.511719 L 1103.449219 1063.511719 C 1090.179688 1063.511719 1078.191406 1058.148438 1069.519531 1049.488281 C 1060.851562 1040.820312 1055.488281 1028.820312 1055.488281 1015.558594 C 1055.488281 1002.300781 1060.851562 990.320312 1069.519531 981.648438 L 1069.519531 981.621094 C 1078.191406 972.949219 1090.191406 967.589844 1103.449219 967.589844 L 1399.390625 967.589844 C 1412.660156 967.589844 1424.660156 972.949219 1433.320312 981.621094 L 1433.320312 981.648438 C 1442 990.320312 1447.351562 1002.300781 1447.351562 1015.558594 C 1447.351562 1028.820312 1441.988281 1040.820312 1433.320312 1049.488281 C 1424.660156 1058.148438 1412.660156 1063.511719 1399.390625 1063.511719 Z M 1103.449219 1048.511719 L 1399.390625 1048.511719 C 1408.53125 1048.511719 1416.769531 1044.828125 1422.71875 1038.878906 C 1428.671875 1032.941406 1432.339844 1024.691406 1432.339844 1015.558594 C 1432.339844 1006.410156 1428.671875 998.160156 1422.730469 992.210938 L 1422.71875 992.21875 C 1416.769531 986.269531 1408.53125 982.601562 1399.390625 982.601562 L 1103.449219 982.601562 C 1094.320312 982.601562 1086.070312 986.269531 1080.121094 992.21875 L 1080.109375 992.210938 C 1074.171875 998.160156 1070.5 1006.410156 1070.5 1015.558594 C 1070.5 1024.691406 1074.171875 1032.941406 1080.121094 1038.878906 C 1086.070312 1044.828125 1094.308594 1048.511719 1103.449219 1048.511719 Z M 1399.390625 1218.609375 L 1103.449219 1218.609375 C 1090.191406 1218.609375 1078.191406 1213.25 1069.519531 1204.589844 L 1069.519531 1204.558594 C 1060.851562 1195.878906 1055.488281 1183.898438 1055.488281 1170.648438 C 1055.488281 1157.398438 1060.851562 1145.421875 1069.519531 1136.738281 L 1069.519531 1136.710938 C 1078.191406 1128.050781 1090.191406 1122.691406 1103.449219 1122.691406 L 1399.390625 1122.691406 C 1412.660156 1122.691406 1424.660156 1128.050781 1433.320312 1136.710938 L 1433.320312 1136.738281 C 1442 1145.421875 1447.351562 1157.398438 1447.351562 1170.648438 C 1447.351562 1183.898438 1442 1195.878906 1433.320312 1204.558594 L 1433.320312 1204.589844 C 1424.660156 1213.25 1412.660156 1218.609375 1399.390625 1218.609375 Z M 1103.449219 1203.609375 L 1399.390625 1203.609375 C 1408.53125 1203.609375 1416.769531 1199.929688 1422.71875 1193.980469 L 1422.730469 1194 C 1428.671875 1188.050781 1432.339844 1179.800781 1432.339844 1170.648438 C 1432.339844 1161.5 1428.671875 1153.25 1422.730469 1147.300781 L 1422.71875 1147.320312 C 1416.769531 1141.371094 1408.53125 1137.691406 1399.390625 1137.691406 L 1103.449219 1137.691406 C 1094.320312 1137.691406 1086.070312 1141.371094 1080.121094 1147.320312 L 1080.109375 1147.300781 C 1074.171875 1153.25 1070.5 1161.5 1070.5 1170.648438 C 1070.5 1179.800781 1074.171875 1188.050781 1080.109375 1194 L 1080.121094 1193.980469 C 1086.070312 1199.929688 1094.320312 1203.609375 1103.449219 1203.609375 Z M 1399.390625 1373.859375 L 1103.449219 1373.859375 C 1090.179688 1373.859375 1078.191406 1368.5 1069.519531 1359.839844 C 1060.851562 1351.171875 1055.488281 1339.171875 1055.488281 1325.898438 C 1055.488281 1312.628906 1060.851562 1300.640625 1069.519531 1291.96875 C 1078.191406 1283.300781 1090.179688 1277.941406 1103.449219 1277.941406 L 1399.390625 1277.941406 C 1412.660156 1277.941406 1424.660156 1283.300781 1433.320312 1291.96875 C 1441.988281 1300.640625 1447.351562 1312.628906 1447.351562 1325.898438 C 1447.351562 1339.171875 1441.988281 1351.171875 1433.320312 1359.839844 C 1424.660156 1368.5 1412.660156 1373.859375 1399.390625 1373.859375 Z M 1103.449219 1358.859375 L 1399.390625 1358.859375 C 1408.53125 1358.859375 1416.769531 1355.179688 1422.71875 1349.230469 C 1428.671875 1343.28125 1432.339844 1335.039062 1432.339844 1325.898438 C 1432.339844 1316.769531 1428.671875 1308.519531 1422.71875 1302.570312 C 1416.769531 1296.621094 1408.53125 1292.949219 1399.390625 1292.949219 L 1103.449219 1292.949219 C 1094.308594 1292.949219 1086.070312 1296.621094 1080.121094 1302.570312 C 1074.171875 1308.519531 1070.5 1316.769531 1070.5 1325.898438 C 1070.5 1335.039062 1074.171875 1343.28125 1080.121094 1349.230469 C 1086.070312 1355.179688 1094.308594 1358.859375 1103.449219 1358.859375 Z M 1313.691406 1996.660156 C 1282.21875 1967.738281 1256.730469 1932.410156 1239.300781 1892.78125 C 1222.511719 1854.621094 1213.191406 1812.46875 1213.191406 1768.199219 C 1213.191406 1682.609375 1247.980469 1605.019531 1304.160156 1548.839844 C 1360.339844 1492.648438 1437.941406 1457.859375 1523.53125 1457.859375 C 1609.121094 1457.859375 1686.710938 1492.648438 1742.890625 1548.839844 C 1799.078125 1605.019531 1833.871094 1682.609375 1833.871094 1768.199219 C 1833.871094 1812.308594 1824.601562 1854.328125 1807.910156 1892.398438 C 1790.578125 1931.949219 1765.230469 1967.210938 1733.960938 1996.109375 L 1723.328125 2005.929688 L 1721.46875 1991.539062 L 1720.070312 1980.601562 L 1719.449219 1975.691406 L 1719.421875 1975.519531 C 1715.261719 1935.570312 1698.929688 1898.671875 1673.941406 1869.050781 C 1649 1839.488281 1615.421875 1817.179688 1576.699219 1806.359375 L 1576.699219 1806.351562 C 1575.089844 1805.921875 1573.351562 1805.769531 1571.609375 1805.921875 C 1569.910156 1806.050781 1568.238281 1806.480469 1566.660156 1807.179688 L 1566.609375 1807.199219 L 1566.601562 1807.210938 C 1553.039062 1813.480469 1538.269531 1816.621094 1523.519531 1816.621094 C 1508.78125 1816.621094 1494 1813.480469 1480.449219 1807.210938 L 1480.429688 1807.199219 L 1480.390625 1807.179688 C 1478.820312 1806.480469 1477.148438 1806.058594 1475.441406 1805.921875 C 1473.691406 1805.78125 1471.949219 1805.921875 1470.339844 1806.351562 L 1470.351562 1806.359375 C 1432.929688 1816.808594 1400.339844 1837.960938 1375.699219 1866.011719 C 1350.921875 1894.210938 1334.160156 1929.410156 1328.609375 1967.71875 C 1328.460938 1968.699219 1328.148438 1971.679688 1327.75 1975.78125 L 1327.738281 1975.78125 L 1326.199219 1991.851562 L 1324.761719 2006.824219 Z M 1253.011719 1886.75 C 1267.519531 1919.738281 1287.898438 1949.589844 1312.800781 1974.96875 L 1312.859375 1974.351562 L 1312.859375 1974.320312 C 1313.320312 1969.679688 1313.660156 1966.449219 1313.78125 1965.609375 C 1319.761719 1924.390625 1337.789062 1886.519531 1364.449219 1856.171875 C 1390.980469 1825.980469 1426.070312 1803.199219 1466.359375 1791.949219 L 1466.390625 1791.949219 C 1469.800781 1791.019531 1473.269531 1790.710938 1476.609375 1790.980469 C 1480.03125 1791.25 1483.429688 1792.128906 1486.601562 1793.558594 L 1486.660156 1793.589844 C 1498.210938 1798.941406 1510.859375 1801.621094 1523.519531 1801.621094 C 1536.191406 1801.621094 1548.839844 1798.941406 1560.390625 1793.589844 L 1560.441406 1793.558594 C 1563.628906 1792.121094 1567.019531 1791.25 1570.441406 1790.96875 C 1573.78125 1790.699219 1577.25 1791.019531 1580.648438 1791.949219 L 1580.691406 1791.949219 C 1622.421875 1803.609375 1658.550781 1827.601562 1685.371094 1859.378906 C 1712.25 1891.238281 1729.808594 1930.96875 1734.300781 1973.988281 L 1734.398438 1974.820312 C 1759.328125 1949.378906 1779.71875 1919.46875 1794.199219 1886.421875 C 1810.058594 1850.25 1818.859375 1810.25 1818.859375 1768.199219 C 1818.859375 1686.75 1785.75 1612.898438 1732.289062 1559.441406 C 1678.828125 1505.96875 1604.988281 1472.871094 1523.53125 1472.871094 C 1442.070312 1472.871094 1368.230469 1505.96875 1314.761719 1559.441406 C 1261.300781 1612.898438 1228.191406 1686.75 1228.191406 1768.199219 C 1228.191406 1810.371094 1237.058594 1850.480469 1253.011719 1886.75 Z M 1523.53125 1796.550781 C 1495.261719 1796.550781 1469.621094 1785.050781 1451.058594 1766.488281 C 1432.5 1747.929688 1421.011719 1722.300781 1421.011719 1694.03125 C 1421.011719 1665.761719 1432.5 1640.121094 1451.058594 1621.558594 C 1469.621094 1603 1495.261719 1591.5 1523.53125 1591.5 C 1551.800781 1591.5 1577.429688 1603 1595.988281 1621.558594 C 1614.550781 1640.121094 1626.050781 1665.761719 1626.050781 1694.03125 C 1626.050781 1722.300781 1614.550781 1747.929688 1595.988281 1766.488281 C 1577.429688 1785.050781 1551.800781 1796.550781 1523.53125 1796.550781 Z M 1461.671875 1755.890625 C 1477.5 1771.730469 1499.390625 1781.539062 1523.53125 1781.539062 C 1547.671875 1781.539062 1569.550781 1771.730469 1585.390625 1755.890625 C 1601.230469 1740.050781 1611.039062 1718.171875 1611.039062 1694.03125 C 1611.039062 1669.890625 1601.230469 1648 1585.390625 1632.160156 C 1569.550781 1616.320312 1547.671875 1606.511719 1523.53125 1606.511719 C 1499.390625 1606.511719 1477.5 1616.320312 1461.671875 1632.160156 C 1445.828125 1648 1436.011719 1669.890625 1436.011719 1694.03125 C 1436.011719 1718.171875 1445.828125 1740.050781 1461.671875 1755.890625 Z M 1523.53125 1650.488281 C 1511.570312 1650.488281 1500.71875 1655.371094 1492.871094 1663.210938 C 1485.03125 1671.058594 1480.148438 1681.910156 1480.148438 1693.871094 C 1480.148438 1705.828125 1485.019531 1716.691406 1492.859375 1724.539062 L 1492.871094 1724.53125 C 1500.71875 1732.371094 1511.570312 1737.25 1523.53125 1737.25 C 1535.488281 1737.25 1546.339844 1732.371094 1554.191406 1724.53125 C 1562.03125 1716.679688 1566.910156 1705.828125 1566.910156 1693.871094 C 1566.910156 1681.910156 1562.03125 1671.058594 1554.191406 1663.210938 L 1554.199219 1663.199219 C 1546.351562 1655.359375 1535.488281 1650.488281 1523.53125 1650.488281 Z M 1482.269531 1652.609375 C 1492.839844 1642.039062 1507.441406 1635.488281 1523.53125 1635.488281 C 1539.601562 1635.488281 1554.191406 1642.039062 1564.761719 1652.609375 L 1564.789062 1652.609375 C 1575.359375 1663.179688 1581.910156 1677.78125 1581.910156 1693.871094 C 1581.910156 1709.960938 1575.359375 1724.558594 1564.789062 1735.128906 C 1554.21875 1745.699219 1539.621094 1752.25 1523.53125 1752.25 C 1507.441406 1752.25 1492.839844 1745.699219 1482.269531 1735.128906 L 1482.269531 1735.101562 C 1471.699219 1724.53125 1465.148438 1709.941406 1465.148438 1693.871094 C 1465.148438 1677.78125 1471.699219 1663.179688 1482.269531 1652.609375 Z M 1007.96875 628.421875 C 990.367188 628.421875 974.417969 635.558594 962.882812 647.101562 C 951.351562 658.628906 944.210938 674.578125 944.210938 692.179688 L 944.210938 2307.8125 C 944.210938 2325.378906 951.367188 2341.320312 962.914062 2352.867188 C 974.460938 2364.414062 990.402344 2371.574219 1007.96875 2371.574219 L 1007.96875 2371.605469 L 1992.039062 2371.609375 L 1992.039062 2371.578125 C 2009.601562 2371.578125 2025.550781 2364.421875 2037.089844 2352.871094 C 2048.640625 2341.328125 2055.800781 2325.386719 2055.800781 2307.816406 L 2055.800781 692.179688 C 2055.800781 674.578125 2048.660156 658.628906 2037.121094 647.101562 C 2025.589844 635.558594 2009.640625 628.421875 1992.039062 628.421875 Z M 952.28125 636.488281 C 966.53125 622.238281 986.234375 613.421875 1007.96875 613.421875 L 1992.039062 613.421875 C 2013.769531 613.421875 2033.480469 622.238281 2047.730469 636.488281 C 2061.980469 650.75 2070.800781 670.449219 2070.800781 692.179688 L 2070.800781 2307.816406 C 2070.800781 2329.519531 2061.960938 2349.214844 2047.699219 2363.476562 C 2033.441406 2377.738281 2013.730469 2386.585938 1992.039062 2386.585938 L 1992.039062 2386.550781 L 1007.96875 2386.546875 L 1007.96875 2386.578125 C 986.269531 2386.578125 966.574219 2377.734375 952.3125 2363.472656 C 938.050781 2349.210938 929.203125 2329.511719 929.203125 2307.8125 L 929.203125 692.179688 C 929.203125 670.449219 938.027344 650.75 952.28125 636.488281 "/>
</svg>
