<?xml version="1.0" encoding="UTF-8"?>
<svg xmlns="http://www.w3.org/2000/svg" xmlns:xlink="http://www.w3.org/1999/xlink" width="3000" height="3000" viewBox="0 0 3000 3000">
<path fill-rule="evenodd" fill="rgb(95.3125%, 56.054688%, 25.488281%)" fill-opacity="1" d="M 1500 0 C 2328.429688 0 3000 671.570312 3000 1500 C 3000 2328.429688 2328.429688 2999.996094 1500 2999.996094 C 671.570312 2999.996094 0.00390625 2328.429688 0.00390625 1500 C 0.00390625 671.570312 671.570312 0 1500 0 "/>
<path fill-rule="nonzero" fill="rgb(90.234375%, 90.234375%, 90.234375%)" fill-opacity="1" d="M 2260.648438 1583.191406 L 2113.601562 1531.539062 C 2042.28125 1506.488281 2080.390625 1398.261719 2151.53125 1423.230469 L 2433.199219 1523.738281 C 2435.441406 1525.179688 2437.601562 1526.769531 2439.628906 1528.488281 L 2439.671875 1528.441406 C 2442.339844 1530.699219 2444.859375 1533.28125 2447.171875 1536.128906 L 2447.21875 1536.089844 C 2459.628906 1551.441406 2463.25 1572.511719 2456.699219 1591.179688 L 2361.871094 1861.160156 C 2336.839844 1932.421875 2228.589844 1894.339844 2253.570312 1823.238281 L 2299.429688 1692.671875 L 1881.988281 1916.601562 C 1854 1930.921875 1821.28125 1921.738281 1805.578125 1895.460938 L 1692.601562 1706.238281 L 1166.140625 1945.078125 C 1156.871094 1949.390625 1148.078125 1949.53125 1139.851562 1949.5 C 1086.191406 1949.328125 1058.78125 1869.300781 1115.628906 1842.03125 L 1689.078125 1580.421875 C 1716.96875 1567.03125 1748.761719 1576.449219 1764.160156 1602.230469 L 1876 1789.539062 Z M 2013.589844 1888.539062 L 2013.589844 1928.210938 C 2013.589844 1940.640625 2003.519531 1950.710938 1991.089844 1950.710938 L 1897.589844 1950.710938 L 1899.070312 1949.980469 Z M 1811.898438 1950.710938 L 1244.480469 1950.710938 L 1511.878906 1829.398438 L 1722.429688 1829.351562 L 1773.390625 1914.679688 C 1783 1930.78125 1796.460938 1942.929688 1811.898438 1950.710938 Z M 1067.429688 1950.710938 L 562.5 1950.710938 C 550.078125 1950.710938 540 1940.640625 540 1928.210938 L 540 1071.789062 C 540 1059.359375 550.078125 1049.289062 562.5 1049.289062 L 1991.089844 1049.289062 C 2003.519531 1049.289062 2013.589844 1059.359375 2013.589844 1071.789062 L 2013.589844 1673.171875 L 1889.828125 1739.558594 L 1866.878906 1701.128906 C 1882.808594 1698.96875 1893.199219 1697.03125 1893.199219 1678.75 L 1893.199219 1312.78125 C 1893.199219 1275 1846.421875 1306.269531 1801.960938 1261.808594 C 1757.511719 1217.359375 1788.769531 1170.578125 1751 1170.578125 L 802.59375 1170.578125 C 764.816406 1170.578125 796.089844 1217.339844 751.625 1261.808594 C 707.160156 1306.269531 660.394531 1275 660.394531 1312.78125 L 660.394531 1678.75 C 660.394531 1716.519531 707.167969 1685.25 751.625 1729.71875 C 799.171875 1777.269531 761.808594 1829.5 802.371094 1829.5 L 1069.980469 1829.5 C 1037.890625 1863.890625 1041.03125 1915.96875 1067.429688 1950.710938 Z M 1276.789062 1288.390625 C 1464.730469 1288.390625 1559.410156 1516.660156 1426.429688 1649.640625 C 1419.199219 1656.871094 1411.671875 1663.390625 1403.921875 1669.300781 L 1672.859375 1546.609375 C 1717.699219 1525.089844 1770.730469 1540.101562 1796.351562 1583.011719 L 1841.859375 1659.230469 C 1843.960938 1658.789062 1846.070312 1658.398438 1848.199219 1658.050781 L 1848.199219 1333.511719 C 1787.671875 1323.871094 1739.898438 1276.101562 1730.269531 1215.578125 L 823.324219 1215.578125 C 813.703125 1276.089844 765.90625 1323.890625 705.394531 1333.511719 L 705.394531 1658.019531 C 768.894531 1668.109375 818.113281 1720.109375 824.40625 1784.421875 L 1151.570312 1784.421875 L 1319.878906 1707.640625 C 1197.898438 1732.359375 1065.179688 1643.300781 1065.179688 1500 C 1065.179688 1383.128906 1159.929688 1288.390625 1276.789062 1288.390625 Z M 1394.609375 1382.191406 C 1289.921875 1277.488281 1110.179688 1352.03125 1110.179688 1500 C 1110.179688 1647.980469 1289.921875 1722.511719 1394.609375 1617.820312 C 1459.679688 1552.75 1459.679688 1447.25 1394.609375 1382.191406 Z M 1345.960938 1453.328125 C 1345.960938 1482.960938 1300.960938 1482.960938 1300.960938 1453.328125 C 1300.960938 1421.519531 1252.628906 1421.519531 1252.628906 1453.328125 C 1252.628906 1489.578125 1293.878906 1466.011719 1325.699219 1497.851562 C 1372.238281 1544.398438 1325.820312 1595.21875 1325.699219 1595.488281 L 1325.699219 1595.578125 C 1317.851562 1603.429688 1308.980469 1608.839844 1299.71875 1612.089844 C 1299.820312 1630.019531 1297.269531 1647.78125 1276.800781 1647.78125 C 1256.210938 1647.78125 1253.75 1629.820312 1253.878906 1611.789062 C 1228.121094 1602.671875 1207.628906 1578.859375 1207.628906 1546.671875 C 1207.628906 1517.050781 1252.628906 1517.050781 1252.628906 1546.671875 C 1252.628906 1568.140625 1278.710938 1578.941406 1293.890625 1563.761719 L 1293.929688 1563.800781 C 1308.898438 1548.738281 1298.578125 1522.5 1276.789062 1522.5 C 1194.109375 1522.5 1186.511719 1408.449219 1253.988281 1387.46875 C 1254.121094 1383.011719 1254.300781 1378.671875 1254.300781 1374.71875 C 1254.300781 1345.101562 1299.300781 1345.101562 1299.300781 1374.71875 C 1299.300781 1378.839844 1299.5 1383.378906 1299.621094 1388.03125 C 1326.609375 1397.460938 1345.960938 1423.140625 1345.960938 1453.328125 Z M 1611.019531 1784.421875 L 1695.609375 1784.421875 L 1677.578125 1754.230469 Z M 1611.019531 1784.421875 "/>
<path fill-rule="nonzero" fill="rgb(0%, 0%, 0%)" fill-opacity="1" d="M 2242.160156 1584.621094 L 2111.140625 1538.601562 C 2082.101562 1528.398438 2069.078125 1505.871094 2068.089844 1482.539062 C 2067.710938 1473.628906 2069.121094 1464.621094 2072.078125 1456.171875 C 2075.058594 1447.710938 2079.601562 1439.761719 2085.480469 1433.03125 C 2100.828125 1415.460938 2125.039062 1406.011719 2154 1416.171875 L 2154.050781 1416.171875 L 2435.71875 1516.679688 L 2437.210938 1517.449219 L 2438.441406 1518.238281 L 2438.761719 1517.851562 L 2444.511719 1522.730469 C 2445.679688 1523.71875 2446.851562 1524.789062 2447.988281 1525.921875 L 2448.359375 1525.621094 L 2453.050781 1531.410156 C 2460.058594 1540.078125 2464.609375 1550.378906 2466.449219 1561.128906 C 2468.289062 1571.851562 2467.46875 1583.078125 2463.761719 1593.640625 L 2368.929688 1863.621094 C 2358.738281 1892.648438 2336.210938 1905.648438 2312.859375 1906.640625 C 2303.960938 1907.011719 2294.941406 1905.601562 2286.488281 1902.640625 C 2278.03125 1899.671875 2270.101562 1895.121094 2263.359375 1889.238281 C 2245.789062 1873.898438 2236.339844 1849.710938 2246.511719 1820.769531 L 2285.988281 1708.371094 L 1885.53125 1923.191406 L 1885.390625 1923.25 C 1869.691406 1931.289062 1852.609375 1932.730469 1837.238281 1928.480469 C 1821.769531 1924.199219 1808.039062 1914.160156 1799.160156 1899.300781 L 1689.609375 1715.820312 L 1169.210938 1951.910156 C 1163.859375 1954.390625 1158.628906 1955.679688 1153.570312 1956.328125 L 1153.539062 1956.328125 C 1148.738281 1956.949219 1144.199219 1956.988281 1139.851562 1956.96875 C 1121.191406 1956.921875 1105.339844 1948.449219 1094.191406 1935.851562 C 1086.660156 1927.351562 1081.261719 1916.929688 1078.570312 1905.941406 C 1075.871094 1894.878906 1075.910156 1883.171875 1079.28125 1872.179688 C 1083.851562 1857.328125 1094.429688 1843.910156 1112.398438 1835.289062 L 1112.519531 1835.230469 L 1685.96875 1573.621094 C 1701.570312 1566.171875 1718.300781 1565.070312 1733.300781 1569.429688 C 1748.460938 1573.828125 1761.859375 1583.800781 1770.578125 1598.390625 L 1878.761719 1779.570312 Z M 2116.058594 1524.480469 L 2263.121094 1576.128906 L 2279.140625 1581.761719 L 2264.199219 1589.78125 L 1879.539062 1796.128906 L 1873.238281 1799.511719 L 1869.578125 1793.378906 L 1757.738281 1606.070312 C 1751.03125 1594.828125 1740.738281 1587.160156 1729.140625 1583.789062 C 1717.519531 1580.421875 1704.5 1581.308594 1692.300781 1587.160156 L 1692.179688 1587.210938 L 1118.761719 1848.820312 C 1105.011719 1855.429688 1096.980469 1865.511719 1093.578125 1876.578125 C 1091.019531 1884.898438 1091.019531 1893.871094 1093.109375 1902.429688 C 1095.21875 1911.070312 1099.46875 1919.269531 1105.378906 1925.941406 C 1113.878906 1935.539062 1125.851562 1941.988281 1139.851562 1942.03125 C 1143.699219 1942.039062 1147.699219 1942.011719 1151.640625 1941.511719 L 1151.640625 1941.5 C 1155.308594 1941.03125 1159.109375 1940.089844 1163 1938.28125 L 1163.058594 1938.261719 L 1689.519531 1699.410156 L 1695.589844 1696.660156 L 1699.019531 1702.398438 L 1812 1891.621094 C 1818.828125 1903.070312 1829.378906 1910.789062 1841.230469 1914.070312 C 1853.058594 1917.328125 1866.25 1916.21875 1878.449219 1910.019531 L 1878.449219 1910.011719 L 2295.878906 1686.078125 L 2306.488281 1695.128906 L 2260.628906 1825.699219 C 2252.808594 1847.941406 2259.910156 1866.390625 2273.210938 1877.988281 C 2278.480469 1882.589844 2284.730469 1886.171875 2291.421875 1888.519531 C 2298.121094 1890.871094 2305.261719 1891.988281 2312.28125 1891.691406 C 2329.910156 1890.949219 2346.988281 1880.96875 2354.808594 1858.691406 L 2449.640625 1588.71875 C 2452.480469 1580.609375 2453.109375 1571.949219 2451.691406 1563.640625 C 2450.390625 1556.078125 2447.359375 1548.820312 2442.75 1542.550781 L 2441.371094 1540.851562 C 2440.390625 1539.640625 2439.320312 1538.441406 2438.210938 1537.300781 C 2437.648438 1536.71875 2437.058594 1536.148438 2436.460938 1535.601562 L 2434.789062 1534.179688 C 2434.03125 1533.53125 2433.101562 1532.800781 2432.039062 1532.011719 C 2431.320312 1531.480469 2430.628906 1531 2429.960938 1530.550781 L 2149.011719 1430.289062 L 2149.019531 1430.28125 C 2126.78125 1422.488281 2108.339844 1429.589844 2096.730469 1442.871094 C 2092.128906 1448.140625 2088.550781 1454.398438 2086.199219 1461.089844 C 2083.859375 1467.789062 2082.738281 1474.929688 2083.03125 1481.949219 C 2083.78125 1499.570312 2093.769531 1516.648438 2116.058594 1524.480469 Z M 2021.089844 1888.539062 L 2021.089844 1928.210938 C 2021.089844 1936.488281 2017.730469 1944 2012.300781 1949.421875 C 2006.878906 1954.851562 1999.371094 1958.21875 1991.089844 1958.21875 L 1897.589844 1958.21875 L 1894.28125 1944 L 1895.660156 1943.320312 L 2010.050781 1881.949219 L 2021.089844 1876.03125 Z M 2006.089844 1928.210938 L 2006.089844 1901.058594 L 1927.519531 1943.210938 L 1991.089844 1943.210938 C 1995.238281 1943.210938 1998.988281 1941.53125 2001.699219 1938.820312 C 2004.410156 1936.109375 2006.089844 1932.359375 2006.089844 1928.210938 Z M 1811.898438 1958.21875 L 1244.480469 1958.21875 L 1241.410156 1943.890625 L 1508.800781 1822.570312 L 1511.878906 1821.929688 L 1722.429688 1821.871094 L 1726.679688 1821.871094 L 1728.851562 1825.511719 L 1779.808594 1910.839844 C 1784.191406 1918.179688 1789.410156 1924.621094 1795.25 1930.070312 C 1801.261719 1935.699219 1808.011719 1940.371094 1815.269531 1944.03125 Z M 1279.148438 1943.210938 L 1787.53125 1943.210938 C 1786.691406 1942.480469 1785.859375 1941.730469 1785.050781 1940.96875 C 1778.148438 1934.519531 1772.039062 1927.011719 1766.96875 1918.519531 L 1718.191406 1836.820312 L 1513.539062 1836.871094 Z M 1067.429688 1958.21875 L 562.5 1958.21875 C 554.222656 1958.21875 546.714844 1954.851562 541.289062 1949.421875 C 535.863281 1944 532.496094 1936.488281 532.496094 1928.210938 L 532.496094 1071.789062 C 532.496094 1063.511719 535.863281 1056 541.289062 1050.578125 C 546.714844 1045.148438 554.222656 1041.789062 562.5 1041.789062 L 1991.089844 1041.789062 C 1999.371094 1041.789062 2006.878906 1045.148438 2012.300781 1050.578125 C 2017.730469 1056 2021.089844 1063.511719 2021.089844 1071.789062 L 2021.089844 1677.628906 L 2017.140625 1679.761719 L 1893.371094 1746.148438 L 1887.070312 1749.53125 L 1883.410156 1743.398438 L 1860.460938 1704.96875 L 1854.640625 1695.230469 L 1865.878906 1693.710938 C 1872.890625 1692.769531 1878.640625 1691.890625 1881.878906 1689.738281 C 1884.308594 1688.128906 1885.691406 1684.949219 1885.691406 1678.75 L 1885.691406 1312.78125 C 1885.691406 1300.429688 1876.648438 1299.128906 1863.308594 1297.230469 C 1844.980469 1294.609375 1820.691406 1291.140625 1796.660156 1267.109375 C 1772.628906 1243.078125 1769.160156 1218.789062 1766.539062 1200.460938 C 1764.640625 1187.121094 1763.351562 1178.078125 1751 1178.078125 L 802.59375 1178.078125 C 790.246094 1178.078125 788.949219 1187.121094 787.046875 1200.449219 C 784.433594 1218.789062 780.964844 1243.070312 756.925781 1267.109375 C 732.890625 1291.140625 708.605469 1294.621094 690.273438 1297.230469 C 676.9375 1299.128906 667.894531 1300.429688 667.894531 1312.78125 L 667.894531 1678.75 C 667.894531 1691.089844 676.9375 1692.390625 690.277344 1694.289062 C 708.609375 1696.910156 732.894531 1700.378906 756.925781 1724.421875 C 783.023438 1750.519531 785.390625 1777.460938 787.171875 1797.738281 C 788.433594 1812.148438 789.304688 1821.988281 802.371094 1821.988281 L 1087.21875 1821.988281 L 1075.460938 1834.589844 C 1061.328125 1849.738281 1054.660156 1868.671875 1054.261719 1887.769531 C 1053.828125 1908.539062 1060.710938 1929.539062 1073.378906 1946.199219 L 1082.511719 1958.21875 Z M 562.5 1943.210938 L 1053.570312 1943.210938 C 1043.96875 1926.289062 1038.910156 1906.800781 1039.320312 1887.480469 C 1039.691406 1869.871094 1044.558594 1852.371094 1054.609375 1837 L 802.371094 1837 C 775.558594 1837 774.203125 1821.589844 772.230469 1799.03125 C 770.65625 1781.089844 768.558594 1757.261719 746.320312 1735.019531 C 725.800781 1714.488281 704.355469 1711.429688 688.167969 1709.121094 C 667.136719 1706.121094 652.890625 1704.089844 652.890625 1678.75 L 652.890625 1312.78125 C 652.890625 1287.441406 667.136719 1285.398438 688.164062 1282.398438 C 704.351562 1280.089844 725.796875 1277.03125 746.320312 1256.5 C 766.847656 1235.980469 769.910156 1214.53125 772.21875 1198.351562 C 775.21875 1177.320312 777.253906 1163.070312 802.59375 1163.070312 L 1751 1163.070312 C 1776.339844 1163.070312 1778.378906 1177.320312 1781.371094 1198.359375 C 1783.691406 1214.539062 1786.75 1235.988281 1807.269531 1256.511719 C 1827.78125 1277.019531 1849.230469 1280.089844 1865.421875 1282.398438 C 1886.449219 1285.398438 1900.699219 1287.441406 1900.699219 1312.78125 L 1900.699219 1678.75 C 1900.699219 1690.820312 1896.878906 1697.761719 1890.140625 1702.230469 C 1886.859375 1704.398438 1883.121094 1705.730469 1878.921875 1706.691406 L 1892.578125 1729.589844 L 2006.089844 1668.710938 L 2006.089844 1071.789062 C 2006.089844 1067.640625 2004.410156 1063.890625 2001.699219 1061.179688 C 1998.988281 1058.46875 1995.238281 1056.789062 1991.089844 1056.789062 L 562.5 1056.789062 C 558.355469 1056.789062 554.597656 1058.46875 551.894531 1061.179688 C 549.1875 1063.890625 547.503906 1067.640625 547.503906 1071.789062 L 547.503906 1928.210938 C 547.503906 1932.359375 549.1875 1936.109375 551.894531 1938.820312 C 554.597656 1941.53125 558.355469 1943.210938 562.5 1943.210938 Z M 1276.789062 1280.878906 C 1339.621094 1280.878906 1392.421875 1305.558594 1430.460938 1343.601562 C 1451.28125 1364.421875 1467.679688 1389.289062 1478.878906 1416.320312 C 1490.070312 1443.351562 1496.058594 1472.53125 1496.058594 1501.949219 C 1496.058594 1551.210938 1479.378906 1601.289062 1442.421875 1643.519531 L 1669.75 1539.808594 C 1693.960938 1528.230469 1720.398438 1526.539062 1744.210938 1533.550781 C 1767.898438 1540.539062 1789.019531 1556.128906 1802.769531 1579.171875 L 1840.691406 1642.679688 L 1840.691406 1339.738281 C 1811.390625 1333.769531 1785.21875 1319.261719 1764.878906 1298.929688 L 1764.859375 1298.910156 L 1764.851562 1298.898438 C 1744.511719 1278.550781 1730 1252.378906 1724.03125 1223.078125 L 829.558594 1223.078125 C 823.59375 1252.390625 809.078125 1278.589844 788.742188 1298.929688 C 768.410156 1319.261719 742.210938 1333.769531 712.894531 1339.738281 L 712.894531 1651.78125 C 743.78125 1658.058594 771.144531 1673.820312 791.875 1695.839844 C 812.476562 1717.710938 826.539062 1745.789062 831.023438 1776.921875 L 1150.011719 1776.921875 L 1276.449219 1719.238281 C 1227.671875 1718.730469 1179.820312 1701.839844 1141.390625 1672.109375 C 1102.308594 1641.871094 1072.929688 1598.339844 1062.171875 1545.210938 C 1059.238281 1530.71875 1057.679688 1515.621094 1057.679688 1500 C 1057.679688 1439.5 1082.210938 1384.710938 1121.859375 1345.058594 C 1161.511719 1305.421875 1216.300781 1280.878906 1276.789062 1280.878906 Z M 1419.859375 1354.210938 C 1384.480469 1318.828125 1335.339844 1295.890625 1276.789062 1295.890625 C 1220.429688 1295.890625 1169.390625 1318.738281 1132.460938 1355.671875 C 1095.53125 1392.601562 1072.679688 1443.640625 1072.679688 1500 C 1072.679688 1514.820312 1074.121094 1528.941406 1076.820312 1542.28125 C 1086.820312 1591.648438 1114.160156 1632.128906 1150.53125 1660.269531 C 1186.941406 1688.441406 1232.441406 1704.238281 1278.730469 1704.238281 C 1292.058594 1704.238281 1305.371094 1702.960938 1318.421875 1700.308594 L 1322.988281 1714.441406 L 1154.671875 1791.21875 L 1151.570312 1791.929688 L 817.636719 1791.929688 L 816.96875 1785.128906 C 813.996094 1754.738281 800.867188 1727.21875 780.980469 1706.101562 C 761.050781 1684.929688 734.320312 1670.191406 704.21875 1665.398438 L 697.890625 1664.390625 L 697.890625 1327.128906 L 704.21875 1326.121094 C 732.84375 1321.570312 758.503906 1307.960938 778.140625 1288.320312 C 797.78125 1268.679688 811.390625 1243.03125 815.9375 1214.398438 L 816.949219 1208.070312 L 1736.640625 1208.070312 L 1737.648438 1214.398438 C 1742.21875 1243.058594 1755.808594 1268.710938 1775.421875 1288.320312 L 1775.449219 1288.351562 C 1795.058594 1307.96875 1820.710938 1321.558594 1849.371094 1326.121094 L 1855.699219 1327.128906 L 1855.699219 1664.351562 L 1849.449219 1665.441406 L 1846.449219 1665.960938 L 1843.300781 1666.578125 L 1838.140625 1667.589844 L 1835.441406 1663.070312 L 1789.929688 1586.851562 C 1778.191406 1567.171875 1760.179688 1553.859375 1740 1547.910156 C 1719.578125 1541.898438 1696.871094 1543.371094 1676.078125 1553.351562 L 1675.960938 1553.410156 L 1407.019531 1676.101562 L 1399.378906 1663.351562 C 1403.199219 1660.441406 1406.898438 1657.429688 1410.449219 1654.339844 C 1413.910156 1651.328125 1417.46875 1647.988281 1421.128906 1644.339844 C 1462.53125 1602.941406 1481.058594 1551.96875 1481.058594 1501.949219 C 1481.058594 1474.421875 1475.480469 1447.191406 1465.050781 1422.011719 C 1454.628906 1396.851562 1439.320312 1373.660156 1419.859375 1354.210938 Z M 1846.449219 1665.960938 Z M 1389.308594 1387.488281 C 1357.039062 1355.210938 1317.308594 1340.769531 1278.328125 1340.769531 C 1256.851562 1340.769531 1235.621094 1345.121094 1216 1353.25 C 1196.359375 1361.378906 1178.28125 1373.308594 1163.121094 1388.46875 L 1163.128906 1388.480469 C 1135.558594 1416.058594 1117.679688 1454.359375 1117.679688 1500 C 1117.679688 1545.640625 1135.570312 1583.949219 1163.128906 1611.519531 C 1178.308594 1626.699219 1196.390625 1638.628906 1216 1646.761719 C 1235.621094 1654.890625 1256.851562 1659.230469 1278.328125 1659.230469 C 1317.320312 1659.230469 1357.039062 1644.789062 1389.308594 1612.519531 C 1420.371094 1581.460938 1435.910156 1540.730469 1435.910156 1500 C 1435.910156 1459.28125 1420.371094 1418.550781 1389.308594 1387.488281 Z M 1278.328125 1325.761719 C 1321.070312 1325.761719 1364.601562 1341.570312 1399.910156 1376.878906 C 1433.910156 1410.878906 1450.921875 1455.449219 1450.921875 1500 C 1450.921875 1544.558594 1433.910156 1589.128906 1399.910156 1623.121094 C 1364.601562 1658.429688 1321.070312 1674.238281 1278.328125 1674.238281 C 1254.960938 1674.238281 1231.789062 1669.480469 1210.308594 1660.578125 C 1188.820312 1651.679688 1169.058594 1638.648438 1152.53125 1622.121094 C 1122.289062 1591.878906 1102.679688 1549.929688 1102.679688 1500 C 1102.679688 1450.078125 1122.289062 1408.121094 1152.53125 1377.878906 L 1152.550781 1377.878906 C 1169.089844 1361.351562 1188.839844 1348.308594 1210.308594 1339.421875 C 1231.789062 1330.519531 1254.949219 1325.761719 1278.328125 1325.761719 Z M 1353.46875 1453.328125 C 1353.46875 1467.550781 1345.558594 1476.710938 1335.449219 1480.761719 C 1331.621094 1482.28125 1327.511719 1483.050781 1323.460938 1483.050781 C 1321.878906 1483.050781 1320.289062 1482.929688 1318.710938 1482.699219 C 1322.859375 1485.320312 1326.980469 1488.539062 1331.011719 1492.570312 C 1376.640625 1538.230469 1341.898438 1587.25 1333.210938 1598.140625 L 1333.210938 1598.679688 L 1331.011719 1600.878906 C 1326.78125 1605.109375 1322.25 1608.71875 1317.519531 1611.71875 C 1314.179688 1613.839844 1310.710938 1615.671875 1307.140625 1617.21875 C 1306.898438 1625.378906 1305.859375 1633.339844 1302.738281 1639.890625 L 1302.730469 1639.878906 C 1298.320312 1649.140625 1290.5 1655.289062 1276.800781 1655.289062 C 1263.011719 1655.289062 1255.199219 1649.050781 1250.800781 1639.710938 C 1247.691406 1633.089844 1246.679688 1625.089844 1246.449219 1616.910156 C 1233.621094 1611.371094 1222.230469 1602.429688 1213.960938 1590.789062 C 1205.359375 1578.679688 1200.128906 1563.699219 1200.128906 1546.671875 C 1200.128906 1532.449219 1208.03125 1523.289062 1218.140625 1519.25 C 1221.96875 1517.71875 1226.078125 1516.949219 1230.128906 1516.949219 C 1230.921875 1516.949219 1231.710938 1516.980469 1232.5 1517.039062 C 1225.890625 1512.449219 1220.308594 1506.839844 1215.75 1500.53125 C 1208.28125 1490.191406 1203.648438 1477.988281 1201.859375 1465.371094 C 1200.089844 1452.871094 1201.121094 1439.871094 1204.941406 1427.808594 L 1204.921875 1427.800781 C 1211.238281 1407.890625 1225.160156 1390.578125 1246.679688 1382.121094 C 1246.738281 1379.910156 1246.800781 1377.609375 1246.800781 1374.71875 C 1246.800781 1360.511719 1254.699219 1351.351562 1264.808594 1347.300781 C 1268.640625 1345.769531 1272.75 1345 1276.800781 1345 C 1280.828125 1345 1284.929688 1345.769531 1288.761719 1347.300781 L 1288.78125 1347.300781 C 1298.898438 1351.351562 1306.800781 1360.511719 1306.800781 1374.71875 C 1306.800781 1377.96875 1306.871094 1380.441406 1306.941406 1382.859375 C 1320.019531 1388.460938 1331.21875 1397.589844 1339.339844 1409.03125 C 1348.238281 1421.558594 1353.46875 1436.851562 1353.46875 1453.328125 Z M 1329.890625 1466.871094 C 1334.699219 1464.941406 1338.460938 1460.441406 1338.460938 1453.328125 C 1338.460938 1440.03125 1334.269531 1427.730469 1327.148438 1417.699219 C 1319.808594 1407.351562 1309.351562 1399.351562 1297.160156 1395.089844 L 1292.308594 1393.398438 L 1292.148438 1388.238281 L 1292.03125 1384.148438 C 1291.910156 1380.460938 1291.800781 1376.878906 1291.800781 1374.71875 C 1291.800781 1367.621094 1288.03125 1363.109375 1283.21875 1361.191406 L 1283.230469 1361.179688 C 1281.261719 1360.398438 1279.058594 1360.011719 1276.800781 1360.011719 C 1274.558594 1360.011719 1272.339844 1360.410156 1270.378906 1361.191406 C 1265.570312 1363.109375 1261.800781 1367.621094 1261.800781 1374.71875 C 1261.800781 1376.960938 1261.679688 1380.601562 1261.558594 1384.359375 L 1261.460938 1387.679688 L 1261.300781 1393.039062 L 1256.191406 1394.621094 C 1236.96875 1400.589844 1224.640625 1415.238281 1219.21875 1432.308594 L 1219.191406 1432.308594 C 1216.058594 1442.199219 1215.21875 1452.929688 1216.691406 1463.320312 C 1218.148438 1473.601562 1221.878906 1483.488281 1227.871094 1491.800781 C 1237.761719 1505.488281 1254.050781 1515 1276.789062 1515 C 1285.871094 1515 1293.488281 1518.550781 1299 1524.019531 C 1302.019531 1527.03125 1304.398438 1530.628906 1306.011719 1534.53125 C 1307.628906 1538.460938 1308.488281 1542.671875 1308.488281 1546.871094 C 1308.488281 1554.699219 1305.609375 1562.671875 1299.230469 1569.078125 L 1293.929688 1574.410156 L 1293.28125 1573.75 C 1288.191406 1576.898438 1282.570312 1578.359375 1277.019531 1578.359375 C 1272.800781 1578.359375 1268.601562 1577.488281 1264.691406 1575.871094 C 1260.808594 1574.261719 1257.21875 1571.890625 1254.238281 1568.910156 L 1254.238281 1568.890625 C 1248.710938 1563.359375 1245.128906 1555.71875 1245.128906 1546.671875 C 1245.128906 1539.570312 1241.359375 1535.058594 1236.550781 1533.140625 L 1236.558594 1533.128906 C 1234.589844 1532.351562 1232.390625 1531.960938 1230.128906 1531.960938 C 1227.890625 1531.960938 1225.671875 1532.359375 1223.710938 1533.140625 C 1218.898438 1535.058594 1215.128906 1539.570312 1215.128906 1546.671875 C 1215.128906 1560.449219 1219.300781 1572.46875 1226.148438 1582.121094 C 1233.648438 1592.671875 1244.371094 1600.480469 1256.371094 1604.730469 L 1261.390625 1606.511719 L 1261.351562 1611.820312 C 1261.300781 1619.929688 1261.769531 1627.910156 1264.339844 1633.390625 C 1266.28125 1637.519531 1269.988281 1640.28125 1276.800781 1640.28125 C 1283.550781 1640.28125 1287.261719 1637.558594 1289.199219 1633.46875 L 1289.199219 1633.441406 C 1291.789062 1628.011719 1292.289062 1620.128906 1292.25 1612.121094 L 1292.21875 1606.800781 L 1297.261719 1605.03125 C 1301.398438 1603.578125 1305.511719 1601.589844 1309.5 1599.058594 C 1313.101562 1596.769531 1316.589844 1594.011719 1319.898438 1590.769531 L 1320.078125 1590.550781 L 1320.199219 1590.410156 C 1322.980469 1587.140625 1360.429688 1543.160156 1320.398438 1503.121094 C 1307.480469 1490.191406 1292.121094 1487.480469 1279.46875 1485.261719 C 1259.839844 1481.800781 1245.128906 1479.199219 1245.128906 1453.328125 C 1245.128906 1438.320312 1253.46875 1428.660156 1264.128906 1424.398438 L 1264.148438 1424.398438 C 1268.191406 1422.789062 1272.53125 1421.96875 1276.789062 1421.96875 C 1281.070312 1421.96875 1285.410156 1422.78125 1289.460938 1424.398438 C 1300.128906 1428.660156 1308.46875 1438.320312 1308.46875 1453.328125 C 1308.46875 1460.441406 1312.230469 1464.941406 1317.039062 1466.871094 C 1319 1467.660156 1321.210938 1468.050781 1323.460938 1468.050781 C 1325.699219 1468.050781 1327.921875 1467.648438 1329.890625 1466.871094 Z M 1302.488281 1475.171875 C 1297.050781 1470.199219 1293.460938 1462.921875 1293.460938 1453.328125 C 1293.460938 1445.441406 1289.261719 1440.429688 1283.898438 1438.289062 C 1281.71875 1437.421875 1279.28125 1436.980469 1276.789062 1436.980469 C 1274.308594 1436.980469 1271.859375 1437.421875 1269.691406 1438.28125 L 1269.691406 1438.289062 C 1264.328125 1440.429688 1260.128906 1445.441406 1260.128906 1453.328125 C 1260.128906 1466.621094 1269.519531 1468.28125 1282.050781 1470.488281 C 1288.398438 1471.609375 1295.339844 1472.828125 1302.488281 1475.171875 Z M 1253.011719 1526.761719 C 1257.359375 1531.621094 1260.128906 1538.261719 1260.128906 1546.671875 C 1260.128906 1551.46875 1261.980469 1555.46875 1264.828125 1558.320312 L 1264.839844 1558.308594 C 1266.449219 1559.921875 1268.371094 1561.191406 1270.429688 1562.039062 C 1272.480469 1562.890625 1274.730469 1563.351562 1277.019531 1563.351562 C 1281.058594 1563.351562 1285.210938 1561.828125 1288.578125 1558.460938 L 1289.738281 1557.300781 C 1292.308594 1554.179688 1293.480469 1550.488281 1293.480469 1546.871094 C 1293.480469 1544.550781 1293.03125 1542.28125 1292.179688 1540.21875 C 1291.328125 1538.140625 1290.058594 1536.21875 1288.449219 1534.628906 C 1285.628906 1531.828125 1281.640625 1530 1276.789062 1530 C 1268.128906 1530 1260.199219 1528.859375 1253.011719 1526.761719 Z M 1645.679688 1776.921875 L 1682.421875 1776.921875 L 1674.589844 1763.808594 Z M 1695.609375 1791.929688 L 1611.019531 1791.929688 L 1607.941406 1777.601562 L 1674.5 1747.398438 L 1680.570312 1744.648438 L 1684 1750.390625 L 1702.03125 1780.589844 L 1708.800781 1791.929688 L 1695.609375 1791.929688 "/>
</svg>
