<?xml version="1.0" encoding="UTF-8"?>
<svg xmlns="http://www.w3.org/2000/svg" xmlns:xlink="http://www.w3.org/1999/xlink" width="3000" height="3000" viewBox="0 0 3000 3000">
<path fill-rule="evenodd" fill="rgb(95.3125%, 56.054688%, 25.488281%)" fill-opacity="1" d="M 1500 0 C 2328.429688 0 3000 671.570312 3000 1500 C 3000 2328.429688 2328.429688 3000 1500 3000 C 671.570312 3000 0 2328.429688 0 1500 C 0 671.570312 671.570312 0 1500 0 "/>
<path fill-rule="evenodd" fill="rgb(90.234375%, 90.234375%, 90.234375%)" fill-opacity="1" d="M 1991.878906 2459.996094 L 1007.96875 2459.996094 C 924.105469 2459.996094 855.792969 2391.6875 855.792969 2307.816406 L 855.789062 692.179688 C 855.789062 608.308594 924.101562 540 1007.96875 540 L 1992.039062 540 C 2075.898438 540 2144.21875 608.308594 2144.21875 692.179688 L 2144.21875 2307.8125 C 2144.21875 2391.773438 2075.808594 2459.996094 1991.878906 2459.996094 Z M 1506.359375 815.25 L 1310.808594 815.25 C 1275.550781 815.25 1246.898438 786.589844 1246.898438 751.339844 C 1246.898438 716.089844 1275.550781 687.429688 1310.808594 687.429688 L 1506.359375 687.429688 C 1541.621094 687.429688 1570.269531 716.089844 1570.269531 751.339844 C 1570.429688 786.589844 1541.621094 815.25 1506.359375 815.25 Z M 1677.089844 827.050781 C 1635.25 827.050781 1601.230469 793.03125 1601.230469 751.339844 C 1601.230469 709.660156 1635.398438 675.480469 1677.089844 675.480469 C 1718.78125 675.480469 1752.949219 709.5 1752.949219 751.191406 C 1752.949219 792.871094 1718.929688 827.050781 1677.089844 827.050781 Z M 1742.691406 2339.691406 L 1257.171875 2339.691406 C 1234.828125 2339.691406 1216.710938 2321.558594 1216.710938 2299.230469 C 1216.710938 2276.910156 1234.828125 2258.777344 1257.171875 2258.777344 L 1742.691406 2258.777344 C 1764.941406 2258.777344 1783.140625 2276.976562 1783.140625 2299.230469 C 1783.140625 2321.558594 1765.03125 2339.691406 1742.691406 2339.691406 Z M 1459.46875 1754.859375 C 1396.128906 1737.160156 1349.578125 1678.96875 1349.578125 1610.039062 C 1349.578125 1587.710938 1367.699219 1569.578125 1390.039062 1569.578125 C 1412.378906 1569.578125 1430.5 1587.710938 1430.5 1610.039062 C 1430.5 1648.308594 1461.648438 1679.460938 1499.921875 1679.460938 C 1538.210938 1679.460938 1569.351562 1648.308594 1569.351562 1610.039062 C 1569.351562 1571.761719 1538.210938 1540.609375 1499.921875 1540.609375 C 1416.980469 1540.609375 1349.578125 1473.210938 1349.578125 1390.269531 C 1349.578125 1321.339844 1396.128906 1263.140625 1459.46875 1245.441406 L 1459.46875 1177.25 C 1459.46875 1154.839844 1477.519531 1136.789062 1499.921875 1136.789062 C 1522.339844 1136.789062 1540.378906 1154.839844 1540.378906 1177.25 L 1540.378906 1245.441406 C 1603.71875 1263.140625 1650.269531 1321.339844 1650.269531 1390.269531 C 1650.269531 1412.601562 1632.128906 1430.71875 1609.808594 1430.71875 C 1587.480469 1430.71875 1569.351562 1412.601562 1569.351562 1390.269531 C 1569.351562 1351.988281 1538.210938 1320.839844 1499.921875 1320.839844 C 1461.648438 1320.839844 1430.5 1351.988281 1430.5 1390.269531 C 1430.5 1428.539062 1461.648438 1459.699219 1499.921875 1459.699219 C 1582.871094 1459.699219 1650.269531 1527.089844 1650.269531 1610.039062 C 1650.269531 1678.96875 1603.71875 1737.160156 1540.378906 1754.859375 L 1540.378906 1822.761719 C 1540.378906 1845.089844 1522.269531 1863.21875 1499.921875 1863.21875 C 1477.589844 1863.21875 1459.46875 1845.089844 1459.46875 1822.761719 Z M 1768.429688 2025.210938 C 1762.761719 2025.210938 1757.089844 2022.914062 1752.800781 2018.773438 L 1646.289062 1912.261719 C 1637.699219 1903.679688 1637.699219 1889.730469 1646.289062 1880.988281 L 1752.800781 1774.480469 C 1759.078125 1768.199219 1768.589844 1766.359375 1776.859375 1769.730469 C 1785.140625 1773.101562 1790.5 1781.21875 1790.5 1790.109375 L 1790.5 1837.929688 L 1970.269531 1837.929688 C 1982.378906 1837.929688 1992.339844 1847.890625 1992.339844 1860 L 1992.339844 1933.261719 C 1992.339844 1945.359375 1982.378906 1955.328125 1970.269531 1955.328125 L 1790.5 1955.328125 L 1790.5 2003.144531 C 1790.5 2012.035156 1785.128906 2020.15625 1776.859375 2023.527344 C 1774.109375 2024.75 1771.351562 2025.210938 1768.429688 2025.210938 Z M 1231.421875 1232.109375 C 1228.511719 1232.109375 1225.75 1231.5 1222.988281 1230.429688 C 1214.71875 1227.050781 1209.351562 1218.929688 1209.351562 1210.039062 L 1209.351562 1162.21875 L 1029.578125 1162.21875 C 1017.320312 1162.21875 1007.511719 1152.410156 1007.511719 1140.160156 L 1007.511719 1066.890625 C 1007.511719 1054.640625 1017.320312 1044.828125 1029.578125 1044.828125 L 1209.351562 1044.828125 L 1209.351562 997.011719 C 1209.351562 988.121094 1214.71875 980 1222.988281 976.621094 C 1231.269531 973.25 1240.769531 975.089844 1247.058594 981.378906 L 1353.570312 1087.890625 C 1362.160156 1096.480469 1362.160156 1110.421875 1353.570312 1119.160156 L 1247.058594 1225.671875 C 1242.761719 1229.808594 1237.089844 1232.109375 1231.421875 1232.109375 Z M 1007.96875 620.921875 C 968.625 620.921875 936.707031 652.828125 936.707031 692.179688 L 936.707031 2307.8125 C 936.707031 2347.078125 968.695312 2379.074219 1007.96875 2379.074219 L 1992.039062 2379.078125 C 2031.300781 2379.078125 2063.300781 2347.09375 2063.300781 2307.816406 L 2063.300781 692.179688 C 2063.300781 652.828125 2031.378906 620.921875 1992.039062 620.921875 L 1007.96875 620.921875 "/>
<path fill-rule="nonzero" fill="rgb(0%, 0%, 0%)" fill-opacity="1" d="M 1991.878906 2467.5 L 1007.96875 2467.5 C 963.972656 2467.5 924.050781 2449.574219 895.132812 2420.65625 C 866.214844 2391.742188 848.289062 2351.816406 848.289062 2307.816406 L 848.320312 2307.816406 L 848.316406 692.179688 L 848.285156 692.179688 C 848.285156 648.191406 866.210938 608.261719 895.128906 579.339844 C 924.046875 550.429688 963.96875 532.5 1007.96875 532.5 L 1992.039062 532.5 C 2036.039062 532.5 2075.960938 550.429688 2104.878906 579.339844 C 2133.789062 608.261719 2151.71875 648.191406 2151.71875 692.179688 L 2151.71875 2307.8125 C 2151.71875 2351.828125 2133.769531 2391.742188 2104.820312 2420.660156 C 2075.878906 2449.589844 2035.910156 2467.5 1991.878906 2467.5 Z M 1007.96875 2452.492188 L 1991.878906 2452.492188 C 2031.808594 2452.492188 2068.039062 2436.265625 2094.269531 2410.058594 C 2120.46875 2383.886719 2136.710938 2347.726562 2136.710938 2307.8125 L 2136.710938 692.179688 C 2136.710938 652.320312 2120.46875 616.140625 2094.269531 589.949219 C 2068.078125 563.75 2031.898438 547.511719 1992.039062 547.511719 L 1007.96875 547.511719 C 968.101562 547.511719 931.929688 563.75 905.730469 589.949219 C 879.53125 616.140625 863.289062 652.320312 863.289062 692.179688 L 863.257812 692.179688 L 863.265625 2307.816406 L 863.296875 2307.816406 C 863.296875 2347.683594 879.535156 2383.859375 905.734375 2410.054688 C 931.933594 2436.253906 968.105469 2452.492188 1007.96875 2452.492188 Z M 1506.359375 822.75 L 1310.808594 822.75 C 1291.121094 822.75 1273.261719 814.738281 1260.328125 801.808594 L 1260.328125 801.789062 C 1247.410156 788.859375 1239.390625 771.011719 1239.390625 751.339844 C 1239.390625 731.679688 1247.398438 713.828125 1260.328125 700.890625 L 1260.339844 700.878906 L 1260.359375 700.871094 C 1273.300781 687.941406 1291.148438 679.929688 1310.808594 679.929688 L 1506.359375 679.929688 C 1526.050781 679.929688 1543.910156 687.941406 1556.839844 700.871094 L 1556.839844 700.890625 C 1569.761719 713.820312 1577.78125 731.671875 1577.78125 751.339844 L 1577.78125 751.628906 C 1577.78125 771.191406 1569.769531 788.941406 1556.871094 801.808594 C 1544.011719 814.648438 1526.25 822.628906 1506.679688 822.71875 L 1506.648438 822.75 Z M 1310.808594 807.738281 L 1506.648438 807.738281 L 1506.648438 807.78125 C 1522.089844 807.699219 1536.140625 801.371094 1546.320312 791.210938 C 1556.46875 781.078125 1562.769531 767.078125 1562.769531 751.628906 L 1562.769531 751.339844 C 1562.769531 735.78125 1556.441406 721.660156 1546.25 711.460938 L 1546.238281 711.46875 C 1536.03125 701.261719 1521.921875 694.941406 1506.359375 694.941406 L 1310.808594 694.941406 C 1295.230469 694.941406 1281.128906 701.25 1270.929688 711.441406 L 1270.910156 711.46875 C 1260.710938 721.660156 1254.398438 735.761719 1254.398438 751.339844 C 1254.398438 766.898438 1260.730469 781.019531 1270.921875 791.21875 L 1270.929688 791.210938 C 1281.140625 801.421875 1295.25 807.738281 1310.808594 807.738281 Z M 1677.089844 834.550781 C 1654.128906 834.550781 1633.300781 825.210938 1618.210938 810.148438 C 1603.101562 795.058594 1593.730469 774.238281 1593.730469 751.339844 C 1593.730469 728.441406 1603.121094 707.589844 1618.230469 692.480469 L 1618.238281 692.488281 C 1633.371094 677.371094 1654.210938 667.96875 1677.089844 667.96875 C 1699.988281 667.96875 1720.839844 677.328125 1735.949219 692.421875 C 1751.058594 707.5 1760.449219 728.300781 1760.449219 751.191406 C 1760.449219 774.089844 1751.089844 794.949219 1735.980469 810.070312 L 1735.949219 810.089844 C 1720.859375 825.179688 1700.039062 834.550781 1677.089844 834.550781 Z M 1628.761719 799.550781 C 1641.128906 811.890625 1658.230469 819.550781 1677.089844 819.550781 C 1695.929688 819.550781 1713.011719 811.859375 1725.390625 799.5 C 1737.769531 787.109375 1745.449219 769.988281 1745.449219 751.191406 C 1745.449219 732.410156 1737.761719 715.359375 1725.398438 703.019531 C 1713.011719 690.648438 1695.898438 682.980469 1677.089844 682.980469 C 1658.300781 682.980469 1641.210938 690.671875 1628.828125 703.050781 L 1628.828125 703.078125 C 1616.441406 715.46875 1608.730469 732.570312 1608.730469 751.339844 C 1608.730469 770.140625 1616.398438 787.199219 1628.761719 799.550781 Z M 1742.691406 2347.195312 L 1257.171875 2347.195312 C 1243.929688 2347.195312 1231.941406 2341.816406 1223.261719 2333.140625 C 1214.578125 2324.460938 1209.210938 2312.457031 1209.210938 2299.230469 C 1209.210938 2286.007812 1214.578125 2274.007812 1223.261719 2265.328125 C 1231.941406 2256.648438 1243.929688 2251.273438 1257.171875 2251.273438 L 1742.691406 2251.273438 C 1755.878906 2251.273438 1767.871094 2256.667969 1776.558594 2265.359375 L 1776.550781 2265.371094 C 1785.25 2274.074219 1790.648438 2286.070312 1790.648438 2299.230469 C 1790.648438 2312.457031 1785.269531 2324.460938 1776.589844 2333.140625 C 1767.910156 2341.816406 1755.921875 2347.195312 1742.691406 2347.195312 Z M 1257.171875 2332.1875 L 1742.691406 2332.1875 C 1751.789062 2332.1875 1760.03125 2328.496094 1765.988281 2322.539062 C 1771.949219 2316.578125 1775.640625 2308.328125 1775.640625 2299.230469 C 1775.640625 2290.15625 1771.941406 2281.914062 1765.988281 2275.960938 L 1765.960938 2275.960938 C 1759.988281 2269.988281 1751.75 2266.277344 1742.691406 2266.277344 L 1257.171875 2266.277344 C 1248.070312 2266.277344 1239.820312 2269.972656 1233.871094 2275.929688 C 1227.910156 2281.890625 1224.210938 2290.140625 1224.210938 2299.230469 C 1224.210938 2308.328125 1227.910156 2316.578125 1233.871094 2322.539062 C 1239.820312 2328.496094 1248.070312 2332.1875 1257.171875 2332.1875 Z M 1451.96875 1760.421875 C 1420.660156 1750.410156 1393.578125 1730.890625 1374.140625 1705.28125 C 1354.03125 1678.769531 1342.078125 1645.75 1342.078125 1610.039062 C 1342.078125 1596.808594 1347.460938 1584.808594 1356.140625 1576.128906 C 1364.808594 1567.449219 1376.808594 1562.070312 1390.039062 1562.070312 C 1403.269531 1562.070312 1415.269531 1567.449219 1423.941406 1576.128906 C 1432.621094 1584.808594 1438 1596.808594 1438 1610.039062 C 1438 1627.121094 1444.941406 1642.609375 1456.128906 1653.800781 L 1456.160156 1653.828125 C 1467.351562 1665.019531 1482.839844 1671.960938 1499.921875 1671.960938 C 1517.011719 1671.960938 1532.5 1665.019531 1543.691406 1653.828125 L 1543.71875 1653.800781 C 1554.910156 1642.609375 1561.851562 1627.121094 1561.851562 1610.039062 C 1561.851562 1592.949219 1554.910156 1577.460938 1543.71875 1566.269531 L 1543.691406 1566.25 C 1532.5 1555.050781 1517.011719 1548.109375 1499.921875 1548.109375 C 1456.390625 1548.109375 1416.921875 1530.421875 1388.351562 1501.851562 C 1359.769531 1473.269531 1342.078125 1433.800781 1342.078125 1390.269531 C 1342.078125 1354.550781 1354.03125 1321.53125 1374.140625 1295.019531 C 1393.578125 1269.410156 1420.660156 1249.890625 1451.96875 1239.890625 L 1451.96875 1177.25 C 1451.96875 1163.988281 1457.320312 1152.011719 1465.988281 1143.339844 L 1465.988281 1143.308594 C 1474.660156 1134.640625 1486.660156 1129.28125 1499.921875 1129.28125 C 1513.191406 1129.28125 1525.191406 1134.640625 1533.859375 1143.308594 L 1533.859375 1143.339844 C 1542.53125 1152.011719 1547.890625 1163.988281 1547.890625 1177.25 L 1547.890625 1239.890625 C 1579.191406 1249.890625 1606.269531 1269.410156 1625.710938 1295.019531 C 1645.820312 1321.53125 1657.769531 1354.550781 1657.769531 1390.269531 C 1657.769531 1403.460938 1652.398438 1415.449219 1643.71875 1424.140625 L 1643.699219 1424.160156 L 1643.691406 1424.171875 C 1635 1432.851562 1623 1438.230469 1609.808594 1438.230469 C 1596.589844 1438.230469 1584.578125 1432.851562 1575.898438 1424.171875 C 1567.230469 1415.488281 1561.851562 1403.488281 1561.851562 1390.269531 C 1561.851562 1373.179688 1554.910156 1357.691406 1543.71875 1346.5 L 1543.691406 1346.480469 C 1532.5 1335.289062 1517.011719 1328.339844 1499.921875 1328.339844 C 1482.839844 1328.339844 1467.351562 1335.289062 1456.160156 1346.480469 L 1456.128906 1346.5 C 1444.941406 1357.691406 1438 1373.179688 1438 1390.269531 C 1438 1407.359375 1444.941406 1422.839844 1456.128906 1434.03125 L 1456.160156 1434.058594 C 1467.351562 1445.25 1482.839844 1452.191406 1499.921875 1452.191406 C 1543.460938 1452.191406 1582.929688 1469.890625 1611.5 1498.460938 C 1640.078125 1527.03125 1657.769531 1566.5 1657.769531 1610.039062 C 1657.769531 1645.75 1645.820312 1678.769531 1625.710938 1705.28125 C 1606.28125 1730.890625 1579.191406 1750.410156 1547.890625 1760.421875 L 1547.890625 1822.761719 C 1547.890625 1835.988281 1542.511719 1847.988281 1533.828125 1856.671875 C 1525.148438 1865.351562 1513.160156 1870.71875 1499.921875 1870.71875 C 1486.699219 1870.71875 1474.699219 1865.351562 1466.019531 1856.671875 C 1457.339844 1847.988281 1451.96875 1835.988281 1451.96875 1822.761719 Z M 1386.039062 1696.261719 C 1404.648438 1720.789062 1431.03125 1739.148438 1461.460938 1747.648438 L 1466.96875 1749.191406 L 1466.96875 1822.761719 C 1466.96875 1831.859375 1470.671875 1840.101562 1476.628906 1846.070312 C 1482.578125 1852.019531 1490.828125 1855.71875 1499.921875 1855.71875 C 1509.03125 1855.71875 1517.269531 1852.019531 1523.230469 1846.070312 C 1529.191406 1840.101562 1532.878906 1831.859375 1532.878906 1822.761719 L 1532.878906 1749.191406 L 1538.390625 1747.648438 C 1568.828125 1739.148438 1595.199219 1720.789062 1613.808594 1696.261719 C 1631.980469 1672.320312 1642.769531 1642.429688 1642.769531 1610.039062 C 1642.769531 1570.628906 1626.761719 1534.921875 1600.898438 1509.058594 C 1575.050781 1483.210938 1539.328125 1467.199219 1499.921875 1467.199219 C 1478.75 1467.199219 1459.53125 1458.570312 1445.578125 1444.640625 L 1445.570312 1444.621094 L 1445.558594 1444.609375 C 1431.628906 1430.671875 1422.988281 1411.441406 1422.988281 1390.269531 C 1422.988281 1369.101562 1431.628906 1349.871094 1445.558594 1335.929688 L 1445.570312 1335.910156 L 1445.578125 1335.898438 C 1459.53125 1321.96875 1478.761719 1313.339844 1499.921875 1313.339844 C 1521.101562 1313.339844 1540.320312 1321.96875 1554.269531 1335.898438 L 1554.28125 1335.910156 L 1554.289062 1335.929688 C 1568.21875 1349.871094 1576.851562 1369.101562 1576.851562 1390.269531 C 1576.851562 1399.371094 1580.550781 1407.609375 1586.511719 1413.570312 C 1592.46875 1419.53125 1600.710938 1423.21875 1609.808594 1423.21875 C 1618.921875 1423.21875 1627.171875 1419.539062 1633.109375 1413.589844 L 1633.140625 1413.570312 C 1639.078125 1407.628906 1642.769531 1399.378906 1642.769531 1390.269531 C 1642.769531 1357.871094 1631.980469 1327.988281 1613.808594 1304.050781 C 1595.199219 1279.511719 1568.828125 1261.160156 1538.390625 1252.648438 L 1532.878906 1251.109375 L 1532.878906 1177.25 C 1532.878906 1168.101562 1529.210938 1159.851562 1523.269531 1153.898438 L 1523.261719 1153.910156 C 1517.308594 1147.960938 1509.058594 1144.289062 1499.921875 1144.289062 C 1490.789062 1144.289062 1482.539062 1147.960938 1476.601562 1153.910156 L 1476.578125 1153.898438 C 1470.640625 1159.851562 1466.96875 1168.101562 1466.96875 1177.25 L 1466.96875 1251.109375 L 1461.460938 1252.648438 C 1431.03125 1261.160156 1404.660156 1279.511719 1386.039062 1304.050781 C 1367.871094 1327.988281 1357.089844 1357.871094 1357.089844 1390.269531 C 1357.089844 1429.671875 1373.101562 1465.390625 1398.949219 1491.238281 C 1424.800781 1517.101562 1460.519531 1533.109375 1499.921875 1533.109375 C 1521.101562 1533.109375 1540.320312 1541.738281 1554.269531 1555.671875 L 1554.28125 1555.679688 L 1554.289062 1555.699219 C 1568.21875 1569.640625 1576.851562 1588.871094 1576.851562 1610.039062 C 1576.851562 1631.210938 1568.21875 1650.441406 1554.289062 1664.378906 L 1554.28125 1664.390625 L 1554.269531 1664.410156 C 1540.320312 1678.328125 1521.089844 1686.96875 1499.921875 1686.96875 C 1478.75 1686.96875 1459.53125 1678.328125 1445.578125 1664.410156 L 1445.570312 1664.390625 L 1445.558594 1664.378906 C 1431.628906 1650.441406 1422.988281 1631.199219 1422.988281 1610.039062 C 1422.988281 1600.941406 1419.300781 1592.691406 1413.339844 1586.730469 C 1407.378906 1580.769531 1399.140625 1577.078125 1390.039062 1577.078125 C 1380.941406 1577.078125 1372.699219 1580.769531 1366.738281 1586.730469 C 1360.78125 1592.691406 1357.089844 1600.941406 1357.089844 1610.039062 C 1357.089844 1642.429688 1367.871094 1672.320312 1386.039062 1696.261719 Z M 1768.429688 2032.714844 C 1764.648438 2032.714844 1760.820312 2031.925781 1757.21875 2030.445312 C 1753.710938 2029.003906 1750.421875 2026.875 1747.609375 2024.164062 L 1747.5 2024.078125 L 1640.980469 1917.558594 C 1635.230469 1911.800781 1632.351562 1904.25 1632.351562 1896.691406 C 1632.351562 1889.171875 1635.210938 1881.601562 1640.949219 1875.75 L 1640.980469 1875.691406 L 1747.5 1769.179688 C 1751.699219 1764.980469 1757 1762.25 1762.628906 1761.140625 C 1768.21875 1760.03125 1774.160156 1760.539062 1779.671875 1762.789062 C 1785.210938 1765.03125 1789.78125 1768.890625 1792.96875 1773.660156 C 1796.179688 1778.460938 1798.011719 1784.171875 1798.011719 1790.109375 L 1798.011719 1830.429688 L 1970.269531 1830.429688 C 1978.371094 1830.429688 1985.761719 1833.769531 1991.121094 1839.121094 L 1991.148438 1839.121094 C 1996.511719 1844.480469 1999.839844 1851.878906 1999.839844 1860 L 1999.839844 1933.261719 C 1999.839844 1941.351562 1996.511719 1948.738281 1991.148438 1954.109375 L 1991.121094 1954.128906 C 1985.75 1959.488281 1978.359375 1962.828125 1970.269531 1962.828125 L 1798 1962.828125 L 1798 2003.144531 C 1798 2009.085938 1796.179688 2014.800781 1792.96875 2019.597656 C 1789.78125 2024.367188 1785.199219 2028.222656 1779.671875 2030.472656 L 1779.660156 2030.460938 C 1777.789062 2031.269531 1775.949219 2031.828125 1774.109375 2032.183594 L 1774.078125 2032.183594 C 1772.128906 2032.550781 1770.261719 2032.714844 1768.429688 2032.714844 Z M 1762.910156 2016.617188 C 1764.640625 2017.328125 1766.519531 2017.707031 1768.429688 2017.707031 C 1769.5 2017.707031 1770.460938 2017.636719 1771.300781 2017.480469 L 1771.300781 2017.476562 C 1772.171875 2017.308594 1773.019531 2017.050781 1773.808594 2016.703125 L 1774.039062 2016.582031 C 1776.761719 2015.480469 1779 2013.597656 1780.550781 2011.28125 C 1782.109375 2008.945312 1782.988281 2006.121094 1782.988281 2003.144531 L 1782.988281 1947.820312 L 1970.269531 1947.820312 C 1974.28125 1947.820312 1977.921875 1946.191406 1980.539062 1943.558594 L 1980.570312 1943.53125 C 1983.199219 1940.898438 1984.839844 1937.261719 1984.839844 1933.261719 L 1984.839844 1860 C 1984.839844 1856.011719 1983.191406 1852.371094 1980.550781 1849.71875 L 1980.558594 1849.710938 C 1977.921875 1847.078125 1974.261719 1845.429688 1970.269531 1845.429688 L 1783 1845.429688 L 1783 1790.109375 C 1783 1787.128906 1782.109375 1784.308594 1780.550781 1781.980469 C 1779 1779.660156 1776.761719 1777.78125 1774.050781 1776.671875 C 1771.28125 1775.550781 1768.289062 1775.289062 1765.488281 1775.839844 C 1762.761719 1776.378906 1760.160156 1777.71875 1758.101562 1779.78125 L 1651.589844 1886.300781 L 1651.570312 1886.28125 C 1648.769531 1889.171875 1647.351562 1892.929688 1647.351562 1896.691406 C 1647.351562 1900.421875 1648.769531 1904.140625 1651.589844 1906.960938 L 1758.101562 2013.472656 L 1758.089844 2013.488281 C 1759.519531 2014.847656 1761.171875 2015.90625 1762.910156 2016.617188 Z M 1231.421875 1239.609375 C 1229.558594 1239.609375 1227.640625 1239.390625 1225.691406 1239 L 1225.660156 1239 C 1223.828125 1238.621094 1222.050781 1238.070312 1220.300781 1237.398438 L 1220.179688 1237.371094 C 1214.648438 1235.121094 1210.070312 1231.261719 1206.878906 1226.488281 C 1203.671875 1221.691406 1201.851562 1215.96875 1201.851562 1210.039062 L 1201.851562 1169.71875 L 1029.578125 1169.71875 C 1021.390625 1169.71875 1013.988281 1166.429688 1008.648438 1161.089844 C 1003.300781 1155.738281 1000.011719 1148.351562 1000.011719 1140.160156 L 1000.011719 1066.890625 C 1000.011719 1058.699219 1003.300781 1051.308594 1008.648438 1045.960938 C 1013.988281 1040.621094 1021.390625 1037.320312 1029.578125 1037.320312 L 1201.851562 1037.320312 L 1201.851562 997.011719 C 1201.851562 991.078125 1203.671875 985.359375 1206.878906 980.558594 C 1210.070312 975.789062 1214.648438 971.929688 1220.179688 969.679688 C 1225.691406 967.441406 1231.628906 966.929688 1237.230469 968.03125 C 1242.839844 969.140625 1248.128906 971.871094 1252.339844 976.089844 L 1252.359375 976.078125 L 1358.871094 1082.589844 C 1364.628906 1088.351562 1367.511719 1095.898438 1367.511719 1103.46875 C 1367.511719 1110.988281 1364.640625 1118.558594 1358.910156 1124.398438 L 1358.871094 1124.460938 L 1252.359375 1230.96875 L 1252.238281 1231.058594 C 1249.429688 1233.769531 1246.140625 1235.898438 1242.621094 1237.339844 C 1239.019531 1238.820312 1235.199219 1239.609375 1231.421875 1239.609375 Z M 1228.640625 1224.351562 C 1229.460938 1224.511719 1230.390625 1224.609375 1231.421875 1224.609375 C 1233.320312 1224.609375 1235.199219 1224.21875 1236.941406 1223.519531 C 1238.679688 1222.800781 1240.328125 1221.738281 1241.769531 1220.378906 L 1241.761719 1220.371094 L 1348.269531 1113.859375 L 1348.28125 1113.871094 C 1351.089844 1110.988281 1352.511719 1107.21875 1352.511719 1103.46875 C 1352.511719 1099.738281 1351.089844 1096.019531 1348.269531 1093.191406 L 1241.761719 986.679688 L 1241.761719 986.660156 C 1239.710938 984.609375 1237.121094 983.28125 1234.359375 982.738281 C 1231.558594 982.191406 1228.578125 982.441406 1225.808594 983.570312 C 1223.101562 984.679688 1220.851562 986.558594 1219.300781 988.878906 C 1217.738281 991.210938 1216.851562 994.039062 1216.851562 997.011719 L 1216.851562 1052.328125 L 1029.578125 1052.328125 C 1025.519531 1052.328125 1021.871094 1053.949219 1019.25 1056.558594 C 1016.640625 1059.179688 1015.011719 1062.828125 1015.011719 1066.890625 L 1015.011719 1140.160156 C 1015.011719 1144.21875 1016.640625 1147.871094 1019.25 1150.480469 C 1021.871094 1153.101562 1025.519531 1154.71875 1029.578125 1154.71875 L 1216.851562 1154.71875 L 1216.851562 1210.039062 C 1216.851562 1213.011719 1217.738281 1215.839844 1219.300781 1218.171875 C 1220.851562 1220.488281 1223.101562 1222.371094 1225.808594 1223.480469 L 1225.800781 1223.488281 C 1226.761719 1223.859375 1227.710938 1224.148438 1228.640625 1224.339844 Z M 1007.96875 628.421875 C 990.367188 628.421875 974.417969 635.558594 962.882812 647.101562 C 951.351562 658.628906 944.210938 674.578125 944.210938 692.179688 L 944.210938 2307.8125 C 944.210938 2325.378906 951.367188 2341.320312 962.914062 2352.867188 C 974.460938 2364.414062 990.402344 2371.574219 1007.96875 2371.574219 L 1007.96875 2371.605469 L 1992.039062 2371.609375 L 1992.039062 2371.578125 C 2009.601562 2371.578125 2025.550781 2364.421875 2037.089844 2352.871094 C 2048.640625 2341.328125 2055.800781 2325.386719 2055.800781 2307.816406 L 2055.800781 692.179688 C 2055.800781 674.578125 2048.660156 658.628906 2037.121094 647.101562 C 2025.589844 635.558594 2009.640625 628.421875 1992.039062 628.421875 Z M 952.28125 636.488281 C 966.53125 622.238281 986.234375 613.421875 1007.96875 613.421875 L 1992.039062 613.421875 C 2013.769531 613.421875 2033.480469 622.238281 2047.730469 636.488281 C 2061.980469 650.75 2070.800781 670.449219 2070.800781 692.179688 L 2070.800781 2307.816406 C 2070.800781 2329.519531 2061.960938 2349.214844 2047.699219 2363.476562 C 2033.441406 2377.738281 2013.730469 2386.585938 1992.039062 2386.585938 L 1992.039062 2386.550781 L 1007.96875 2386.546875 L 1007.96875 2386.578125 C 986.269531 2386.578125 966.574219 2377.734375 952.3125 2363.472656 C 938.050781 2349.210938 929.203125 2329.511719 929.203125 2307.8125 L 929.203125 692.179688 C 929.203125 670.449219 938.027344 650.75 952.28125 636.488281 "/>
</svg>
