<?xml version="1.0" encoding="UTF-8"?>
<svg xmlns="http://www.w3.org/2000/svg" xmlns:xlink="http://www.w3.org/1999/xlink" width="3000" height="3000" viewBox="0 0 3000 3000">
<path fill-rule="evenodd" fill="rgb(95.3125%, 56.054688%, 25.488281%)" fill-opacity="1" d="M 1500 0 C 2328.429688 0 3000 671.570312 3000 1500 C 3000 2328.429688 2328.429688 2999.996094 1500 2999.996094 C 671.570312 2999.996094 0.00390625 2328.429688 0.00390625 1500 C 0.00390625 671.570312 671.570312 0 1500 0 "/>
<path fill-rule="evenodd" fill="rgb(90.234375%, 90.234375%, 90.234375%)" fill-opacity="1" d="M 1860.519531 2459.835938 L 762.003906 2459.835938 C 645.308594 2459.835938 550.320312 2364.847656 550.320312 2248.308594 L 550.320312 751.851562 C 550.320312 635.148438 645.308594 540.160156 762.003906 540.160156 L 1512.339844 540.160156 L 1512.339844 1179.269531 C 1512.339844 1191.769531 1522.5 1201.769531 1534.839844 1201.769531 L 2141.140625 1201.769531 L 2141.140625 1614.058594 C 2108.558594 1606.488281 2074.609375 1602.480469 2039.75 1602.480469 C 1793 1602.480469 1592.320312 1803.148438 1592.320312 2049.902344 C 1592.320312 2232.945312 1702.769531 2390.613281 1860.519531 2459.835938 Z M 2039.75 2459.835938 C 1813.691406 2459.835938 1629.820312 2275.957031 1629.820312 2049.902344 C 1629.820312 1823.851562 1813.691406 1639.96875 2039.75 1639.96875 C 2265.800781 1639.96875 2449.679688 1823.851562 2449.679688 2049.902344 C 2449.679688 2275.957031 2265.800781 2459.835938 2039.75 2459.835938 Z M 2134.421875 2267.523438 C 2114.351562 2267.523438 2104.441406 2243.265625 2118.488281 2229.085938 L 2159.261719 2188.316406 L 2012.878906 2188.316406 C 1983.308594 2188.316406 1983.308594 2143.324219 2012.878906 2143.324219 L 2159.261719 2143.324219 L 2118.488281 2102.550781 C 2097.691406 2081.757812 2129.101562 2049.605469 2150.359375 2070.679688 L 2227.199219 2147.523438 C 2229.988281 2149.609375 2232.101562 2152.347656 2233.539062 2155.410156 C 2236.21875 2160.675781 2236.679688 2166.78125 2234.941406 2172.378906 C 2233.601562 2177.363281 2230.679688 2181.886719 2226.191406 2184.828125 L 2150.359375 2260.808594 C 2145.980469 2265.335938 2140.199219 2267.523438 2134.421875 2267.523438 Z M 1945.078125 2035.6875 C 1939.300781 2035.6875 1933.519531 2033.503906 1929.148438 2029.125 L 1852.878906 1952.859375 C 1849.691406 1950.648438 1847.339844 1947.640625 1845.800781 1944.230469 C 1842.140625 1937.011719 1842.628906 1928.199219 1847.269531 1921.320312 C 1848.429688 1919.480469 1849.871094 1917.808594 1851.589844 1916.398438 L 1929.148438 1838.839844 C 1949.941406 1818.050781 1982.089844 1849.449219 1961.011719 1870.710938 L 1920.078125 1911.648438 L 2066.621094 1911.648438 C 2096.199219 1911.648438 2096.199219 1956.640625 2066.621094 1956.640625 L 1920.410156 1956.640625 L 1961.011719 1997.25 C 1975.039062 2011.269531 1965.199219 2035.6875 1945.078125 2035.6875 Z M 1283 999 L 824.652344 999 C 794.996094 999 794.996094 954 824.652344 954 L 1283 954 C 1312.660156 954 1312.660156 999 1283 999 Z M 1283 787.929688 L 824.652344 787.929688 C 794.996094 787.929688 794.996094 742.941406 824.652344 742.941406 L 1283 742.941406 C 1312.660156 742.941406 1312.660156 787.929688 1283 787.929688 Z M 1278.320312 2043.28125 C 1168.410156 2025.589844 1129.730469 1881.648438 1182.398438 1881.648438 C 1194.898438 1881.648438 1204.898438 1891.808594 1204.898438 1904.148438 C 1204.898438 1957.109375 1248.019531 2000.070312 1300.820312 2000.070312 C 1353.621094 2000.070312 1396.730469 1956.949219 1396.730469 1904.148438 C 1396.730469 1851.351562 1353.621094 1808.230469 1300.820312 1808.230469 C 1223.019531 1808.230469 1159.910156 1744.96875 1159.910156 1667.320312 C 1159.910156 1597.328125 1211.308594 1539.03125 1278.320312 1528.21875 L 1278.320312 1451.261719 C 1278.320312 1421.601562 1323.308594 1421.601562 1323.308594 1451.261719 L 1323.308594 1528.191406 C 1433.230469 1545.878906 1471.910156 1689.820312 1419.230469 1689.820312 C 1406.738281 1689.820312 1396.730469 1679.660156 1396.730469 1667.320312 C 1396.730469 1614.359375 1353.621094 1571.398438 1300.820312 1571.398438 C 1248.019531 1571.398438 1204.898438 1614.359375 1204.898438 1667.320312 C 1204.898438 1720.28125 1248.019531 1763.238281 1300.820312 1763.238281 C 1378.621094 1763.238281 1441.730469 1826.511719 1441.730469 1904.148438 C 1441.730469 1974.140625 1390.320312 2032.4375 1323.308594 2043.253906 L 1323.308594 2119.890625 C 1323.308594 2132.234375 1313.160156 2142.390625 1300.820312 2142.390625 C 1288.320312 2142.390625 1278.320312 2132.234375 1278.320312 2119.890625 Z M 1557.328125 553.628906 L 2128.390625 1156.78125 L 1557.328125 1156.78125 Z M 1557.328125 553.628906 "/>
<path fill-rule="nonzero" fill="rgb(0%, 0%, 0%)" fill-opacity="1" d="M 1860.519531 2467.339844 L 762.003906 2467.339844 C 701.613281 2467.339844 646.832031 2442.753906 607.140625 2403.09375 C 567.425781 2363.410156 542.816406 2308.640625 542.816406 2248.308594 L 542.816406 751.851562 C 542.816406 691.441406 567.40625 636.628906 607.097656 596.941406 C 646.785156 557.25 701.59375 532.660156 762.003906 532.660156 L 1519.851562 532.660156 L 1519.851562 1179.269531 C 1519.851562 1183.429688 1521.53125 1187.179688 1524.210938 1189.878906 L 1524.230469 1189.871094 C 1526.941406 1192.578125 1530.71875 1194.269531 1534.839844 1194.269531 L 2148.640625 1194.269531 L 2148.640625 1623.488281 L 2139.46875 1621.359375 C 2123.339844 1617.609375 2106.828125 1614.738281 2090.019531 1612.820312 C 2073.601562 1610.949219 2056.820312 1609.980469 2039.75 1609.980469 C 1918.441406 1609.980469 1808.449219 1659.308594 1728.800781 1738.960938 C 1649.148438 1818.609375 1599.820312 1928.601562 1599.820312 2049.902344 C 1599.820312 2138.484375 1626.121094 2221.015625 1671.320312 2290.097656 C 1717.980469 2361.414062 1784.761719 2418.421875 1863.511719 2452.980469 Z M 762.003906 2452.332031 L 1827.789062 2452.332031 C 1759.25 2416.09375 1701.019531 2362.863281 1658.78125 2298.300781 C 1612.03125 2226.84375 1584.820312 2141.484375 1584.820312 2049.902344 C 1584.820312 1924.46875 1635.828125 1810.730469 1718.199219 1728.359375 C 1800.570312 1645.988281 1914.308594 1594.96875 2039.75 1594.96875 C 2057.230469 1594.96875 2074.589844 1595.980469 2091.71875 1597.941406 C 2105.871094 1599.558594 2119.859375 1601.839844 2133.640625 1604.738281 L 2133.640625 1209.269531 L 1534.839844 1209.269531 C 1526.601562 1209.269531 1519.058594 1205.910156 1513.621094 1200.46875 L 1513.621094 1200.449219 C 1508.21875 1195.03125 1504.839844 1187.550781 1504.839844 1179.269531 L 1504.839844 547.671875 L 762.003906 547.671875 C 705.71875 547.671875 654.671875 570.570312 617.699219 607.539062 C 580.730469 644.511719 557.824219 695.558594 557.824219 751.851562 L 557.824219 2248.308594 C 557.824219 2304.535156 580.726562 2355.550781 617.691406 2392.492188 C 654.660156 2429.429688 705.710938 2452.332031 762.003906 2452.332031 Z M 2039.75 2467.339844 C 1924.660156 2467.339844 1820.289062 2420.523438 1744.710938 2344.941406 C 1669.128906 2269.359375 1622.308594 2164.992188 1622.308594 2049.902344 C 1622.308594 1934.808594 1669.128906 1830.449219 1744.710938 1754.871094 C 1820.289062 1679.289062 1924.660156 1632.46875 2039.75 1632.46875 C 2154.839844 1632.46875 2259.199219 1679.289062 2334.789062 1754.871094 C 2410.371094 1830.449219 2457.179688 1934.808594 2457.179688 2049.902344 C 2457.179688 2164.992188 2410.371094 2269.359375 2334.78125 2344.941406 C 2259.199219 2420.523438 2154.839844 2467.339844 2039.75 2467.339844 Z M 1755.308594 2334.335938 C 1828.179688 2407.199219 1928.789062 2452.332031 2039.75 2452.332031 C 2150.699219 2452.332031 2251.320312 2407.203125 2324.179688 2334.335938 C 2397.050781 2261.472656 2442.179688 2160.859375 2442.179688 2049.902344 C 2442.179688 1938.941406 2397.050781 1838.339844 2324.179688 1765.46875 C 2251.320312 1692.609375 2150.699219 1647.480469 2039.75 1647.480469 C 1928.789062 1647.480469 1828.179688 1692.609375 1755.308594 1765.46875 C 1682.449219 1838.339844 1637.320312 1938.941406 1637.320312 2049.902344 C 1637.320312 2160.859375 1682.449219 2261.476562 1755.308594 2334.335938 Z M 2134.421875 2275.027344 C 2125.878906 2275.027344 2118.660156 2271.664062 2113.421875 2266.472656 C 2110.550781 2263.628906 2108.300781 2260.230469 2106.769531 2256.550781 C 2105.230469 2252.851562 2104.398438 2248.847656 2104.398438 2244.835938 C 2104.398438 2237.453125 2107.128906 2229.921875 2113.191406 2223.8125 L 2113.191406 2223.785156 L 2141.160156 2195.820312 L 2012.878906 2195.820312 C 1998.699219 2195.820312 1989.550781 2187.917969 1985.5 2177.796875 L 1985.488281 2177.800781 C 1983.96875 2173.976562 1983.199219 2169.871094 1983.199219 2165.820312 C 1983.199219 2161.773438 1983.96875 2157.667969 1985.488281 2153.839844 L 1985.5 2153.84375 C 1989.550781 2143.730469 1998.691406 2135.824219 2012.878906 2135.824219 L 2141.160156 2135.824219 L 2113.191406 2107.851562 C 2103.199219 2097.867188 2102.289062 2085.792969 2106.539062 2075.765625 C 2108.140625 2071.964844 2110.511719 2068.492188 2113.398438 2065.589844 C 2116.300781 2062.671875 2119.761719 2060.28125 2123.53125 2058.671875 C 2133.480469 2054.414062 2145.488281 2055.320312 2155.628906 2065.378906 L 2155.660156 2065.378906 L 2232.308594 2142.027344 C 2233.941406 2143.320312 2235.390625 2144.769531 2236.640625 2146.328125 C 2238.039062 2148.074219 2239.230469 2149.996094 2240.199219 2152.019531 L 2240.21875 2152.011719 C 2242 2155.515625 2243.050781 2159.296875 2243.371094 2163.113281 C 2243.671875 2166.839844 2243.269531 2170.648438 2242.171875 2174.308594 L 2242.179688 2174.3125 C 2241.269531 2177.695312 2239.78125 2180.953125 2237.75 2183.851562 L 2237.730469 2183.84375 C 2235.890625 2186.46875 2233.609375 2188.796875 2230.929688 2190.671875 L 2155.71875 2266.019531 L 2155.71875 2266.027344 C 2152.878906 2268.960938 2149.570312 2271.175781 2146.011719 2272.671875 C 2142.269531 2274.25 2138.320312 2275.027344 2134.421875 2275.027344 Z M 2123.96875 2255.871094 C 2126.511719 2258.386719 2130.101562 2260.019531 2134.421875 2260.019531 C 2136.441406 2260.019531 2138.421875 2259.648438 2140.210938 2258.894531 C 2141.929688 2258.171875 2143.558594 2257.070312 2145 2255.589844 L 2145.058594 2255.53125 L 2220.890625 2179.550781 L 2222.089844 2178.554688 C 2223.480469 2177.648438 2224.621094 2176.523438 2225.488281 2175.269531 L 2225.488281 2175.242188 C 2226.5 2173.816406 2227.238281 2172.175781 2227.710938 2170.441406 L 2227.789062 2170.179688 C 2228.371094 2168.3125 2228.578125 2166.316406 2228.421875 2164.347656 C 2228.261719 2162.433594 2227.738281 2160.535156 2226.859375 2158.804688 L 2226.769531 2158.570312 C 2226.300781 2157.566406 2225.699219 2156.589844 2224.988281 2155.699219 C 2224.328125 2154.878906 2223.558594 2154.132812 2222.71875 2153.503906 L 2221.898438 2152.828125 L 2145.058594 2075.980469 L 2145.070312 2075.96875 C 2139.988281 2070.941406 2134.140625 2070.410156 2129.390625 2072.445312 C 2127.398438 2073.296875 2125.558594 2074.578125 2124 2076.140625 C 2122.429688 2077.722656 2121.148438 2079.578125 2120.308594 2081.566406 C 2118.269531 2086.378906 2118.800781 2092.257812 2123.789062 2097.25 L 2164.558594 2138.023438 L 2177.371094 2150.828125 L 2012.878906 2150.828125 C 2005.789062 2150.828125 2001.300781 2154.585938 1999.378906 2159.378906 L 1999.378906 2159.402344 C 1998.601562 2161.371094 1998.199219 2163.578125 1998.199219 2165.820312 C 1998.199219 2168.0625 1998.601562 2170.273438 1999.378906 2172.238281 L 1999.378906 2172.265625 C 2001.300781 2177.0625 2005.789062 2180.8125 2012.878906 2180.8125 L 2159.261719 2180.8125 L 2164.558594 2193.617188 L 2123.789062 2234.390625 L 2123.78125 2234.375 C 2120.769531 2237.414062 2119.410156 2241.164062 2119.410156 2244.835938 C 2119.410156 2246.910156 2119.828125 2248.957031 2120.601562 2250.8125 C 2121.378906 2252.699219 2122.53125 2254.4375 2123.96875 2255.871094 Z M 1945.078125 2043.191406 C 1937.410156 2043.191406 1929.710938 2040.261719 1923.859375 2034.414062 L 1923.839844 2034.425781 L 1847.910156 1958.488281 C 1846.070312 1957.128906 1844.441406 1955.558594 1843.03125 1953.839844 C 1841.371094 1951.820312 1840.03125 1949.621094 1839 1947.351562 C 1836.640625 1942.578125 1835.621094 1937.320312 1835.949219 1932.128906 C 1836.289062 1926.871094 1837.988281 1921.679688 1841.058594 1917.128906 L 1841.070312 1917.140625 C 1841.808594 1915.96875 1842.660156 1914.839844 1843.609375 1913.761719 L 1843.609375 1913.71875 C 1844.390625 1912.828125 1845.289062 1911.949219 1846.300781 1911.078125 L 1923.839844 1833.539062 C 1933.828125 1823.550781 1945.910156 1822.640625 1955.929688 1826.890625 C 1959.730469 1828.5 1963.210938 1830.871094 1966.101562 1833.75 C 1969.019531 1836.648438 1971.410156 1840.109375 1973.03125 1843.878906 C 1977.28125 1853.828125 1976.378906 1865.839844 1966.320312 1875.988281 L 1966.320312 1876.019531 L 1938.191406 1904.140625 L 2066.621094 1904.140625 C 2080.808594 1904.140625 2089.949219 1912.050781 2094 1922.171875 L 2094.011719 1922.160156 C 2095.539062 1925.988281 2096.308594 1930.089844 2096.308594 1934.148438 C 2096.308594 1938.199219 2095.539062 1942.300781 2094.011719 1946.128906 L 2094 1946.121094 C 2089.949219 1956.238281 2080.808594 1964.148438 2066.621094 1964.148438 L 1938.519531 1964.148438 L 1966.320312 1991.949219 C 1972.371094 1998 1975.089844 2005.539062 1975.089844 2012.953125 C 1975.089844 2016.933594 1974.269531 2020.90625 1972.738281 2024.621094 C 1971.21875 2028.3125 1968.980469 2031.707031 1966.148438 2034.546875 L 1966.148438 2034.574219 C 1960.929688 2039.800781 1953.691406 2043.191406 1945.078125 2043.191406 Z M 1934.449219 2023.851562 C 1937.328125 2026.738281 1941.199219 2028.1875 1945.078125 2028.1875 C 1949.398438 2028.1875 1953 2026.519531 1955.550781 2023.96875 L 1955.558594 2023.984375 C 1957.011719 2022.535156 1958.148438 2020.804688 1958.910156 2018.933594 C 1959.679688 2017.082031 1960.089844 2015.039062 1960.089844 2012.953125 C 1960.089844 2009.300781 1958.730469 2005.566406 1955.710938 2002.550781 L 1915.109375 1961.941406 L 1902.308594 1949.140625 L 2066.621094 1949.140625 C 2073.710938 1949.140625 2078.199219 1945.378906 2080.121094 1940.589844 L 2080.121094 1940.570312 C 2080.898438 1938.601562 2081.300781 1936.390625 2081.300781 1934.148438 C 2081.300781 1931.898438 2080.898438 1929.691406 2080.121094 1927.71875 L 2080.121094 1927.699219 C 2078.199219 1922.910156 2073.710938 1919.148438 2066.621094 1919.148438 L 1901.96875 1919.148438 L 1914.78125 1906.351562 L 1955.710938 1865.410156 L 1955.730469 1865.421875 C 1960.761719 1860.339844 1961.289062 1854.5 1959.25 1849.75 C 1958.398438 1847.761719 1957.121094 1845.910156 1955.550781 1844.359375 C 1953.96875 1842.78125 1952.121094 1841.511719 1950.128906 1840.671875 C 1945.320312 1838.628906 1939.441406 1839.148438 1934.449219 1844.140625 L 1856.890625 1921.699219 L 1856.339844 1922.171875 C 1855.871094 1922.558594 1855.371094 1923.050781 1854.859375 1923.628906 L 1854.851562 1923.621094 C 1854.410156 1924.121094 1853.980469 1924.699219 1853.601562 1925.308594 L 1853.480469 1925.511719 C 1851.929688 1927.808594 1851.070312 1930.441406 1850.898438 1933.070312 C 1850.730469 1935.738281 1851.261719 1938.441406 1852.480469 1940.859375 L 1852.628906 1941.148438 C 1853.160156 1942.328125 1853.808594 1943.421875 1854.570312 1944.339844 C 1855.300781 1945.230469 1856.148438 1946.039062 1857.128906 1946.710938 L 1858.179688 1947.558594 L 1934.449219 2023.824219 Z M 1283 1006.5 L 824.652344 1006.5 C 810.425781 1006.5 801.257812 998.601562 797.210938 988.480469 C 795.679688 984.648438 794.910156 980.550781 794.910156 976.5 C 794.910156 972.449219 795.679688 968.339844 797.214844 964.519531 C 801.257812 954.410156 810.421875 946.5 824.652344 946.5 L 1283 946.5 C 1297.230469 946.5 1306.398438 954.410156 1310.449219 964.519531 C 1311.980469 968.339844 1312.75 972.449219 1312.75 976.5 C 1312.75 980.550781 1311.980469 984.660156 1310.449219 988.480469 C 1306.398438 998.589844 1297.230469 1006.5 1283 1006.5 Z M 824.652344 991.488281 L 1283 991.488281 C 1290.128906 991.488281 1294.628906 987.730469 1296.558594 982.921875 C 1297.351562 980.949219 1297.738281 978.738281 1297.738281 976.5 C 1297.738281 974.261719 1297.351562 972.050781 1296.558594 970.078125 C 1294.628906 965.269531 1290.121094 961.511719 1283 961.511719 L 824.652344 961.511719 C 817.535156 961.511719 813.023438 965.269531 811.101562 970.078125 C 810.3125 972.050781 809.914062 974.261719 809.914062 976.5 C 809.914062 978.738281 810.3125 980.949219 811.097656 982.921875 C 813.023438 987.730469 817.539062 991.488281 824.652344 991.488281 Z M 1283 795.441406 L 824.652344 795.441406 C 810.425781 795.441406 801.257812 787.539062 797.210938 777.421875 C 795.679688 773.589844 794.910156 769.488281 794.910156 765.441406 C 794.910156 761.390625 795.679688 757.28125 797.214844 753.460938 C 801.257812 743.351562 810.421875 735.441406 824.652344 735.441406 L 1283 735.441406 C 1297.230469 735.441406 1306.398438 743.351562 1310.449219 753.460938 C 1311.980469 757.28125 1312.75 761.390625 1312.75 765.441406 C 1312.75 769.488281 1311.980469 773.601562 1310.449219 777.421875 C 1306.398438 787.53125 1297.230469 795.441406 1283 795.441406 Z M 824.652344 780.429688 L 1283 780.429688 C 1290.128906 780.429688 1294.628906 776.671875 1296.558594 771.859375 C 1297.351562 769.890625 1297.738281 767.679688 1297.738281 765.441406 C 1297.738281 763.199219 1297.351562 760.988281 1296.558594 759.019531 C 1294.628906 754.210938 1290.121094 750.449219 1283 750.449219 L 824.652344 750.449219 C 817.535156 750.449219 813.023438 754.210938 811.101562 759.019531 C 810.3125 760.988281 809.914062 763.199219 809.914062 765.441406 C 809.914062 767.679688 810.3125 769.890625 811.097656 771.859375 C 813.023438 776.671875 817.539062 780.429688 824.652344 780.429688 Z M 1270.820312 2049.496094 C 1215.808594 2038.089844 1178.710938 1996.539062 1161.960938 1957.558594 C 1156.488281 1944.808594 1153.148438 1932.191406 1152.039062 1920.898438 C 1150.890625 1909.070312 1152.230469 1898.53125 1156.140625 1890.511719 L 1156.121094 1890.5 C 1161.109375 1880.28125 1169.820312 1874.148438 1182.398438 1874.148438 C 1190.679688 1874.148438 1198.160156 1877.53125 1203.578125 1882.929688 L 1203.601562 1882.960938 C 1209.050781 1888.410156 1212.398438 1895.921875 1212.398438 1904.148438 C 1212.398438 1928.539062 1222.328125 1950.640625 1238.320312 1966.628906 L 1238.320312 1966.660156 C 1254.320312 1982.660156 1276.449219 1992.570312 1300.820312 1992.570312 C 1325.148438 1992.570312 1347.261719 1982.621094 1363.269531 1966.609375 L 1363.300781 1966.609375 C 1379.300781 1950.609375 1389.230469 1928.5 1389.230469 1904.148438 C 1389.230469 1879.820312 1379.289062 1857.710938 1363.269531 1841.691406 C 1347.261719 1825.679688 1325.148438 1815.730469 1300.820312 1815.730469 C 1259.878906 1815.730469 1222.78125 1799.089844 1195.921875 1772.230469 C 1169.039062 1745.351562 1152.398438 1708.230469 1152.398438 1667.320312 C 1152.398438 1630.78125 1165.75 1597.238281 1187.820312 1571.300781 C 1208.871094 1546.578125 1237.878906 1528.800781 1270.820312 1522 L 1270.820312 1451.261719 C 1270.820312 1437.03125 1278.71875 1427.859375 1288.839844 1423.808594 C 1292.660156 1422.289062 1296.769531 1421.519531 1300.820312 1421.519531 C 1304.871094 1421.519531 1308.980469 1422.289062 1312.800781 1423.820312 C 1322.910156 1427.859375 1330.820312 1437.03125 1330.820312 1451.261719 L 1330.820312 1521.980469 C 1385.828125 1533.378906 1422.921875 1574.941406 1439.671875 1613.910156 C 1445.140625 1626.660156 1448.480469 1639.28125 1449.589844 1650.570312 C 1450.75 1662.441406 1449.410156 1672.980469 1445.519531 1680.96875 C 1440.53125 1691.191406 1431.808594 1697.320312 1419.230469 1697.320312 C 1410.949219 1697.320312 1403.480469 1693.949219 1398.058594 1688.539062 L 1398.03125 1688.539062 C 1392.589844 1683.101562 1389.230469 1675.570312 1389.230469 1667.320312 C 1389.230469 1642.929688 1379.308594 1620.839844 1363.308594 1604.839844 C 1347.300781 1588.828125 1325.171875 1578.910156 1300.820312 1578.910156 C 1276.46875 1578.910156 1254.339844 1588.828125 1238.320312 1604.839844 C 1222.328125 1620.839844 1212.398438 1642.929688 1212.398438 1667.320312 C 1212.398438 1691.710938 1222.328125 1713.808594 1238.320312 1729.800781 L 1238.320312 1729.828125 C 1254.320312 1745.828125 1276.449219 1755.738281 1300.820312 1755.738281 C 1341.761719 1755.738281 1378.851562 1772.390625 1405.710938 1799.238281 C 1432.589844 1826.121094 1449.230469 1863.25 1449.230469 1904.148438 C 1449.230469 1940.691406 1435.890625 1974.238281 1413.808594 2000.167969 C 1392.769531 2024.894531 1363.761719 2042.671875 1330.820312 2049.472656 L 1330.820312 2119.890625 C 1330.820312 2128.125 1327.429688 2135.632812 1321.988281 2141.070312 L 1321.980469 2141.058594 C 1316.53125 2146.503906 1309.03125 2149.894531 1300.820312 2149.894531 C 1292.511719 2149.894531 1285.03125 2146.519531 1279.621094 2141.109375 C 1274.179688 2135.671875 1270.820312 2128.144531 1270.820312 2119.890625 Z M 1175.738281 1951.640625 C 1191.480469 1988.289062 1226.921875 2027.433594 1279.5 2035.898438 L 1285.828125 2036.914062 L 1285.828125 2119.890625 C 1285.828125 2124.019531 1287.511719 2127.792969 1290.21875 2130.507812 C 1292.921875 2133.203125 1296.660156 2134.890625 1300.820312 2134.890625 C 1304.941406 2134.890625 1308.691406 2133.199219 1311.390625 2130.496094 L 1311.390625 2130.46875 C 1314.109375 2127.746094 1315.808594 2123.992188 1315.808594 2119.890625 L 1315.808594 2036.890625 L 1322.140625 2035.871094 C 1354.101562 2030.714844 1382.320312 2014.136719 1402.449219 1990.488281 C 1422.25 1967.230469 1434.230469 1937.070312 1434.230469 1904.148438 C 1434.230469 1867.378906 1419.269531 1834 1395.109375 1809.839844 C 1370.96875 1785.710938 1337.628906 1770.738281 1300.820312 1770.738281 C 1272.359375 1770.738281 1246.488281 1759.140625 1227.730469 1740.390625 L 1227.71875 1740.398438 C 1209.011719 1721.691406 1197.398438 1695.851562 1197.398438 1667.320312 C 1197.398438 1638.800781 1209.011719 1612.949219 1227.71875 1594.238281 C 1246.449219 1575.5 1272.328125 1563.898438 1300.820312 1563.898438 C 1329.300781 1563.898438 1355.179688 1575.5 1373.921875 1594.238281 C 1392.628906 1612.949219 1404.238281 1638.800781 1404.238281 1667.320312 C 1404.238281 1671.441406 1405.921875 1675.21875 1408.640625 1677.941406 L 1408.621094 1677.949219 C 1411.320312 1680.640625 1415.070312 1682.320312 1419.230469 1682.320312 C 1425.378906 1682.320312 1429.628906 1679.351562 1432.03125 1674.410156 C 1434.730469 1668.890625 1435.601562 1661.101562 1434.710938 1651.980469 C 1433.761719 1642.300781 1430.789062 1631.238281 1425.890625 1619.828125 C 1410.148438 1583.179688 1374.710938 1544.03125 1322.140625 1535.570312 L 1315.808594 1534.558594 L 1315.808594 1451.261719 C 1315.808594 1444.140625 1312.050781 1439.628906 1307.238281 1437.710938 C 1305.269531 1436.921875 1303.058594 1436.519531 1300.820312 1436.519531 C 1298.578125 1436.519531 1296.371094 1436.921875 1294.398438 1437.699219 C 1289.589844 1439.628906 1285.828125 1444.140625 1285.828125 1451.261719 L 1285.828125 1534.578125 L 1279.5 1535.601562 C 1247.539062 1540.761719 1219.308594 1557.339844 1199.191406 1580.980469 C 1179.378906 1604.238281 1167.410156 1634.410156 1167.410156 1667.320312 C 1167.410156 1704.089844 1182.371094 1737.46875 1206.53125 1761.628906 C 1230.671875 1785.769531 1264.011719 1800.730469 1300.820312 1800.730469 C 1329.28125 1800.730469 1355.140625 1812.359375 1373.878906 1831.089844 C 1392.609375 1849.828125 1404.238281 1875.691406 1404.238281 1904.148438 C 1404.238281 1932.589844 1392.601562 1958.449219 1373.859375 1977.199219 L 1373.878906 1977.210938 C 1355.140625 1995.949219 1329.28125 2007.574219 1300.820312 2007.574219 C 1272.359375 2007.574219 1246.488281 1995.96875 1227.730469 1977.21875 L 1227.71875 1977.230469 C 1209.011719 1958.519531 1197.398438 1932.679688 1197.398438 1904.148438 C 1197.398438 1900.019531 1195.730469 1896.261719 1193.03125 1893.539062 C 1190.328125 1890.839844 1186.570312 1889.160156 1182.398438 1889.160156 C 1176.261719 1889.160156 1172.011719 1892.121094 1169.601562 1897.058594 L 1169.570312 1897.058594 C 1166.890625 1902.539062 1166.03125 1910.339844 1166.929688 1919.488281 C 1167.871094 1929.171875 1170.839844 1940.230469 1175.738281 1951.640625 Z M 1562.761719 548.46875 L 2133.808594 1151.621094 L 2145.789062 1164.28125 L 1549.828125 1164.28125 L 1549.828125 553.628906 Z M 2110.980469 1149.28125 L 1564.839844 572.441406 L 1564.839844 1149.28125 Z M 2110.980469 1149.28125 "/>
</svg>
